<svg width="18" height="15" viewBox="0 0 18 15" fill="none" xmlns="http://www.w3.org/2000/svg">
<path d="M1.83333 3.91667H3.29167M3.29167 3.91667C3.67844 3.91667 4.04937 4.07031 4.32286 4.3438C4.59635 4.61729 4.75 4.98823 4.75 5.375C4.75 5.76177 4.59635 6.13271 4.32286 6.4062C4.04937 6.67969 3.67844 6.83333 3.29167 6.83333H1M3.29167 3.91667C3.67844 3.91667 4.04937 3.76302 4.32286 3.48953C4.59635 3.21604 4.75 2.84511 4.75 2.45833C4.75 2.07156 4.59635 1.70063 4.32286 1.42714C4.04937 1.15365 3.67844 1 3.29167 1H1M16 9.33333C16 12.095 12.6417 14.3333 8.5 14.3333C4.35833 14.3333 1 12.095 1 9.33333M10.1667 1H9.33333C8.67029 1 8.03441 1.26339 7.56557 1.73223C7.09672 2.20107 6.83333 2.83696 6.83333 3.5V5.16667M6.83333 5.16667C6.83333 5.60869 7.00893 6.03262 7.32149 6.34518C7.63405 6.65774 8.05797 6.83333 8.5 6.83333H8.91667C9.35869 6.83333 9.78262 6.65774 10.0952 6.34518C10.4077 6.03262 10.5833 5.60869 10.5833 5.16667V4.75C10.5833 4.30797 10.4077 3.88405 10.0952 3.57149C9.78262 3.25893 9.35869 3.08333 8.91667 3.08333H8.5C8.05797 3.08333 7.63405 3.25893 7.32149 3.57149C7.00893 3.88405 6.83333 4.30797 6.83333 4.75V5.16667ZM12.6667 3.91667V2.66667C12.6667 2.22464 12.8423 1.80072 13.1548 1.48816C13.4674 1.17559 13.8913 1 14.3333 1H14.75C15.192 1 15.616 1.17559 15.9285 1.48816C16.2411 1.80072 16.4167 2.22464 16.4167 2.66667V5.16667C16.4167 5.60869 16.2411 6.03262 15.9285 6.34518C15.616 6.65774 15.192 6.83333 14.75 6.83333H14.3333C13.8913 6.83333 13.4674 6.65774 13.1548 6.34518C12.8423 6.03262 12.6667 5.60869 12.6667 5.16667V3.91667Z" stroke="#7C8183" stroke-width="1.25" stroke-linecap="round" stroke-linejoin="round"/>
</svg>
