<svg width="25" height="23" viewBox="0 0 25 23" fill="none" xmlns="http://www.w3.org/2000/svg">
<path d="M5.9375 4.58452e-09H19.0625C19.9379 -4.70002e-05 20.7803 0.36136 21.4179 1.0105C22.0555 1.65964 22.4403 2.54762 22.4938 3.49329L22.5 3.72059V8.25835C23.1814 8.4677 23.7864 8.89959 24.2325 9.49503C24.6786 10.0905 24.944 10.8204 24.9925 11.5852L25 11.8382V21.9853C24.9999 22.2424 24.9097 22.4899 24.7475 22.6777C24.5854 22.8656 24.3634 22.9798 24.1264 22.9973C23.8894 23.0149 23.6551 22.9344 23.4709 22.7721C23.2866 22.6099 23.1661 22.378 23.1338 22.1233L23.125 21.9853V18.9412H1.875V21.9853C1.87499 22.2305 1.79295 22.4674 1.64404 22.6522C1.49514 22.837 1.28944 22.9572 1.065 22.9905L0.9375 23C0.710953 23 0.492072 22.9112 0.321337 22.75C0.150601 22.5889 0.0395604 22.3662 0.00874996 22.1233L0 21.9853V11.8382C0 10.1349 1.0575 8.69941 2.5 8.257V3.72059C2.49996 2.77314 2.83386 1.86137 3.43362 1.17124C4.03337 0.481122 4.85378 0.0646452 5.7275 0.00676487L5.9375 4.58452e-09ZM21.5625 10.1471H3.4375C3.05068 10.1469 2.67754 10.302 2.39029 10.5824C2.10305 10.8628 1.92211 11.2486 1.8825 11.6651L1.875 11.8382V16.9118H23.125V11.8382C23.1249 11.4198 22.9814 11.0163 22.7224 10.7056C22.4633 10.395 22.1071 10.1994 21.7225 10.1565L21.5625 10.1471ZM19.0625 2.02941H5.9375C5.55068 2.02922 5.17754 2.18434 4.89029 2.46475C4.60305 2.74516 4.42211 3.13093 4.3825 3.54741L4.375 3.72059V8.11765H6.25C6.25 7.75882 6.3817 7.4147 6.61612 7.16097C6.85054 6.90725 7.16848 6.76471 7.5 6.76471H10C10.3062 6.76475 10.6017 6.88641 10.8305 7.10661C11.0593 7.32682 11.2054 7.63025 11.2413 7.95935L11.25 8.11765H13.75C13.75 7.75882 13.8817 7.4147 14.1161 7.16097C14.3505 6.90725 14.6685 6.76471 15 6.76471H17.5C17.8062 6.76475 18.1017 6.88641 18.3305 7.10661C18.5593 7.32682 18.7054 7.63025 18.7412 7.95935L18.75 8.11765H20.625V3.72059C20.6252 3.30191 20.4819 2.89804 20.2228 2.58714C19.9637 2.27624 19.6073 2.0804 19.2225 2.03753L19.0625 2.02941Z" fill="#00A0B0"/>
</svg>
