<svg width="25" height="25" viewBox="0 0 25 25" fill="none" xmlns="http://www.w3.org/2000/svg">
<path d="M23.7256 4.51018L23.6546 5.07279L22.8862 11.1601C22.8365 11.6068 22.7048 12.0294 22.4416 12.3499C22.1625 12.6899 21.7692 12.8727 21.3069 12.8728L23.7256 4.51018ZM23.7256 4.51018H23.1585H6.56413H5.99783L6.06798 5.07212L6.9887 12.4475L7.04344 12.886L7.48531 12.8856L21.3064 12.8728L23.7256 4.51018ZM7.72314 13.793H7.15405L7.2273 14.3573L7.40036 15.6905C7.4004 15.6909 7.40044 15.6912 7.40048 15.6915C7.4567 16.1377 7.59928 16.5586 7.86218 16.8786C8.13741 17.2136 8.52615 17.4125 8.99048 17.4125H21.4473C21.5212 17.4125 21.7379 17.5173 21.7379 17.8663C21.7379 18.2152 21.5212 18.32 21.4473 18.32H8.80636C8.15703 18.32 7.70568 18.0936 7.38003 17.7065C7.03806 17.3 6.79935 16.6724 6.69197 15.8204C6.69195 15.8203 6.69193 15.8202 6.69191 15.82L4.95892 1.85857L4.9045 1.42016H4.46273H0.801574C0.763388 1.42016 0.69517 1.40014 0.623268 1.31339C0.552006 1.22741 0.5 1.0989 0.5 0.953759C0.5 0.817703 0.550213 0.692571 0.621859 0.606899C0.694158 0.520448 0.762987 0.5 0.801574 0.5H4.60355C5.08954 0.5 5.27554 0.609253 5.36813 0.709542C5.48017 0.83089 5.57093 1.05875 5.62307 1.53008L5.623 1.53009L5.62405 1.53831L5.82985 3.15328L5.88551 3.59007H6.32584H24.0144C24.1899 3.59007 24.3001 3.64889 24.3679 3.72035C24.4381 3.7944 24.5 3.92187 24.5 4.12006C24.5 4.19774 24.483 4.37135 24.461 4.53797L24.4608 4.53938L23.5943 11.2663L23.5941 11.2681C23.4866 12.1272 23.2475 12.7615 22.9036 13.1728C22.5764 13.5642 22.1227 13.793 21.4688 13.793H7.72314ZM10.9168 22.94C10.9168 23.8971 10.2904 24.5 9.66205 24.5C9.02104 24.5 8.39645 23.8949 8.39645 22.94C8.39645 21.9956 9.02287 21.3799 9.66205 21.3799C10.2886 21.3799 10.9168 21.9934 10.9168 22.94ZM21.0556 22.94C21.0556 23.8949 20.4309 24.5 19.7899 24.5C19.1579 24.5 18.5243 23.8928 18.5243 22.94C18.5243 21.9977 19.1597 21.3799 19.7899 21.3799C20.4291 21.3799 21.0556 21.9956 21.0556 22.94Z" fill="#3F4345" stroke="#3F4345"/>
</svg>
