<svg width="27" height="27" viewBox="0 0 27 27" fill="none" xmlns="http://www.w3.org/2000/svg">
<path d="M22.4149 26V19.0556M22.4149 19.0556H4.58563M22.4149 19.0556C24.1711 19.0556 25.0483 19.0556 25.5778 18.6056C26.1091 18.1556 26.0396 17.5306 25.9005 16.2792C25.8024 15.3764 25.576 14.7681 25.0661 14.3139C24.1532 13.5 22.6823 13.5 19.7405 13.5H7.26002C4.31819 13.5 2.84728 13.5 1.93264 14.3139C1.42272 14.7667 1.19807 15.375 1.09823 16.2792C0.960943 17.5292 0.891408 18.1556 1.42094 18.6056C1.95047 19.0556 2.82945 19.0556 4.58563 19.0556M4.58563 26V19.0556M4.58563 7.94444C4.58563 5.34722 4.58563 4.05 5.30236 3.08333C5.7718 2.44997 6.44697 1.92402 7.26002 1.55833C8.50093 1 10.1662 1 13.5003 1C16.8343 1 18.4996 1 19.7405 1.55833C20.5535 1.92402 21.2287 2.44997 21.6981 3.08333C22.4149 4.05 22.4149 5.34722 22.4149 7.94444V13.5H4.58563V7.94444Z" stroke="#00A0B0" stroke-width="2" stroke-linecap="round"/>
</svg>
