<svg width="358" height="120" viewBox="0 0 358 120" fill="none" xmlns="http://www.w3.org/2000/svg">
<rect width="358" height="120" rx="8" fill="#00A0B0" fill-opacity="0.7"/>
<path d="M274.846 62.6233C271.227 64.3514 267.568 66.8254 264.642 70.3643C263.626 71.593 263.177 73.1741 263.177 74.7683V80.4201C263.177 84.8384 266.759 88.4201 271.177 88.4201H308.792C313.21 88.4201 316.792 84.8384 316.792 80.4201V74.9379C316.792 73.2384 316.273 71.5602 315.162 70.2742C304.962 58.4694 288.109 56.3781 274.846 62.6233Z" fill="#D85656"/>
<path d="M285.633 78.1999H277.161C276.007 78.1999 274.9 78.7046 274.084 79.6031C273.268 80.5016 272.809 81.7202 272.809 82.9909V85.3544H289.984V82.9909C289.984 81.7204 289.525 80.5019 288.709 79.6034C287.893 78.705 286.787 78.2001 285.633 78.1999Z" fill="#FF7B69"/>
<path d="M294.336 78.1999H302.808C303.962 78.1999 305.069 78.7046 305.885 79.6031C306.701 80.5016 307.16 81.7202 307.16 82.9909V85.3544H289.984V82.9909C289.984 81.7202 290.443 80.5016 291.259 79.6031C292.075 78.7046 293.182 78.1999 294.336 78.1999Z" fill="#FF7B69"/>
<path d="M316.428 69.5122H315.109C313.001 69.5122 310.979 70.4342 309.488 72.0755C307.997 73.7167 307.16 75.9427 307.16 78.2638L307.16 85.3544H272.809L272.809 78.2638C272.809 75.9427 271.972 73.7167 270.481 72.0755C268.99 70.4342 266.968 69.5122 264.86 69.5122H263.542C263.071 69.5122 262.606 69.6142 262.171 69.8123C261.737 70.0105 261.342 70.3009 261.009 70.667C260.677 71.0331 260.413 71.4678 260.233 71.9462C260.053 72.4245 259.96 72.9372 259.96 73.455V89.4717C259.96 93.8899 263.542 97.4717 267.96 97.4717H312.009C316.427 97.4717 320.009 93.89 320.009 89.4717V73.455C320.009 72.4093 319.632 71.4064 318.96 70.667C318.288 69.9276 317.378 69.5122 316.428 69.5122Z" fill="#FF7B69"/>
<path d="M325.167 52.5861H329.076V95.517C329.076 96.5964 328.201 97.4714 327.122 97.4714C326.042 97.4714 325.167 96.5964 325.167 95.517V52.5861Z" fill="#E6E6E6"/>
<path d="M322.376 60.8624C322.376 61.1793 322.319 61.493 322.209 61.7858C322.099 62.0785 321.937 62.3445 321.734 62.5686C321.53 62.7926 321.289 62.9703 321.023 63.0916C320.757 63.2128 320.472 63.2752 320.184 63.2752C317.283 63.1649 317.284 58.5595 320.184 58.4496C320.765 58.4496 321.323 58.7038 321.734 59.1563C322.145 59.6088 322.376 60.2225 322.376 60.8624Z" fill="#53737F"/>
<path d="M300.185 20.8731H279.875C278.264 20.8731 276.957 22.3111 276.957 24.085V38.8318C276.957 40.6058 278.264 42.0438 279.875 42.0438H300.185C301.797 42.0438 303.103 40.6058 303.103 38.8318V24.085C303.103 22.3111 301.797 20.8731 300.185 20.8731Z" fill="#7F99CC"/>
<path d="M281.488 31.4585C281.488 28.214 284.118 25.5838 287.363 25.5838H292.697C295.942 25.5838 298.572 28.214 298.572 31.4585C298.572 34.7031 295.942 37.3333 292.697 37.3333H287.363C284.118 37.3333 281.488 34.7031 281.488 31.4585Z" fill="white"/>
<path d="M325.167 52.5861H329.076V54.1758C329.076 55.2552 328.201 56.1302 327.122 56.1302C326.042 56.1302 325.167 55.2552 325.167 54.1758V52.5861Z" fill="#CCCCCC"/>
<path d="M333.422 41.3227C333.223 40.6289 332.828 40.023 332.295 39.5929C331.762 39.1628 331.119 38.931 330.458 38.931H323.786C323.125 38.931 322.481 39.1628 321.948 39.5929C321.415 40.023 321.021 40.6289 320.822 41.3227L320.219 43.4246C318.902 48.0138 322.348 52.5861 327.122 52.5861C331.896 52.5861 335.341 48.0138 334.025 43.4246L333.422 41.3227Z" fill="#FFB14A"/>
<path d="M268.732 65.0988C267.713 65.9072 268.738 67.6042 269.814 66.8455C281.638 58.047 298.388 58.0579 310.2 66.8791C310.41 67.0337 310.667 67.0909 310.915 67.0381C311.164 66.9853 311.383 66.8269 311.526 66.5973C311.669 66.3676 311.723 66.0852 311.678 65.8113C311.633 65.5374 311.492 65.2942 311.285 65.1344C298.839 55.8239 281.192 55.8122 268.732 65.0988Z" fill="#333333"/>
<path d="M259.96 98.5286H320.009C320.264 98.5286 320.508 98.4172 320.688 98.219C320.868 98.0207 320.969 97.7518 320.969 97.4715V73.4548C320.968 72.1292 320.489 70.8584 319.637 69.921C318.786 68.9837 317.632 68.4565 316.428 68.4549H315.109C313.922 68.4573 312.747 68.7204 311.654 69.2286C310.56 69.7369 309.57 70.4801 308.74 71.4149C307.911 72.3497 307.259 73.4572 306.823 74.6727C306.805 74.7216 306.788 74.7707 306.771 74.8199C306.316 76.1507 304.215 77.1413 302.809 77.1426H294.337C293.482 77.143 292.64 77.3706 291.882 77.8059C290.807 78.4236 289.162 78.4237 288.087 77.806C287.329 77.3706 286.488 77.143 285.633 77.1426H277.161C275.745 77.1412 273.658 76.1585 273.206 74.8162C271.796 70.6291 267.917 68.0262 263.542 68.4551C262.338 68.4565 261.183 68.9837 260.332 69.9211C259.48 70.8584 259.001 72.1292 259 73.4548V97.4715C259 97.7518 259.101 98.0207 259.281 98.219C259.461 98.4172 259.706 98.5286 259.96 98.5286ZM290.945 82.9909C290.946 82.0009 291.303 81.0518 291.939 80.3518C292.575 79.6517 293.437 79.258 294.337 79.257H302.808C303.707 79.2581 304.569 79.6519 305.205 80.3519C305.841 81.0519 306.199 82.001 306.2 82.9909C306.264 83.672 305.959 84.2748 305.29 84.2974H292.251C291.53 84.2974 290.945 83.7124 290.945 82.9909ZM273.77 82.9909C273.771 82.0009 274.129 81.0518 274.765 80.3518C275.401 79.6517 276.263 79.258 277.162 79.257H285.634C286.533 79.2581 287.395 79.6519 288.031 80.3519C288.667 81.0519 289.024 82.001 289.025 82.9909C289.025 83.7124 288.44 84.2974 287.719 84.2974H274.679C274.012 84.2756 273.705 83.6722 273.77 82.9909ZM260.921 73.4554C260.922 72.6903 261.198 71.9568 261.69 71.4158C262.181 70.8749 262.847 70.5705 263.542 70.5696H264.86C266.713 70.5719 268.49 71.3834 269.8 72.8259C271.11 74.2685 271.847 76.2243 271.849 78.2644V83.2966C271.85 84.1226 272.148 84.9146 272.679 85.4987C273.209 86.0828 273.929 86.4113 274.679 86.4123C282.31 86.409 297.662 86.4144 305.29 86.4123C305.685 86.4091 306.075 86.3161 306.435 86.1391C306.796 85.962 307.119 85.7047 307.385 85.3834C307.651 85.0621 307.853 84.6838 307.98 84.2721C308.106 83.8604 308.154 83.4244 308.12 82.9914V78.2638C308.122 76.2238 308.859 74.2679 310.169 72.8254C311.48 71.3828 313.256 70.5714 315.109 70.5691H316.428C317.123 70.57 317.789 70.8743 318.28 71.4153C318.772 71.9563 319.048 72.6898 319.049 73.4548V88.4144C319.049 92.8327 315.467 96.4144 311.049 96.4144H268.921C264.502 96.4144 260.92 92.8325 260.921 88.4141L260.921 73.4554Z" fill="#333333"/>
<path d="M325.167 98.5286H329.076C329.331 98.5286 329.575 98.4172 329.755 98.219C329.935 98.0207 330.036 97.7519 330.036 97.4715V60.2589C330.036 56.6052 332.998 53.6432 336.652 53.6432C336.802 53.6417 336.95 53.6016 337.084 53.526C337.218 53.4505 337.334 53.3417 337.423 53.2081C337.512 53.0746 337.571 52.9201 337.596 52.7569C337.621 52.5937 337.612 52.4263 337.568 52.2679L334.338 41.0047C334.08 40.0951 333.564 39.3004 332.866 38.737C332.167 38.1736 331.324 37.8711 330.458 37.8738H323.786C322.92 37.8711 322.076 38.1737 321.378 38.737C320.68 39.3004 320.164 40.0951 319.906 41.0047L316.675 52.2679C316.631 52.4263 316.621 52.5937 316.647 52.7569C316.672 52.9201 316.731 53.0746 316.82 53.2081C316.909 53.3417 317.025 53.4505 317.159 53.526C317.292 53.6016 317.44 53.6417 317.591 53.6432C318.493 53.6432 319.224 54.3745 319.224 55.2765V55.9484C319.224 56.9155 318.543 57.7257 317.904 58.4513C316.164 60.4257 317.168 64.2789 320.184 64.3332C323.2 64.279 324.204 60.4259 322.465 58.4515C321.826 57.7258 321.144 56.9156 321.144 55.9485V55.1746C321.144 54.3288 321.83 53.6432 322.676 53.6432C323.522 53.6432 324.207 54.3288 324.207 55.1746V97.4715C324.207 97.7519 324.308 98.0207 324.488 98.219C324.668 98.4172 324.913 98.5286 325.167 98.5286ZM328.116 95.4202C328.116 95.9693 327.671 96.4144 327.122 96.4144C326.573 96.4144 326.128 95.9693 326.128 95.4202V54.6375C326.128 54.0884 326.573 53.6432 327.122 53.6432C327.671 53.6432 328.116 54.0884 328.116 54.6375V95.4202ZM321.416 60.8625C321.364 62.6544 319.004 62.6537 318.953 60.8625C319.004 59.0709 321.364 59.071 321.416 60.8625ZM327.122 51.5291C323.004 51.5291 320.032 47.5853 321.168 43.627L321.737 41.6412C321.874 41.161 322.146 40.7414 322.515 40.444C322.883 40.1466 323.329 39.9869 323.786 39.9883H330.458C330.915 39.9869 331.36 40.1466 331.729 40.444C332.097 40.7414 332.37 41.1609 332.506 41.6412L333.076 43.6271C334.211 47.5854 331.24 51.5291 327.122 51.5291Z" fill="#333333"/>
<path d="M300.186 43.1011C301.214 43.0997 302.199 42.6495 302.926 41.8494C303.653 41.0492 304.061 39.9644 304.063 38.8328V24.0848C304.061 22.9532 303.653 21.8684 302.926 21.0682C302.199 20.2681 301.214 19.8179 300.186 19.8165H279.875C278.847 19.818 277.862 20.2681 277.135 21.0683C276.408 21.8684 275.999 22.9532 275.998 24.0848V38.832C275.999 39.9636 276.408 41.0484 277.135 41.8486C277.862 42.6487 278.847 43.0989 279.875 43.1003L300.186 43.1011ZM277.918 38.8328V24.0848C277.918 23.5136 278.125 22.966 278.492 22.562C278.859 22.1581 279.356 21.931 279.875 21.9303H300.186C300.705 21.931 301.202 22.1582 301.569 22.5621C301.936 22.966 302.142 23.5136 302.143 24.0848V38.832C302.142 39.4033 301.936 39.951 301.569 40.3549C301.202 40.7589 300.705 40.9862 300.186 40.9869H279.875C279.356 40.9863 278.858 40.759 278.491 40.3551C278.125 39.9511 277.918 39.4041 277.918 38.8328Z" fill="#333333"/>
<path d="M281.488 38.3905H289.329C290.595 38.3554 290.596 36.3115 289.329 36.2761H287.266C284.605 36.2761 282.448 34.1192 282.448 31.4586C282.448 28.7979 284.605 26.641 287.266 26.641H292.794C295.455 26.641 297.612 28.7979 297.612 31.4586V35.3209C297.612 35.8484 297.184 36.2761 296.657 36.2761C295.389 36.311 295.392 38.3565 296.657 38.3905H298.573C298.827 38.3905 299.072 38.2791 299.252 38.0808C299.432 37.8826 299.533 37.6137 299.533 37.3334V25.5838C299.533 25.3034 299.432 25.0345 299.252 24.8363C299.072 24.6381 298.827 24.5267 298.573 24.5267H281.488C281.233 24.5267 280.989 24.6381 280.809 24.8363C280.629 25.0345 280.528 25.3034 280.528 25.5838V37.3334C280.528 37.6137 280.629 37.8826 280.809 38.0808C280.989 38.2791 281.233 38.3905 281.488 38.3905Z" fill="#333333"/>
<path d="M293.548 36.4551C292.477 35.7095 291.448 37.4094 292.482 38.2127C293.553 38.957 294.583 37.2557 293.548 36.4551Z" fill="#333333"/>
<path d="M26.032 34.0092L18.784 17.2092H22.984L29.32 32.0892H26.848L33.28 17.2092H37.144L29.872 34.0092H26.032ZM38.4936 34.0092V21.0972H42.2376V34.0092H38.4936ZM40.3656 19.2972C39.6776 19.2972 39.1176 19.0972 38.6856 18.6972C38.2536 18.2972 38.0376 17.8012 38.0376 17.2092C38.0376 16.6172 38.2536 16.1212 38.6856 15.7212C39.1176 15.3212 39.6776 15.1212 40.3656 15.1212C41.0536 15.1212 41.6136 15.3132 42.0456 15.6972C42.4776 16.0652 42.6936 16.5452 42.6936 17.1372C42.6936 17.7612 42.4776 18.2812 42.0456 18.6972C41.6296 19.0972 41.0696 19.2972 40.3656 19.2972ZM50.0564 34.2012C48.9524 34.2012 47.8884 34.0732 46.8644 33.8172C45.8564 33.5452 45.0564 33.2092 44.4644 32.8092L45.7124 30.1212C46.3044 30.4892 47.0004 30.7932 47.8004 31.0332C48.6164 31.2572 49.4164 31.3692 50.2004 31.3692C51.0644 31.3692 51.6724 31.2652 52.0244 31.0572C52.3924 30.8492 52.5764 30.5612 52.5764 30.1932C52.5764 29.8892 52.4324 29.6652 52.1444 29.5212C51.8724 29.3612 51.5044 29.2412 51.0404 29.1612C50.5764 29.0812 50.0644 29.0012 49.5044 28.9212C48.9604 28.8412 48.4084 28.7372 47.8484 28.6092C47.2884 28.4652 46.7764 28.2572 46.3124 27.9852C45.8484 27.7132 45.4724 27.3452 45.1844 26.8812C44.9124 26.4172 44.7764 25.8172 44.7764 25.0812C44.7764 24.2652 45.0084 23.5452 45.4724 22.9212C45.9524 22.2972 46.6404 21.8092 47.5364 21.4572C48.4324 21.0892 49.5044 20.9052 50.7524 20.9052C51.6324 20.9052 52.5284 21.0012 53.4404 21.1932C54.3524 21.3852 55.1124 21.6652 55.7204 22.0332L54.4724 24.6972C53.8484 24.3292 53.2164 24.0812 52.5764 23.9532C51.9524 23.8092 51.3444 23.7372 50.7524 23.7372C49.9204 23.7372 49.3124 23.8492 48.9284 24.0732C48.5444 24.2972 48.3524 24.5852 48.3524 24.9372C48.3524 25.2572 48.4884 25.4972 48.7604 25.6572C49.0484 25.8172 49.4244 25.9452 49.8884 26.0412C50.3524 26.1372 50.8564 26.2252 51.4004 26.3052C51.9604 26.3692 52.5204 26.4732 53.0804 26.6172C53.6404 26.7612 54.1444 26.9692 54.5924 27.2412C55.0564 27.4972 55.4324 27.8572 55.7204 28.3212C56.0084 28.7692 56.1524 29.3612 56.1524 30.0972C56.1524 30.8972 55.9124 31.6092 55.4324 32.2332C54.9524 32.8412 54.2564 33.3212 53.3444 33.6732C52.4484 34.0252 51.3524 34.2012 50.0564 34.2012ZM63.9104 34.2012C62.8384 34.2012 61.8784 33.9932 61.0304 33.5772C60.1984 33.1612 59.5504 32.5292 59.0864 31.6812C58.6224 30.8172 58.3904 29.7212 58.3904 28.3932V21.0972H62.1344V27.8412C62.1344 28.9132 62.3584 29.7052 62.8064 30.2172C63.2704 30.7132 63.9184 30.9612 64.7504 30.9612C65.3264 30.9612 65.8384 30.8412 66.2864 30.6012C66.7344 30.3452 67.0864 29.9612 67.3424 29.4492C67.5984 28.9212 67.7264 28.2652 67.7264 27.4812V21.0972H71.4704V34.0092H67.9184V30.4572L68.5664 31.4892C68.1344 32.3852 67.4944 33.0652 66.6464 33.5292C65.8144 33.9772 64.9024 34.2012 63.9104 34.2012ZM82.8589 34.0092V31.4892L82.6189 30.9372V26.4252C82.6189 25.6252 82.3709 25.0012 81.8749 24.5532C81.3949 24.1052 80.6509 23.8812 79.6429 23.8812C78.9549 23.8812 78.2749 23.9932 77.6029 24.2172C76.9469 24.4252 76.3869 24.7132 75.9229 25.0812L74.5789 22.4652C75.2829 21.9692 76.1309 21.5852 77.1229 21.3132C78.1149 21.0412 79.1229 20.9052 80.1469 20.9052C82.1149 20.9052 83.6429 21.3692 84.7309 22.2972C85.8189 23.2252 86.3629 24.6732 86.3629 26.6412V34.0092H82.8589ZM78.9229 34.2012C77.9149 34.2012 77.0509 34.0332 76.3309 33.6972C75.6109 33.3452 75.0589 32.8732 74.6749 32.2812C74.2909 31.6892 74.0989 31.0252 74.0989 30.2892C74.0989 29.5212 74.2829 28.8492 74.6509 28.2732C75.0349 27.6972 75.6349 27.2492 76.4509 26.9292C77.2669 26.5932 78.3309 26.4252 79.6429 26.4252H83.0749V28.6092H80.0509C79.1709 28.6092 78.5629 28.7532 78.2269 29.0412C77.9069 29.3292 77.7469 29.6892 77.7469 30.1212C77.7469 30.6012 77.9309 30.9852 78.2989 31.2732C78.6829 31.5452 79.2029 31.6812 79.8589 31.6812C80.4829 31.6812 81.0429 31.5372 81.5389 31.2492C82.0349 30.9452 82.3949 30.5052 82.6189 29.9292L83.1949 31.6572C82.9229 32.4892 82.4269 33.1212 81.7069 33.5532C80.9869 33.9852 80.0589 34.2012 78.9229 34.2012ZM89.7514 34.0092V16.2012H93.4954V34.0092H89.7514ZM96.9702 34.0092V21.0972H100.714V34.0092H96.9702ZM98.8422 19.2972C98.1542 19.2972 97.5942 19.0972 97.1622 18.6972C96.7302 18.2972 96.5142 17.8012 96.5142 17.2092C96.5142 16.6172 96.7302 16.1212 97.1622 15.7212C97.5942 15.3212 98.1542 15.1212 98.8422 15.1212C99.5302 15.1212 100.09 15.3132 100.522 15.6972C100.954 16.0652 101.17 16.5452 101.17 17.1372C101.17 17.7612 100.954 18.2812 100.522 18.6972C100.106 19.0972 99.5462 19.2972 98.8422 19.2972ZM103.301 34.0092V31.7532L110.933 22.7292L111.581 23.9772H103.469V21.0972H114.605V23.3532L106.973 32.3772L106.301 31.1292H114.821V34.0092H103.301ZM123.464 34.2012C121.992 34.2012 120.696 33.9132 119.576 33.3372C118.472 32.7612 117.616 31.9772 117.008 30.9852C116.4 29.9772 116.096 28.8332 116.096 27.5532C116.096 26.2572 116.392 25.1132 116.984 24.1212C117.592 23.1132 118.416 22.3292 119.456 21.7692C120.496 21.1932 121.672 20.9052 122.984 20.9052C124.248 20.9052 125.384 21.1772 126.392 21.7212C127.416 22.2492 128.224 23.0172 128.816 24.0252C129.408 25.0172 129.704 26.2092 129.704 27.6012C129.704 27.7452 129.696 27.9132 129.68 28.1052C129.664 28.2812 129.648 28.4492 129.632 28.6092H119.144V26.4252H127.664L126.224 27.0732C126.224 26.4012 126.088 25.8172 125.816 25.3212C125.544 24.8252 125.168 24.4412 124.688 24.1692C124.208 23.8812 123.648 23.7372 123.008 23.7372C122.368 23.7372 121.8 23.8812 121.304 24.1692C120.824 24.4412 120.448 24.8332 120.176 25.3452C119.904 25.8412 119.768 26.4332 119.768 27.1212V27.6972C119.768 28.4012 119.92 29.0252 120.224 29.5692C120.544 30.0972 120.984 30.5052 121.544 30.7932C122.12 31.0652 122.792 31.2012 123.56 31.2012C124.248 31.2012 124.848 31.0972 125.36 30.8892C125.888 30.6812 126.368 30.3692 126.8 29.9532L128.792 32.1132C128.2 32.7852 127.456 33.3052 126.56 33.6732C125.664 34.0252 124.632 34.2012 123.464 34.2012ZM21.184 63.0092V49.8092C21.184 48.3532 21.616 47.1932 22.48 46.3292C23.344 45.4492 24.576 45.0092 26.176 45.0092C26.72 45.0092 27.24 45.0652 27.736 45.1772C28.248 45.2892 28.68 45.4652 29.032 45.7052L28.048 48.4172C27.84 48.2732 27.608 48.1612 27.352 48.0812C27.096 48.0012 26.824 47.9612 26.536 47.9612C25.992 47.9612 25.568 48.1212 25.264 48.4412C24.976 48.7452 24.832 49.2092 24.832 49.8332V51.0332L24.928 52.6412V63.0092H21.184ZM19.192 53.2652V50.3852H28.144V53.2652H19.192ZM35.4573 63.2012C34.3853 63.2012 33.4253 62.9932 32.5773 62.5772C31.7453 62.1612 31.0973 61.5292 30.6333 60.6812C30.1693 59.8172 29.9373 58.7212 29.9373 57.3932V50.0972H33.6813V56.8412C33.6813 57.9132 33.9053 58.7052 34.3533 59.2172C34.8173 59.7132 35.4653 59.9612 36.2973 59.9612C36.8733 59.9612 37.3853 59.8412 37.8333 59.6012C38.2813 59.3452 38.6333 58.9612 38.8893 58.4492C39.1453 57.9212 39.2733 57.2652 39.2733 56.4812V50.0972H43.0173V63.0092H39.4653V59.4572L40.1133 60.4892C39.6813 61.3852 39.0413 62.0652 38.1933 62.5292C37.3613 62.9772 36.4493 63.2012 35.4573 63.2012ZM46.4858 63.0092V50.0972H50.0618V53.7452L49.5578 52.6892C49.9418 51.7772 50.5578 51.0892 51.4058 50.6252C52.2538 50.1452 53.2858 49.9052 54.5018 49.9052V53.3612C54.3418 53.3452 54.1978 53.3372 54.0698 53.3372C53.9418 53.3212 53.8058 53.3132 53.6618 53.3132C52.6378 53.3132 51.8058 53.6092 51.1658 54.2012C50.5418 54.7772 50.2298 55.6812 50.2298 56.9132V63.0092H46.4858ZM64.5994 49.9052C65.6234 49.9052 66.5354 50.1132 67.3354 50.5292C68.1514 50.9292 68.7914 51.5532 69.2554 52.4012C69.7194 53.2332 69.9514 54.3052 69.9514 55.6172V63.0092H66.2074V56.1932C66.2074 55.1532 65.9754 54.3852 65.5114 53.8892C65.0634 53.3932 64.4234 53.1452 63.5914 53.1452C62.9994 53.1452 62.4634 53.2732 61.9834 53.5292C61.5194 53.7692 61.1514 54.1452 60.8794 54.6572C60.6234 55.1692 60.4954 55.8252 60.4954 56.6252V63.0092H56.7514V50.0972H60.3274V53.6732L59.6554 52.5932C60.1194 51.7292 60.7834 51.0652 61.6474 50.6012C62.5114 50.1372 63.4954 49.9052 64.5994 49.9052ZM73.3452 63.0092V50.0972H77.0892V63.0092H73.3452ZM75.2172 48.2972C74.5292 48.2972 73.9692 48.0972 73.5372 47.6972C73.1052 47.2972 72.8892 46.8012 72.8892 46.2092C72.8892 45.6172 73.1052 45.1212 73.5372 44.7212C73.9692 44.3212 74.5292 44.1212 75.2172 44.1212C75.9052 44.1212 76.4652 44.3132 76.8972 44.6972C77.3292 45.0652 77.5452 45.5452 77.5452 46.1372C77.5452 46.7612 77.3292 47.2812 76.8972 47.6972C76.4812 48.0972 75.9212 48.2972 75.2172 48.2972ZM85.8439 63.2012C84.3239 63.2012 83.1399 62.8172 82.2919 62.0492C81.4439 61.2652 81.0199 60.1052 81.0199 58.5692V47.2412H84.7639V58.5212C84.7639 59.0652 84.9079 59.4892 85.1959 59.7932C85.4839 60.0812 85.8759 60.2252 86.3719 60.2252C86.9639 60.2252 87.4679 60.0652 87.8839 59.7452L88.8919 62.3852C88.5079 62.6572 88.0439 62.8652 87.4999 63.0092C86.9719 63.1372 86.4199 63.2012 85.8439 63.2012ZM79.0279 53.2652V50.3852H87.9799V53.2652H79.0279ZM96.4416 63.2012C95.3696 63.2012 94.4096 62.9932 93.5616 62.5772C92.7296 62.1612 92.0816 61.5292 91.6176 60.6812C91.1536 59.8172 90.9216 58.7212 90.9216 57.3932V50.0972H94.6656V56.8412C94.6656 57.9132 94.8896 58.7052 95.3376 59.2172C95.8016 59.7132 96.4496 59.9612 97.2816 59.9612C97.8576 59.9612 98.3696 59.8412 98.8176 59.6012C99.2656 59.3452 99.6176 58.9612 99.8736 58.4492C100.13 57.9212 100.258 57.2652 100.258 56.4812V50.0972H104.002V63.0092H100.45V59.4572L101.098 60.4892C100.666 61.3852 100.026 62.0652 99.1776 62.5292C98.3456 62.9772 97.4336 63.2012 96.4416 63.2012ZM107.47 63.0092V50.0972H111.046V53.7452L110.542 52.6892C110.926 51.7772 111.542 51.0892 112.39 50.6252C113.238 50.1452 114.27 49.9052 115.486 49.9052V53.3612C115.326 53.3452 115.182 53.3372 115.054 53.3372C114.926 53.3212 114.79 53.3132 114.646 53.3132C113.622 53.3132 112.79 53.6092 112.15 54.2012C111.526 54.7772 111.214 55.6812 111.214 56.9132V63.0092H107.47ZM124.027 63.2012C122.555 63.2012 121.259 62.9132 120.139 62.3372C119.035 61.7612 118.179 60.9772 117.571 59.9852C116.963 58.9772 116.659 57.8332 116.659 56.5532C116.659 55.2572 116.955 54.1132 117.547 53.1212C118.155 52.1132 118.979 51.3292 120.019 50.7692C121.059 50.1932 122.235 49.9052 123.547 49.9052C124.811 49.9052 125.947 50.1772 126.955 50.7212C127.979 51.2492 128.787 52.0172 129.379 53.0252C129.971 54.0172 130.267 55.2092 130.267 56.6012C130.267 56.7452 130.259 56.9132 130.243 57.1052C130.227 57.2812 130.211 57.4492 130.195 57.6092H119.707V55.4252H128.227L126.787 56.0732C126.787 55.4012 126.651 54.8172 126.379 54.3212C126.107 53.8252 125.731 53.4412 125.251 53.1692C124.771 52.8812 124.211 52.7372 123.571 52.7372C122.931 52.7372 122.363 52.8812 121.867 53.1692C121.387 53.4412 121.011 53.8332 120.739 54.3452C120.467 54.8412 120.331 55.4332 120.331 56.1212V56.6972C120.331 57.4012 120.483 58.0252 120.787 58.5692C121.107 59.0972 121.547 59.5052 122.107 59.7932C122.683 60.0652 123.355 60.2012 124.123 60.2012C124.811 60.2012 125.411 60.0972 125.923 59.8892C126.451 59.6812 126.931 59.3692 127.363 58.9532L129.355 61.1132C128.763 61.7852 128.019 62.3052 127.123 62.6732C126.227 63.0252 125.195 63.2012 124.027 63.2012ZM139.556 63.0092V50.0972H143.3V63.0092H139.556ZM141.428 48.2972C140.74 48.2972 140.18 48.0972 139.748 47.6972C139.316 47.2972 139.1 46.8012 139.1 46.2092C139.1 45.6172 139.316 45.1212 139.748 44.7212C140.18 44.3212 140.74 44.1212 141.428 44.1212C142.116 44.1212 142.676 44.3132 143.108 44.6972C143.54 45.0652 143.756 45.5452 143.756 46.1372C143.756 46.7612 143.54 47.2812 143.108 47.6972C142.692 48.0972 142.132 48.2972 141.428 48.2972ZM154.623 49.9052C155.647 49.9052 156.559 50.1132 157.359 50.5292C158.175 50.9292 158.815 51.5532 159.279 52.4012C159.743 53.2332 159.975 54.3052 159.975 55.6172V63.0092H156.231V56.1932C156.231 55.1532 155.999 54.3852 155.535 53.8892C155.087 53.3932 154.447 53.1452 153.615 53.1452C153.023 53.1452 152.487 53.2732 152.007 53.5292C151.543 53.7692 151.175 54.1452 150.903 54.6572C150.647 55.1692 150.519 55.8252 150.519 56.6252V63.0092H146.775V50.0972H150.351V53.6732L149.679 52.5932C150.143 51.7292 150.807 51.0652 151.671 50.6012C152.535 50.1372 153.519 49.9052 154.623 49.9052ZM21.184 92.0092V78.8092C21.184 77.3532 21.616 76.1932 22.48 75.3292C23.344 74.4492 24.576 74.0092 26.176 74.0092C26.72 74.0092 27.24 74.0652 27.736 74.1772C28.248 74.2892 28.68 74.4652 29.032 74.7052L28.048 77.4172C27.84 77.2732 27.608 77.1612 27.352 77.0812C27.096 77.0012 26.824 76.9612 26.536 76.9612C25.992 76.9612 25.568 77.1212 25.264 77.4412C24.976 77.7452 24.832 78.2092 24.832 78.8332V80.0332L24.928 81.6412V92.0092H21.184ZM19.192 82.2652V79.3852H28.144V82.2652H19.192ZM30.103 92.0092V79.0972H33.679V82.7452L33.175 81.6892C33.559 80.7772 34.175 80.0892 35.023 79.6252C35.871 79.1452 36.903 78.9052 38.119 78.9052V82.3612C37.959 82.3452 37.815 82.3372 37.687 82.3372C37.559 82.3212 37.423 82.3132 37.279 82.3132C36.255 82.3132 35.423 82.6092 34.783 83.2012C34.159 83.7772 33.847 84.6812 33.847 85.9132V92.0092H30.103ZM46.3954 92.2012C45.0194 92.2012 43.7954 91.9132 42.7234 91.3372C41.6674 90.7612 40.8274 89.9772 40.2034 88.9852C39.5954 87.9772 39.2914 86.8332 39.2914 85.5532C39.2914 84.2572 39.5954 83.1132 40.2034 82.1212C40.8274 81.1132 41.6674 80.3292 42.7234 79.7692C43.7954 79.1932 45.0194 78.9052 46.3954 78.9052C47.7554 78.9052 48.9714 79.1932 50.0434 79.7692C51.1154 80.3292 51.9554 81.1052 52.5634 82.0972C53.1714 83.0892 53.4754 84.2412 53.4754 85.5532C53.4754 86.8332 53.1714 87.9772 52.5634 88.9852C51.9554 89.9772 51.1154 90.7612 50.0434 91.3372C48.9714 91.9132 47.7554 92.2012 46.3954 92.2012ZM46.3954 89.1292C47.0194 89.1292 47.5794 88.9852 48.0754 88.6972C48.5714 88.4092 48.9634 88.0012 49.2514 87.4732C49.5394 86.9292 49.6834 86.2892 49.6834 85.5532C49.6834 84.8012 49.5394 84.1612 49.2514 83.6332C48.9634 83.1052 48.5714 82.6972 48.0754 82.4092C47.5794 82.1212 47.0194 81.9772 46.3954 81.9772C45.7714 81.9772 45.2114 82.1212 44.7154 82.4092C44.2194 82.6972 43.8194 83.1052 43.5154 83.6332C43.2274 84.1612 43.0834 84.8012 43.0834 85.5532C43.0834 86.2892 43.2274 86.9292 43.5154 87.4732C43.8194 88.0012 44.2194 88.4092 44.7154 88.6972C45.2114 88.9852 45.7714 89.1292 46.3954 89.1292ZM63.826 78.9052C64.85 78.9052 65.762 79.1132 66.562 79.5292C67.378 79.9292 68.018 80.5532 68.482 81.4012C68.946 82.2332 69.178 83.3052 69.178 84.6172V92.0092H65.434V85.1932C65.434 84.1532 65.202 83.3852 64.738 82.8892C64.29 82.3932 63.65 82.1452 62.818 82.1452C62.226 82.1452 61.69 82.2732 61.21 82.5292C60.746 82.7692 60.378 83.1452 60.106 83.6572C59.85 84.1692 59.722 84.8252 59.722 85.6252V92.0092H55.978V79.0972H59.554V82.6732L58.882 81.5932C59.346 80.7292 60.01 80.0652 60.874 79.6012C61.738 79.1372 62.722 78.9052 63.826 78.9052ZM77.8518 92.2012C76.3318 92.2012 75.1478 91.8172 74.2998 91.0492C73.4518 90.2652 73.0278 89.1052 73.0278 87.5692V76.2412H76.7718V87.5212C76.7718 88.0652 76.9158 88.4892 77.2038 88.7932C77.4918 89.0812 77.8838 89.2252 78.3798 89.2252C78.9718 89.2252 79.4758 89.0652 79.8918 88.7452L80.8998 91.3852C80.5158 91.6572 80.0518 91.8652 79.5078 92.0092C78.9798 92.1372 78.4278 92.2012 77.8518 92.2012ZM71.0358 82.2652V79.3852H79.9878V82.2652H71.0358ZM95.9423 92.2012C94.5663 92.2012 93.3423 91.9132 92.2703 91.3372C91.2143 90.7612 90.3743 89.9772 89.7503 88.9852C89.1423 87.9772 88.8383 86.8332 88.8383 85.5532C88.8383 84.2572 89.1423 83.1132 89.7503 82.1212C90.3743 81.1132 91.2143 80.3292 92.2703 79.7692C93.3423 79.1932 94.5663 78.9052 95.9423 78.9052C97.3023 78.9052 98.5183 79.1932 99.5903 79.7692C100.662 80.3292 101.502 81.1052 102.11 82.0972C102.718 83.0892 103.022 84.2412 103.022 85.5532C103.022 86.8332 102.718 87.9772 102.11 88.9852C101.502 89.9772 100.662 90.7612 99.5903 91.3372C98.5183 91.9132 97.3023 92.2012 95.9423 92.2012ZM95.9423 89.1292C96.5663 89.1292 97.1263 88.9852 97.6223 88.6972C98.1183 88.4092 98.5103 88.0012 98.7983 87.4732C99.0863 86.9292 99.2303 86.2892 99.2303 85.5532C99.2303 84.8012 99.0863 84.1612 98.7983 83.6332C98.5103 83.1052 98.1183 82.6972 97.6223 82.4092C97.1263 82.1212 96.5663 81.9772 95.9423 81.9772C95.3183 81.9772 94.7583 82.1212 94.2623 82.4092C93.7663 82.6972 93.3663 83.1052 93.0623 83.6332C92.7743 84.1612 92.6303 84.8012 92.6303 85.5532C92.6303 86.2892 92.7743 86.9292 93.0623 87.4732C93.3663 88.0012 93.7663 88.4092 94.2623 88.6972C94.7583 88.9852 95.3183 89.1292 95.9423 89.1292ZM105.981 92.0092V78.8092C105.981 77.3532 106.413 76.1932 107.277 75.3292C108.141 74.4492 109.373 74.0092 110.973 74.0092C111.517 74.0092 112.037 74.0652 112.533 74.1772C113.045 74.2892 113.477 74.4652 113.829 74.7052L112.845 77.4172C112.637 77.2732 112.405 77.1612 112.149 77.0812C111.893 77.0012 111.621 76.9612 111.333 76.9612C110.789 76.9612 110.365 77.1212 110.061 77.4412C109.773 77.7452 109.629 78.2092 109.629 78.8332V80.0332L109.725 81.6412V92.0092H105.981ZM103.989 82.2652V79.3852H112.941V82.2652H103.989ZM123.235 96.8572C122.563 96.8572 121.899 96.7532 121.243 96.5452C120.587 96.3372 120.051 96.0492 119.635 95.6812L121.003 93.0172C121.291 93.2732 121.619 93.4732 121.987 93.6172C122.371 93.7612 122.747 93.8332 123.115 93.8332C123.643 93.8332 124.059 93.7052 124.363 93.4492C124.683 93.2092 124.971 92.8012 125.227 92.2252L125.899 90.6412L126.187 90.2332L130.819 79.0972H134.419L128.587 92.8012C128.171 93.8412 127.691 94.6572 127.147 95.2492C126.619 95.8412 126.027 96.2572 125.371 96.4972C124.731 96.7372 124.019 96.8572 123.235 96.8572ZM125.443 92.5132L119.683 79.0972H123.547L128.011 89.8972L125.443 92.5132ZM141.739 92.2012C140.363 92.2012 139.139 91.9132 138.067 91.3372C137.011 90.7612 136.171 89.9772 135.547 88.9852C134.939 87.9772 134.635 86.8332 134.635 85.5532C134.635 84.2572 134.939 83.1132 135.547 82.1212C136.171 81.1132 137.011 80.3292 138.067 79.7692C139.139 79.1932 140.363 78.9052 141.739 78.9052C143.099 78.9052 144.315 79.1932 145.387 79.7692C146.459 80.3292 147.299 81.1052 147.907 82.0972C148.515 83.0892 148.819 84.2412 148.819 85.5532C148.819 86.8332 148.515 87.9772 147.907 88.9852C147.299 89.9772 146.459 90.7612 145.387 91.3372C144.315 91.9132 143.099 92.2012 141.739 92.2012ZM141.739 89.1292C142.363 89.1292 142.923 88.9852 143.419 88.6972C143.915 88.4092 144.307 88.0012 144.595 87.4732C144.883 86.9292 145.027 86.2892 145.027 85.5532C145.027 84.8012 144.883 84.1612 144.595 83.6332C144.307 83.1052 143.915 82.6972 143.419 82.4092C142.923 82.1212 142.363 81.9772 141.739 81.9772C141.115 81.9772 140.555 82.1212 140.059 82.4092C139.563 82.6972 139.163 83.1052 138.859 83.6332C138.571 84.1612 138.427 84.8012 138.427 85.5532C138.427 86.2892 138.571 86.9292 138.859 87.4732C139.163 88.0012 139.563 88.4092 140.059 88.6972C140.555 88.9852 141.115 89.1292 141.739 89.1292ZM156.77 92.2012C155.698 92.2012 154.738 91.9932 153.89 91.5772C153.058 91.1612 152.41 90.5292 151.946 89.6812C151.482 88.8172 151.25 87.7212 151.25 86.3932V79.0972H154.994V85.8412C154.994 86.9132 155.218 87.7052 155.666 88.2172C156.13 88.7132 156.778 88.9612 157.61 88.9612C158.186 88.9612 158.698 88.8412 159.146 88.6012C159.594 88.3452 159.946 87.9612 160.202 87.4492C160.458 86.9212 160.586 86.2652 160.586 85.4812V79.0972H164.33V92.0092H160.778V88.4572L161.426 89.4892C160.994 90.3852 160.354 91.0652 159.506 91.5292C158.674 91.9772 157.762 92.2012 156.77 92.2012Z" fill="white"/>
<path d="M138.714 23.7598C138.578 24.1191 138.744 24.5268 139.086 24.6705C139.428 24.8142 139.816 24.6395 139.952 24.2802L138.714 23.7598ZM152.048 24.2802C152.184 24.6395 152.572 24.8142 152.914 24.6705C153.256 24.5268 153.422 24.1191 153.286 23.7598L152.048 24.2802ZM154.667 25.2322V29.9192H156V25.2322H154.667ZM150.947 33.8282H150.224V35.2294H150.947V33.8282ZM141.776 33.8282H141.053V35.2294H141.776V33.8282ZM137.333 29.9192V25.2322H136V29.9192H137.333ZM137.318 25.2537C142.992 23.5499 149.008 23.5499 154.682 25.2537L155.048 23.9064C149.134 22.1308 142.866 22.1308 136.952 23.9064L137.318 25.2537ZM141.053 33.8282C138.999 33.8282 137.333 32.078 137.333 29.9192H136C136 32.8519 138.262 35.2294 141.053 35.2294V33.8282ZM141.522 33.9867C141.573 33.889 141.67 33.8282 141.776 33.8282V35.2294C142.158 35.2294 142.51 35.0101 142.693 34.6576L141.522 33.9867ZM142.693 34.6576C144.12 31.9065 147.88 31.9065 149.307 34.6576L150.478 33.9867C148.545 30.2619 143.455 30.2619 141.522 33.9867L142.693 34.6576ZM150.224 33.8282C150.33 33.8282 150.427 33.889 150.478 33.9867L149.307 34.6576C149.49 35.0101 149.842 35.2294 150.224 35.2294V33.8282ZM154.667 29.9192C154.667 32.078 153.001 33.8282 150.947 33.8282V35.2294C153.738 35.2294 156 32.8519 156 29.9192H154.667ZM156 25.2322C156 24.6166 155.612 24.0756 155.048 23.9064L154.682 25.2537C154.673 25.251 154.667 25.2422 154.667 25.2322H156ZM137.333 25.2322C137.333 25.2422 137.327 25.251 137.318 25.2537L136.952 23.9064C136.388 24.0756 136 24.6166 136 25.2322H137.333ZM139.377 22.0185L138.714 23.7598L139.952 24.2802L140.615 22.5389L139.377 22.0185ZM151.385 22.5389L152.048 24.2802L153.286 23.7598L152.623 22.0185L151.385 22.5389ZM142.472 21.2177H149.528V19.8165H142.472V21.2177ZM152.623 22.0185C152.117 20.6886 150.891 19.8165 149.528 19.8165V21.2177C150.346 21.2177 151.081 21.7409 151.385 22.5389L152.623 22.0185ZM140.615 22.5389C140.919 21.7409 141.654 21.2177 142.472 21.2177V19.8165C141.109 19.8165 139.883 20.6886 139.377 22.0185L140.615 22.5389Z" fill="#EF5350"/>
</svg>
