<svg width="26" height="26" viewBox="0 0 26 26" fill="none" xmlns="http://www.w3.org/2000/svg">
<path fill-rule="evenodd" clip-rule="evenodd" d="M12.4952 0.041626H12.5883C13.7266 0.041626 14.6476 0.041626 15.3906 0.11837C16.1604 0.19744 16.829 0.366045 17.429 0.762556C17.7755 0.990463 18.0883 1.26721 18.3569 1.58465C18.8208 2.13349 19.0673 2.77651 19.2383 3.53232C19.4034 4.26023 19.5127 5.17535 19.6487 6.30442L19.7673 7.29628C19.9069 8.45558 20.022 9.41604 20.0069 10.1823C19.9906 10.987 19.8313 11.7277 19.2894 12.3381C18.7476 12.9498 18.0313 13.1963 17.2336 13.3079C16.4755 13.4137 15.508 13.4137 14.3406 13.4137H13.4138V14.5765H18.3557C18.729 14.5765 19.079 14.6765 19.379 14.8521L19.7045 13.8788C19.7709 13.6636 19.8505 13.4528 19.9429 13.2474C20.0429 13.0323 20.0941 12.9474 20.1731 12.816C20.5045 12.2707 20.9371 11.7974 21.6359 11.4905C22.2941 11.1998 23.1173 11.0881 24.1697 11.0881C24.4009 11.0881 24.6228 11.18 24.7863 11.3436C24.9499 11.5071 25.0417 11.7289 25.0417 11.9602C25.0417 12.1915 24.9499 12.4133 24.7863 12.5769C24.6228 12.7404 24.4009 12.8323 24.1697 12.8323C23.208 12.8323 22.6697 12.9393 22.3394 13.0858C22.0499 13.2137 21.8627 13.394 21.6638 13.7219C21.629 13.78 21.6138 13.8044 21.5987 13.8335C21.5728 13.8819 21.5483 13.9312 21.5255 13.9812C21.4673 14.1091 21.4383 14.1905 21.351 14.4509L20.3464 17.4684C20.3098 17.578 20.2517 17.6792 20.1755 17.766C19.9423 18.3676 19.5328 18.8847 19.0005 19.2493C18.4682 19.6139 17.8381 19.809 17.1929 19.8091H13.4138V21.1649C14.0774 21.3515 14.6852 21.6978 15.184 22.1736C15.6828 22.6493 16.0576 23.24 16.2755 23.894C16.3386 24.1105 16.3154 24.3431 16.2107 24.5429C16.1061 24.7427 15.928 24.8941 15.714 24.9655C15.5001 25.0368 15.2667 25.0224 15.0631 24.9254C14.8595 24.8284 14.7014 24.6562 14.622 24.4451C14.4182 23.8347 13.9849 23.3276 13.4138 23.0312V24.1695C13.4138 24.4008 13.322 24.6226 13.1584 24.7862C12.9949 24.9497 12.773 25.0416 12.5417 25.0416C12.3105 25.0416 12.0886 24.9497 11.9251 24.7862C11.7615 24.6226 11.6697 24.4008 11.6697 24.1695V23.03C11.0983 23.3268 10.665 23.8343 10.4615 24.4451C10.3862 24.6617 10.2286 24.8399 10.0228 24.9411C9.8171 25.0423 9.57978 25.0584 9.36224 24.986C9.14469 24.9135 8.96444 24.7583 8.8605 24.5539C8.75656 24.3495 8.73729 24.1124 8.80686 23.894C9.02486 23.2398 9.39977 22.6491 9.89882 22.1733C10.3979 21.6976 11.0059 21.3514 11.6697 21.1649V19.8091H7.89058C7.2454 19.809 6.6153 19.6139 6.08302 19.2493C5.55074 18.8847 5.14115 18.3676 4.90803 17.766C4.83184 17.6792 4.77373 17.578 4.7371 17.4684L3.73128 14.4509C3.68304 14.2908 3.62478 14.1339 3.55686 13.9812C3.51604 13.8922 3.47023 13.8056 3.41966 13.7219C3.22082 13.394 3.03361 13.2137 2.74407 13.0858C2.41268 12.9393 1.87547 12.8323 0.913841 12.8323C0.682548 12.8323 0.460727 12.7404 0.297178 12.5769C0.133629 12.4133 0.041748 12.1915 0.041748 11.9602C0.041748 11.7289 0.133629 11.5071 0.297178 11.3436C0.460727 11.18 0.682548 11.0881 0.913841 11.0881C1.96617 11.0881 2.78942 11.1986 3.44872 11.4893C4.1464 11.7974 4.57896 12.2707 4.91035 12.8149C4.98942 12.9474 5.04059 13.0323 5.14059 13.2474C5.24291 13.4707 5.29989 13.6393 5.38012 13.8788L5.70454 14.8521C6.00454 14.6777 6.35454 14.5765 6.72779 14.5765H11.6697V13.4137H10.7429C9.57547 13.4137 8.60803 13.4137 7.84989 13.3079C7.05221 13.1963 6.33593 12.9486 5.79407 12.3381C5.25221 11.7277 5.09291 10.987 5.07663 10.1823C5.06152 9.41604 5.17663 8.45558 5.31617 7.29628L5.43477 6.30442C5.57082 5.17535 5.68012 4.26023 5.84524 3.53232C6.01617 2.77651 6.26268 2.13349 6.72663 1.58465C6.99524 1.26721 7.30803 0.991626 7.65454 0.762556C8.25454 0.367207 8.92198 0.19744 9.69291 0.11837C10.4359 0.041626 11.3569 0.041626 12.4952 0.041626ZM17.1929 18.0649C17.9952 18.0649 18.6464 17.4137 18.6464 16.6114C18.6464 16.5343 18.6158 16.4604 18.5613 16.4058C18.5067 16.3513 18.4328 16.3207 18.3557 16.3207H6.72779C6.6507 16.3207 6.57676 16.3513 6.52224 16.4058C6.46772 16.4604 6.4371 16.5343 6.4371 16.6114C6.4371 17.4137 7.08826 18.0649 7.89058 18.0649H17.1929ZM9.87198 1.85325C9.24524 1.91837 8.88826 2.03697 8.615 2.21837C8.40681 2.35535 8.21926 2.52136 8.05803 2.71139C7.8464 2.96256 7.68593 3.30209 7.5464 3.91604C7.40338 4.54744 7.30338 5.37186 7.16152 6.55907L7.0557 7.44046C6.90686 8.68 6.80803 9.51837 6.82082 10.1463C6.83245 10.7509 6.94756 11.0079 7.09989 11.18C7.25105 11.3509 7.49291 11.4951 8.09175 11.5788C8.715 11.666 9.55919 11.6684 10.808 11.6684H14.2755C15.5243 11.6684 16.3685 11.666 16.9917 11.5788C17.5906 11.4951 17.8324 11.3509 17.9848 11.18C18.1359 11.0079 18.251 10.7498 18.2638 10.1463C18.2755 9.51721 18.1766 8.67883 18.0278 7.4393L17.9231 6.5579C17.7801 5.3707 17.679 4.54628 17.5371 3.91488C17.3976 3.30093 17.2371 2.96139 17.0255 2.71023C16.8643 2.52018 16.6767 2.35416 16.4685 2.21721C16.1952 2.03581 15.8383 1.91721 15.2115 1.85209C14.5685 1.78581 13.7383 1.78465 12.5417 1.78465C11.3452 1.78465 10.515 1.78465 9.87198 1.85209V1.85325Z" fill="#00A0B0"/>
</svg>
