<svg width="25" height="25" viewBox="0 0 25 25" fill="none" xmlns="http://www.w3.org/2000/svg">
<path d="M11.0687 0.525197C11.8719 -0.175066 13.1281 -0.175066 13.9313 0.525197L24.0219 9.32356C24.6462 9.86795 25 10.6254 25 11.4177V22.118C25 23.7096 23.6008 25 21.875 25H17.7083C15.9824 25 14.5833 23.7096 14.5833 22.118V17.3147C14.5833 16.7842 14.117 16.3541 13.5417 16.3541H11.4583C10.883 16.3541 10.4167 16.7842 10.4167 17.3147V22.118C10.4167 23.7096 9.01756 25 7.29167 25H3.125C1.3991 25 0 23.7096 0 22.118V11.4177C0 10.6254 0.35375 9.86795 0.978083 9.32356L11.0687 0.525197ZM12.5 1.92132L2.40935 10.7197C2.20125 10.9011 2.08333 11.1536 2.08333 11.4177V22.118C2.08333 22.6485 2.54971 23.0787 3.125 23.0787H7.29167C7.86696 23.0787 8.33333 22.6485 8.33333 22.118V17.3147C8.33333 15.7231 9.73244 14.4328 11.4583 14.4328H13.5417C15.2676 14.4328 16.6667 15.7231 16.6667 17.3147V22.118C16.6667 22.6485 17.1331 23.0787 17.7083 23.0787H21.875C22.4502 23.0787 22.9167 22.6485 22.9167 22.118V11.4177C22.9167 11.1536 22.7987 10.9011 22.5906 10.7197L12.5 1.92132Z" fill="#3F4345"/>
</svg>
