<svg width="80" height="80" viewBox="0 0 80 80" fill="none" xmlns="http://www.w3.org/2000/svg">
<rect width="80" height="80" rx="10" fill="white"/>
<path d="M56.8511 20.9209C57.0853 20.3746 57.2414 19.8283 57.2414 19.2039C57.3194 18.4235 57.3194 17.565 57.1633 16.8626C56.2268 12.18 52.2466 8.66805 47.4859 8.19979C47.4079 8.12174 47.2518 8.12174 47.1737 8.12174H34.8428C34.7648 8.12174 34.6087 8.12174 34.5307 8.19979C29.77 8.66805 25.7898 12.18 24.8533 16.8626C24.6972 17.6431 24.6972 18.4235 24.7752 19.2039C24.8533 19.7502 25.0094 20.3746 25.1654 20.9209L27.0385 25.5255C27.7409 27.2424 28.0531 29.0374 28.0531 30.9105L27.975 34.2663C27.975 34.9687 28.0531 35.6711 28.2872 36.2955C29.4578 39.6513 32.4235 41.9927 35.9355 42.3829C36.0135 42.4609 36.1696 42.4609 36.2476 42.4609H45.7689C45.925 42.4609 46.0031 42.4609 46.0811 42.3829C49.5931 41.9146 52.5587 39.5733 53.7294 36.2955C53.9635 35.6711 54.0416 34.9687 54.0416 34.2663L53.9635 30.9105C53.9635 29.0374 54.2757 27.2424 54.9781 25.5255L56.8511 20.9209ZM53.5733 24.9011C52.7929 26.8522 52.4026 28.8033 52.4807 30.9105L52.5587 34.2663C52.5587 34.8126 52.4807 35.359 52.3246 35.7492C51.232 38.8709 48.2663 40.9 44.9105 40.9H37.1061C33.7502 40.9 30.8626 38.8709 29.77 35.7492C29.6139 35.2809 29.5359 34.8126 29.5359 34.2663L29.6139 30.9105C29.6139 28.8813 29.3018 26.8522 28.5213 24.9011L26.6483 20.2965C26.4922 19.9063 26.3361 19.4381 26.3361 19.0478C26.2581 18.3455 26.2581 17.7211 26.4141 17.1748C27.2726 12.8044 31.1748 9.68261 35.7013 9.68261H46.3153C50.8418 9.68261 54.744 12.8044 55.6024 17.1748C55.7585 17.7991 55.7585 18.4235 55.6805 19.0478C55.6024 19.4381 55.5244 19.9063 55.3683 20.2965L53.5733 24.9011ZM26.18 51.0457H55.8366V48.6264C55.8366 45.6607 53.4172 43.2414 50.4516 43.2414H31.565C28.5994 43.2414 26.18 45.6607 26.18 48.6264V51.0457ZM27.7409 48.6264C27.7409 46.5192 29.4578 44.8022 31.565 44.8022H50.3735C52.4807 44.8022 54.1977 46.5192 54.1977 48.6264V49.4848H27.7409V48.6264ZM61.2996 64.3131C62.8605 62.362 62.9385 57.2892 62.9385 56.7429C62.9385 56.5868 62.8605 56.4307 62.7824 56.3527V51.8261H19.1561V56.3527C19.078 56.5088 19 56.5868 19 56.7429C19 57.2892 19.078 62.362 20.6389 64.3131C20.717 64.4692 20.795 64.5472 20.873 64.6253C21.6535 66.4983 22.1998 69.0738 21.1852 70.0883C20.795 70.4786 20.5609 70.9468 20.4048 71.5712C20.1707 72.4297 20.2487 73.132 20.6389 73.6783C20.795 73.9905 21.1852 74.3027 21.8876 74.3807H22.1217C22.9022 74.3807 23.6826 73.9125 24.2289 73.2101C25.2435 71.8053 26.7263 68.7616 26.18 64.7814C25.9459 63.2985 25.7117 62.2059 25.5557 61.2694C25.2435 59.6305 25.0094 58.6159 25.0874 57.2892H30.8626V64.6253C30.8626 65.952 31.8772 66.9666 33.2039 66.9666C34.5307 66.9666 35.5452 65.952 35.5452 64.6253V57.2892H47.2518V64.6253C47.2518 65.952 48.2663 66.9666 49.5931 66.9666C50.9198 66.9666 51.9344 65.952 51.9344 64.6253V57.2892H56.9292C57.0072 58.6159 56.7731 59.7085 56.4609 61.2694C56.3048 62.2059 56.0707 63.2985 55.8366 64.7814C55.2122 68.7616 56.7731 71.8053 57.7877 73.2101C58.334 73.9905 59.1144 74.3807 59.8948 74.3807H60.129C60.8314 74.3027 61.1435 73.9905 61.3777 73.6783C61.7679 73.2101 61.7679 72.5077 61.6118 71.5712C61.4557 70.9468 61.2216 70.4786 60.8314 70.0883C59.8168 69.0738 60.3631 66.4983 61.1435 64.6253C61.1435 64.5472 61.2216 64.4692 61.2996 64.3131ZM20.717 53.387H61.2996V55.7283H20.717V53.387ZM23.9948 61.5816C24.1509 62.5181 24.385 63.6107 24.6191 65.0155C25.1654 68.4494 23.7607 71.1029 22.9802 72.3516C22.7461 72.6638 22.4339 72.8979 22.1217 72.8979H21.9657C21.9657 72.8199 21.8876 72.5857 21.9657 72.0394C22.0437 71.7273 22.1998 71.4931 22.3559 71.337C24.2289 69.464 22.9802 65.7179 22.3559 64.157C22.2778 63.9229 22.1217 63.6888 21.8876 63.4546C21.0291 62.362 20.6389 59.3964 20.5609 57.3672H23.4485C23.4485 58.772 23.6826 59.9427 23.9948 61.5816ZM33.9844 64.6253C33.9844 65.0936 33.6722 65.4057 33.2039 65.4057C32.7357 65.4057 32.4235 65.0936 32.4235 64.6253V57.2892H33.9844V64.6253ZM50.3735 64.6253C50.3735 65.0936 50.0613 65.4057 49.5931 65.4057C49.1248 65.4057 48.8126 65.0936 48.8126 64.6253V57.2892H50.3735V64.6253ZM59.6607 71.259C59.8168 71.4151 59.9729 71.6492 60.0509 71.9614C60.207 72.5077 60.129 72.7418 60.0509 72.8199H59.8948C59.5827 72.8199 59.2705 72.6638 59.0364 72.2736C58.1779 71.0249 56.8511 68.3714 57.3974 64.9375C57.6316 63.5327 57.7877 62.4401 58.0218 61.5035C58.334 59.8646 58.5681 58.694 58.4901 57.2112H61.3777C61.2996 59.2403 60.9094 62.2059 60.0509 63.2985L59.5827 64.0009C59.0364 65.6399 57.7877 69.3859 59.6607 71.259Z" fill="#00A0B0"/>
<path d="M22.1998 31.5348C20.9511 31.6129 19.9365 32.6274 19.9365 33.8761V48.7044C19.9365 50.0311 20.9511 51.0457 22.2778 51.0457C23.6046 51.0457 24.6191 50.0311 24.6191 48.7044V33.8761C24.6191 33.5639 24.5411 33.3298 24.4631 33.0957H26.18C26.5702 33.0957 26.8824 32.7835 26.9604 32.3933C27.0385 32.3153 27.0385 32.1592 27.0385 32.0811C27.1165 29.6618 26.6483 27.2424 25.7117 24.9792L23.5265 19.5161C23.2924 18.9698 23.2144 18.5015 23.1363 17.9552C23.0583 17.1748 23.0583 16.3944 23.2144 15.6139C24.2289 10.385 28.9896 6.56087 34.5307 6.56087H47.4859C53.027 6.56087 57.7877 10.385 58.8022 15.6139C58.9583 16.3163 58.9583 17.0968 58.8803 17.9552C58.8022 18.5015 58.7242 18.9698 58.4901 19.5161L56.3048 24.9792C55.3683 27.2424 54.9 29.6618 54.9781 32.0811C54.9781 32.2372 54.9781 32.3153 55.0561 32.3933C55.0561 32.8616 55.3683 33.1737 55.8366 33.1737H58.2559C58.2559 33.4079 58.1779 33.642 58.1779 33.8761V48.7044C58.1779 50.0311 59.1924 51.0457 60.5192 51.0457C61.8459 51.0457 62.8605 50.0311 62.8605 48.7044V33.8761C62.8605 32.5494 61.8459 31.5348 60.5192 31.5348C60.285 31.5348 60.0509 31.6129 59.8168 31.6129H56.539C56.539 29.5057 56.9292 27.4765 57.7096 25.5255L59.8948 20.0624C60.129 19.4381 60.3631 18.7357 60.3631 18.1113C60.4411 17.1748 60.4411 16.2383 60.207 15.3018C59.1924 9.68262 54.3537 5.46826 48.5005 5.07804C48.4224 5 48.3444 5 48.2663 5H33.6722C33.5941 5 33.5161 5 33.4381 5.07804C27.6628 5.5463 22.8241 9.68262 21.6535 15.3018C21.4974 16.1602 21.4194 17.0968 21.4974 18.1113C21.5754 18.8137 21.7315 19.4381 21.9657 20.0624L24.1509 25.5255C24.9313 27.4765 25.3215 29.4276 25.3215 31.5348H22.1998ZM61.2996 33.8761V48.7044C61.2996 49.1727 60.9874 49.4848 60.5192 49.4848C60.0509 49.4848 59.7387 49.1727 59.7387 48.7044V33.8761C59.7387 33.4079 60.0509 33.0957 60.5192 33.0957C60.9874 33.0957 61.2996 33.4079 61.2996 33.8761ZM23.0583 48.7044C23.0583 49.1727 22.7461 49.4848 22.2778 49.4848C21.8096 49.4848 21.4974 49.1727 21.4974 48.7044V33.8761C21.4974 33.4079 21.8096 33.0957 22.2778 33.0957C22.7461 33.0957 23.0583 33.4079 23.0583 33.8761V48.7044Z" fill="#00A0B0"/>
</svg>
