<svg width="221" height="123" viewBox="0 0 221 123" fill="none" xmlns="http://www.w3.org/2000/svg">
<path d="M0 122.929H1.75373V107.44H15.7241V105.359H1.75373V90.4344H17.5076V88.4234H0V122.929ZM21.6096 112.909C21.6096 119.224 24.6414 123 29.8729 123C34.1532 122.929 37.2148 120.53 38.5821 116.084V122.929H40.2764V97.2086H38.5821V109.804C38.5821 116.508 35.4908 120.777 30.2593 120.918C25.8898 120.918 23.3038 117.813 23.3038 112.521V97.2086H21.6096V112.909ZM48.9856 122.929H50.7393V108.993C51.096 103.03 54.009 99.2902 58.7946 99.2902V97.138C54.9305 97.2438 52.1067 99.5372 50.7393 103.665V97.2086H48.9856V122.929ZM63.5505 122.929H65.3042V108.993C65.6609 103.065 68.7523 99.3608 73.7459 99.2196C78.2046 99.2196 80.8203 102.324 80.8203 107.617V122.929H82.574V107.229C82.574 100.948 79.453 97.138 74.1621 97.138C69.8223 97.2438 66.7607 99.5372 65.3042 103.771V97.2086H63.5505V122.929ZM89.9159 89.7994C89.9159 90.8225 90.5996 91.634 91.3724 91.634C92.175 91.634 92.8289 90.8225 92.8289 89.7994C92.8289 88.8115 92.175 88 91.3724 88C90.5996 88 89.9159 88.8115 89.9159 89.7994ZM90.5104 122.929H92.2047V97.2086H90.5104V122.929ZM98.5063 99.6077H101.657V115.837C101.657 120.671 103.5 123.035 106.562 123C108.196 123 109.742 122.294 111.109 121.165L110.455 119.471C109.326 120.424 108.018 120.953 106.77 120.953C104.54 121.024 103.322 119.224 103.322 115.59V99.6077H110.693V97.8436H103.322V91.4576H101.657V97.8436H98.5063V99.6077ZM115.687 112.909C115.687 119.224 118.719 123 123.98 123C128.26 122.929 131.292 120.53 132.659 116.084V122.929H134.383V97.2086H132.659V109.804C132.659 116.508 129.598 120.777 124.337 120.918C119.967 120.918 117.381 117.813 117.381 112.521V97.2086H115.687V112.909ZM143.063 122.929H144.817V108.993C145.203 103.03 148.116 99.2902 152.902 99.2902V97.138C149.008 97.2438 146.184 99.5372 144.817 103.665V97.2086H143.063V122.929ZM155.309 110.086C155.309 117.637 159.768 123 165.861 123C169.339 123 172.282 121.447 174.273 118.872L173.293 117.566C171.539 119.824 168.923 121.094 165.951 121.094C160.927 121.094 157.271 116.896 157.004 110.651H175.938C176.057 102.677 172.252 97.138 165.861 97.138C159.768 97.138 155.309 102.536 155.309 110.086ZM157.063 108.816C157.479 102.995 161.016 99.0432 165.861 99.0432C170.825 99.0432 174.036 102.995 174.363 108.816H157.063ZM178.138 122.929H180.07L183.815 113.121H200.817L204.622 122.929H206.524L193.208 88.4234H191.335L178.138 122.929ZM184.558 111.039L192.257 90.7873L200.044 111.039H184.558ZM211.191 122.929H212.945V108.993C213.301 103.03 216.214 99.2902 221 99.2902V97.138C217.136 97.2438 214.312 99.5372 212.945 103.665V97.2086H211.191V122.929Z" fill="#F6F6F6"/>
<path d="M119.882 16.8854C120.116 16.3391 120.272 15.7928 120.272 15.1684C120.35 14.388 120.35 13.5295 120.194 12.8271C119.258 8.14449 115.277 4.63253 110.517 4.16426C110.439 4.08622 110.283 4.08622 110.204 4.08622H97.8736C97.7956 4.08622 97.6395 4.08622 97.5614 4.16426C92.8008 4.63253 88.8206 8.14449 87.884 12.8271C87.7279 13.6075 87.7279 14.388 87.806 15.1684C87.884 15.7147 88.0401 16.3391 88.1962 16.8854L90.0693 21.4899C90.7716 23.2069 91.0838 25.0019 91.0838 26.8749L91.0058 30.2308C91.0058 30.9332 91.0838 31.6356 91.3179 32.2599C92.4886 35.6158 95.4543 37.9571 98.9662 38.3474C99.0443 38.4254 99.2004 38.4254 99.2784 38.4254H108.8C108.956 38.4254 109.034 38.4254 109.112 38.3474C112.624 37.8791 115.59 35.5378 116.76 32.2599C116.994 31.6356 117.072 30.9332 117.072 30.2308L116.994 26.8749C116.994 25.0019 117.306 23.2069 118.009 21.4899L119.882 16.8854ZM116.604 20.8656C115.824 22.8167 115.433 24.7678 115.511 26.8749L115.59 30.2308C115.59 30.7771 115.511 31.3234 115.355 31.7136C114.263 34.8354 111.297 36.8645 107.941 36.8645H100.137C96.781 36.8645 93.8934 34.8354 92.8008 31.7136C92.6447 31.2454 92.5666 30.7771 92.5666 30.2308L92.6447 26.8749C92.6447 24.8458 92.3325 22.8167 91.5521 20.8656L89.679 16.261C89.5229 15.8708 89.3669 15.4025 89.3669 15.0123C89.2888 14.3099 89.2888 13.6856 89.4449 13.1393C90.3034 8.76884 94.2056 5.64709 98.7321 5.64709H109.346C113.873 5.64709 117.775 8.76884 118.633 13.1393C118.789 13.7636 118.789 14.388 118.711 15.0123C118.633 15.4025 118.555 15.8708 118.399 16.261L116.604 20.8656ZM89.2108 47.0102H118.867V44.5908C118.867 41.6252 116.448 39.2058 113.482 39.2058H94.5958C91.6301 39.2058 89.2108 41.6252 89.2108 44.5908V47.0102ZM90.7716 44.5908C90.7716 42.4837 92.4886 40.7667 94.5958 40.7667H113.404C115.511 40.7667 117.228 42.4837 117.228 44.5908V45.4493H90.7716V44.5908ZM124.33 60.2776C125.891 58.3265 125.969 53.2537 125.969 52.7074C125.969 52.5513 125.891 52.3952 125.813 52.3172V47.7906H82.1869V52.3172C82.1088 52.4732 82.0308 52.5513 82.0308 52.7074C82.0308 53.2537 82.1088 58.3265 83.6697 60.2776C83.7477 60.4337 83.8258 60.5117 83.9038 60.5898C84.6842 62.4628 85.2305 65.0383 84.216 66.0528C83.8258 66.443 83.5916 66.9113 83.4355 67.5357C83.2014 68.3941 83.2795 69.0965 83.6697 69.6428C83.8258 69.955 84.216 70.2672 84.9184 70.3452H85.1525C85.9329 70.3452 86.7134 69.877 87.2597 69.1746C88.2742 67.7698 89.7571 64.7261 89.2108 60.7459C88.9766 59.263 88.7425 58.1704 88.5864 57.2339C88.2743 55.595 88.0401 54.5804 88.1182 53.2537H93.8934V60.5898C93.8934 61.9165 94.908 62.9311 96.2347 62.9311C97.5614 62.9311 98.576 61.9165 98.576 60.5898V53.2537H110.283V60.5898C110.283 61.9165 111.297 62.9311 112.624 62.9311C113.951 62.9311 114.965 61.9165 114.965 60.5898V53.2537H119.96C120.038 54.5804 119.804 55.673 119.492 57.2339C119.336 58.1704 119.101 59.263 118.867 60.7459C118.243 64.7261 119.804 67.7698 120.818 69.1746C121.365 69.955 122.145 70.3452 122.926 70.3452H123.16C123.862 70.2672 124.174 69.955 124.408 69.6428C124.799 69.1746 124.799 68.4722 124.643 67.5357C124.486 66.9113 124.252 66.443 123.862 66.0528C122.848 65.0383 123.394 62.4628 124.174 60.5898C124.174 60.5117 124.252 60.4337 124.33 60.2776ZM83.7477 49.3515H124.33V51.6928H83.7477V49.3515ZM87.0256 57.5461C87.1816 58.4826 87.4158 59.5752 87.6499 60.98C88.1962 64.4139 86.7914 67.0674 86.011 68.3161C85.7769 68.6283 85.4647 68.8624 85.1525 68.8624H84.9964C84.9964 68.7843 84.9184 68.5502 84.9964 68.0039C85.0745 67.6917 85.2305 67.4576 85.3866 67.3015C87.2597 65.4285 86.011 61.6824 85.3866 60.1215C85.3086 59.8874 85.1525 59.6532 84.9184 59.4191C84.0599 58.3265 83.6697 55.3608 83.5916 53.3317H86.4792C86.4792 54.7365 86.7134 55.9072 87.0256 57.5461ZM97.0151 60.5898C97.0151 61.058 96.703 61.3702 96.2347 61.3702C95.7664 61.3702 95.4543 61.058 95.4543 60.5898V53.2537H97.0151V60.5898ZM113.404 60.5898C113.404 61.058 113.092 61.3702 112.624 61.3702C112.156 61.3702 111.843 61.058 111.843 60.5898V53.2537H113.404V60.5898ZM122.691 67.2235C122.848 67.3796 123.004 67.6137 123.082 67.9259C123.238 68.4722 123.16 68.7063 123.082 68.7843H122.926C122.613 68.7843 122.301 68.6283 122.067 68.238C121.209 66.9893 119.882 64.3359 120.428 60.9019C120.662 59.4972 120.818 58.4045 121.053 57.468C121.365 55.8291 121.599 54.6585 121.521 53.1756H124.408C124.33 55.2048 123.94 58.1704 123.082 59.263L122.613 59.9654C122.067 61.6043 120.818 65.3504 122.691 67.2235Z" fill="#F6F6F6"/>
<path d="M85.2305 27.4993C83.9818 27.5773 82.9673 28.5919 82.9673 29.8406V44.6689C82.9673 45.9956 83.9818 47.0102 85.3086 47.0102C86.6353 47.0102 87.6499 45.9956 87.6499 44.6689V29.8406C87.6499 29.5284 87.5719 29.2943 87.4938 29.0602H89.2108C89.601 29.0602 89.9132 28.748 89.9912 28.3578C90.0692 28.2797 90.0693 28.1236 90.0693 28.0456C90.1473 25.6262 89.679 23.2069 88.7425 20.9436L86.5573 15.4806C86.3232 14.9343 86.2451 14.466 86.1671 13.9197C86.089 13.1393 86.089 12.3588 86.2451 11.5784C87.2597 6.34948 92.0203 2.52535 97.5614 2.52535H110.517C116.058 2.52535 120.818 6.34948 121.833 11.5784C121.989 12.2808 121.989 13.0612 121.911 13.9197C121.833 14.466 121.755 14.9343 121.521 15.4806L119.336 20.9436C118.399 23.2069 117.931 25.6262 118.009 28.0456C118.009 28.2017 118.009 28.2797 118.087 28.3578C118.087 28.826 118.399 29.1382 118.867 29.1382H121.287C121.287 29.3723 121.209 29.6065 121.209 29.8406V44.6689C121.209 45.9956 122.223 47.0102 123.55 47.0102C124.877 47.0102 125.891 45.9956 125.891 44.6689V29.8406C125.891 28.5139 124.877 27.4993 123.55 27.4993C123.316 27.4993 123.082 27.5773 122.848 27.5773H119.57C119.57 25.4702 119.96 23.441 120.74 21.4899L122.926 16.0269C123.16 15.4025 123.394 14.7001 123.394 14.0758C123.472 13.1393 123.472 12.2028 123.238 11.2662C122.223 5.64709 117.384 1.43274 111.531 1.04252C111.453 0.964477 111.375 0.964478 111.297 0.964478H96.703C96.6249 0.964478 96.5469 0.964477 96.4688 1.04252C90.6936 1.51078 85.8549 5.64709 84.6842 11.2662C84.5282 12.1247 84.4501 13.0612 84.5282 14.0758C84.6062 14.7782 84.7623 15.4025 84.9964 16.0269L87.1816 21.4899C87.9621 23.441 88.3523 25.3921 88.3523 27.4993H85.2305ZM124.33 29.8406V44.6689C124.33 45.1371 124.018 45.4493 123.55 45.4493C123.082 45.4493 122.77 45.1371 122.77 44.6689V29.8406C122.77 29.3723 123.082 29.0602 123.55 29.0602C124.018 29.0602 124.33 29.3723 124.33 29.8406ZM86.089 44.6689C86.089 45.1371 85.7769 45.4493 85.3086 45.4493C84.8403 45.4493 84.5282 45.1371 84.5282 44.6689V29.8406C84.5282 29.3723 84.8403 29.0602 85.3086 29.0602C85.7769 29.0602 86.089 29.3723 86.089 29.8406V44.6689Z" fill="#F6F6F6"/>
</svg>
