<svg width="358" height="291" viewBox="0 0 358 291" fill="none" xmlns="http://www.w3.org/2000/svg">
<path d="M358 256.233H0V256.425H358V256.233Z" fill="#EBEBEB"/>
<path d="M143.515 263.562H124.899V263.755H143.515V263.562Z" fill="#EBEBEB"/>
<path d="M76.297 261.476H37.5614V261.668H76.297V261.476Z" fill="#EBEBEB"/>
<path d="M124.183 270.714H105.338V270.907H124.183V270.714Z" fill="#EBEBEB"/>
<path d="M212.695 269.421H184.893V269.613H212.695V269.421Z" fill="#EBEBEB"/>
<path d="M226.721 269.421H219.067V269.613H226.721V269.421Z" fill="#EBEBEB"/>
<path d="M322.136 266.172H283.071V266.364H322.136V266.172Z" fill="#EBEBEB"/>
<path d="M169.692 221.897H31.4396C30.3565 221.895 29.3184 221.431 28.5533 220.607C27.7881 219.783 27.3584 218.666 27.3584 217.501V8.53762C27.3678 7.37977 27.8017 6.27267 28.5659 5.4568C29.33 4.64093 30.3627 4.18219 31.4396 4.1802H169.692C170.776 4.1802 171.816 4.64334 172.583 5.46774C173.35 6.29213 173.78 7.41025 173.78 8.57612V217.501C173.78 218.667 173.35 219.785 172.583 220.61C171.816 221.434 170.776 221.897 169.692 221.897ZM31.4396 4.33418C30.404 4.33622 29.4115 4.77998 28.6799 5.56805C27.9483 6.35613 27.5374 7.42413 27.5374 8.53762V217.501C27.5374 218.615 27.9483 219.683 28.6799 220.471C29.4115 221.259 30.404 221.703 31.4396 221.705H169.692C170.728 221.703 171.722 221.259 172.454 220.471C173.187 219.683 173.599 218.615 173.601 217.501V8.53762C173.599 7.42342 173.187 6.35544 172.454 5.56758C171.722 4.77973 170.728 4.33621 169.692 4.33418H31.4396Z" fill="#EBEBEB"/>
<path d="M324.57 221.897H186.31C185.227 221.895 184.188 221.431 183.422 220.607C182.655 219.783 182.224 218.667 182.222 217.501V8.53762C182.233 7.37907 182.669 6.27198 183.434 5.45632C184.199 4.64067 185.233 4.18217 186.31 4.1802H324.57C325.646 4.18421 326.676 4.64385 327.439 5.45951C328.202 6.27516 328.635 7.3811 328.644 8.53762V217.501C328.644 218.664 328.215 219.78 327.452 220.604C326.688 221.428 325.652 221.893 324.57 221.897ZM186.31 4.33418C185.274 4.33621 184.281 4.77973 183.548 5.56758C182.815 6.35544 182.403 7.42342 182.401 8.53762V217.501C182.403 218.615 182.815 219.683 183.548 220.471C184.281 221.259 185.274 221.703 186.31 221.705H324.57C325.606 221.703 326.599 221.259 327.332 220.471C328.065 219.683 328.477 218.615 328.479 217.501V8.53762C328.477 7.42342 328.065 6.35544 327.332 5.56758C326.599 4.77973 325.606 4.33621 324.57 4.33418H186.31Z" fill="#EBEBEB"/>
<path d="M151.899 256.233C151.899 256.233 140.544 241.652 139.219 226.301C137.293 204.067 157.993 230.966 164.15 225.246C170.308 219.526 150.825 193.035 166.606 187.892C182.387 182.75 186.203 202.204 192.446 216.431C202.678 239.758 203.344 180.54 220.528 208.964C231.733 227.502 225.698 256.225 225.698 256.225L151.899 256.233Z" fill="#F5F5F5"/>
<path d="M224.301 256.233C224.301 256.233 212.265 243.053 215.645 229.142C220.542 208.971 228.533 233.376 234.862 228.187C241.192 222.998 233.967 198.978 247.407 194.313C260.846 189.648 258.19 207.293 258.863 220.203C259.958 241.344 277.364 187.661 282.276 213.452C285.476 230.258 271.536 256.225 271.536 256.225L224.301 256.233Z" fill="#F5F5F5"/>
<path d="M253.292 256.233C253.843 254.763 255.548 244.246 271.264 235.893C264.512 245.586 262.672 252.83 263.023 256.233H253.292Z" fill="#E0E0E0"/>
<path d="M75.6812 256.233C75.6382 254.016 73.9843 235.123 58.1249 225.6C62.9364 240.228 61.8767 251.167 59.7001 256.233H75.6812Z" fill="#F5F5F5"/>
<path d="M66.8744 256.233C66.4806 254.778 66.0868 244.385 50.4064 236.132C56.3206 245.709 57.2872 252.907 56.4709 256.233H66.8744Z" fill="#F5F5F5"/>
<path d="M121.419 256.233C121.419 254.878 122.25 243.338 130.011 237.518C127.656 246.433 128.178 253.138 129.245 256.233H121.419Z" fill="#F5F5F5"/>
<path d="M125.73 256.233C125.916 255.34 126.109 248.996 133.792 243.954C130.928 249.805 130.427 254.201 130.828 256.233H125.73Z" fill="#F5F5F5"/>
<path d="M172.148 256.233C171.711 254.47 171.274 241.921 153.768 231.944C160.363 243.492 161.437 252.214 160.534 256.233H172.148Z" fill="#E0E0E0"/>
<path d="M177.675 256.233C177.804 254.901 180.718 245.409 170.071 237.872C172.055 246.625 170.616 253.2 168.89 256.233H177.675Z" fill="#E0E0E0"/>
<path d="M258.92 256.233C258.791 255.155 259.493 247.472 249.555 241.367C252.691 248.45 252.676 253.777 251.81 256.233H258.92Z" fill="white"/>
<path d="M273.469 77.7097C286.464 73.4755 268.013 63.8522 247.657 62.913C199.585 60.6496 187.828 49.0555 153.761 45.0214C143.15 43.7665 150.467 60.7574 175.033 68.2404C206.151 77.7174 260.073 72.1898 246.884 78.1409C233.695 84.0919 247.686 101.853 275.424 96.4405C296.904 92.2524 327.148 111.014 316.293 94.7776C309.427 84.5076 293.295 88.2491 285.842 87.5101C278.388 86.771 254.244 83.9764 273.469 77.7097Z" fill="#F5F5F5"/>
<path d="M259.636 112.43C255.082 114.363 243.655 110.175 236.395 110.313C229.134 110.452 217.872 113.393 212 107.103C206.129 100.813 236.531 104.447 242.788 105.055C254.395 106.172 266.302 109.651 259.636 112.43Z" fill="#FAFAFA"/>
<path d="M284.023 22.7262C286.515 20.0855 293.381 24.9819 297.555 24.5123C301.73 24.0426 308.023 19.8931 311.832 27.6533C315.641 35.4135 297.87 32.0107 294.226 31.5026C287.467 30.5249 280.371 26.5986 284.023 22.7262Z" fill="#F5F5F5"/>
<path d="M49.361 76.0776C51.8527 73.437 58.7192 78.3333 62.8934 77.8637C67.0677 77.3941 73.3614 73.206 77.1705 81.0047C80.9796 88.8034 63.2156 85.3622 59.564 84.854C52.805 83.8763 45.7094 79.95 49.361 76.0776Z" fill="#F5F5F5"/>
<path d="M70.8339 21.248C77.3495 26.6833 95.6576 22.3335 106.677 25.1512C117.696 27.9689 134.207 37.7385 144.517 27.2761C154.828 16.8136 107.744 13.4185 98.092 12.4254C80.192 10.6009 61.2896 13.2954 70.8339 21.248Z" fill="#FAFAFA"/>
<path d="M140.694 162.687C149.966 148.552 135.038 49.7714 114.961 43.3585C94.8843 36.9455 93.6958 147.967 100.97 161.147C109.183 176.029 130.606 178.084 140.694 162.687Z" fill="#EBEBEB"/>
<path d="M122.021 134.287C122.811 134.286 123.574 134.601 124.161 135.169C124.748 135.738 125.118 136.521 125.2 137.366C128.496 176.904 128.405 216.683 124.928 256.202H118.548C121.996 216.898 122.099 177.337 118.856 138.013C118.815 137.54 118.867 137.063 119.007 136.613C119.148 136.162 119.374 135.748 119.672 135.398C119.97 135.047 120.333 134.767 120.737 134.575C121.142 134.384 121.579 134.286 122.021 134.287Z" fill="#E0E0E0"/>
<path d="M287.889 203.975C282.713 196.084 291.054 140.908 302.267 137.32C313.479 133.733 314.145 195.753 310.085 203.12C305.496 211.435 293.56 212.582 287.889 203.975Z" fill="#EBEBEB"/>
<path d="M305.209 182.788C304.979 182.709 304.772 182.568 304.606 182.38C304.44 182.191 304.322 181.961 304.261 181.709C304.2 181.458 304.2 181.195 304.259 180.943C304.318 180.692 304.436 180.46 304.601 180.271L307.293 176.945C307.548 176.628 307.91 176.434 308.299 176.404C308.688 176.375 309.071 176.512 309.366 176.787C309.66 177.062 309.841 177.451 309.868 177.869C309.896 178.287 309.768 178.699 309.512 179.016L306.82 182.342C306.628 182.587 306.37 182.762 306.081 182.842C305.793 182.922 305.488 182.903 305.209 182.788Z" fill="white"/>
<path d="M295.157 166.66C294.86 166.644 294.575 166.53 294.342 166.332C294.109 166.135 293.938 165.865 293.854 165.559L292.422 160.809C292.303 160.409 292.337 159.976 292.515 159.603C292.694 159.231 293.003 158.95 293.374 158.822C293.745 158.695 294.148 158.731 294.495 158.923C294.841 159.115 295.102 159.447 295.221 159.846L296.653 164.604C296.716 164.803 296.741 165.014 296.727 165.223C296.713 165.433 296.661 165.637 296.573 165.825C296.485 166.013 296.363 166.18 296.215 166.316C296.066 166.453 295.894 166.557 295.708 166.621C295.528 166.669 295.341 166.682 295.157 166.66Z" fill="white"/>
<path d="M298.321 188.116C297.877 188.117 297.45 188.296 297.122 188.618C296.794 188.939 296.588 189.38 296.546 189.855C294.706 211.94 294.756 234.159 296.696 256.233H300.276C298.347 234.272 298.289 212.167 300.104 190.194C300.126 189.929 300.096 189.662 300.017 189.41C299.937 189.158 299.809 188.926 299.641 188.73C299.473 188.535 299.269 188.379 299.042 188.273C298.814 188.167 298.569 188.114 298.321 188.116Z" fill="#E0E0E0"/>
<path d="M114.496 129.344C114.171 129.346 113.85 129.278 113.55 129.144L101.171 123.678C100.556 123.407 100.066 122.883 99.8093 122.224C99.5529 121.564 99.5507 120.821 99.8032 120.16C100.056 119.498 100.542 118.972 101.156 118.696C101.77 118.42 102.46 118.418 103.075 118.689L115.455 124.155C115.994 124.392 116.439 124.823 116.714 125.374C116.99 125.925 117.079 126.562 116.965 127.175C116.852 127.789 116.543 128.341 116.093 128.737C115.642 129.132 115.077 129.347 114.496 129.344Z" fill="white"/>
<path d="M130.928 116.164C130.622 116.165 130.318 116.105 130.033 115.987C129.416 115.728 128.919 115.216 128.651 114.564C128.382 113.913 128.364 113.173 128.601 112.507L131.107 105.471C131.344 104.803 131.818 104.264 132.425 103.973C133.032 103.681 133.722 103.661 134.343 103.916C134.964 104.171 135.465 104.681 135.737 105.334C136.008 105.986 136.027 106.728 135.789 107.396L133.283 114.432C133.101 114.944 132.778 115.384 132.357 115.694C131.936 116.004 131.438 116.168 130.928 116.164Z" fill="white"/>
<path d="M112.333 98.2804C111.829 98.2808 111.337 98.118 110.921 97.8131C110.505 97.5082 110.183 97.0755 109.999 96.5713L107.135 88.6418C107.015 88.3122 106.957 87.9604 106.963 87.6066C106.97 87.2528 107.041 86.9038 107.173 86.5796C107.305 86.2554 107.495 85.9623 107.733 85.7171C107.97 85.4719 108.25 85.2794 108.556 85.1504C108.863 85.0215 109.19 84.9588 109.519 84.9659C109.848 84.9729 110.173 85.0496 110.474 85.1915C110.776 85.3334 111.048 85.5377 111.276 85.7929C111.504 86.0481 111.684 86.349 111.803 86.6786L114.667 94.6082C114.787 94.9382 114.846 95.2904 114.839 95.6447C114.832 95.9989 114.759 96.3482 114.626 96.6723C114.493 96.9965 114.302 97.2891 114.063 97.5334C113.824 97.7777 113.543 97.9688 113.235 98.0957C112.949 98.219 112.642 98.2817 112.333 98.2804Z" fill="white"/>
<path d="M179 291C255.671 291 317.825 287.098 317.825 282.285C317.825 277.472 255.671 273.57 179 273.57C102.329 273.57 40.1748 277.472 40.1748 282.285C40.1748 287.098 102.329 291 179 291Z" fill="#F5F5F5"/>
<path d="M116.794 282.701C116.717 282.702 116.643 282.677 116.579 282.632C109.29 277.404 111.982 271.461 115.097 264.578C119.135 255.64 124.169 244.516 110.801 229.388C99.4238 216.531 93.8962 204.213 95.2423 194.698C95.5788 192.203 96.4601 189.829 97.8141 187.771C99.1682 185.713 100.956 184.029 103.032 182.857C103.127 182.803 103.238 182.792 103.341 182.826C103.444 182.86 103.53 182.936 103.58 183.038C103.63 183.14 103.641 183.26 103.609 183.37C103.578 183.481 103.507 183.573 103.412 183.627C101.439 184.737 99.7392 186.333 98.4511 188.286C97.163 190.238 96.3234 192.491 96.0013 194.86C94.6982 204.098 100.154 216.192 111.367 228.857C125.121 244.4 119.959 255.802 115.813 264.979C112.734 271.784 110.3 277.158 117.03 281.977C117.114 282.04 117.172 282.135 117.193 282.243C117.213 282.35 117.193 282.462 117.138 282.555C117.095 282.606 117.042 282.647 116.982 282.672C116.922 282.697 116.858 282.707 116.794 282.701Z" fill="#263238"/>
<path d="M100.598 185.144C105.374 179.447 103.555 170.994 101.894 166.513C98.1493 168.161 95.1063 178.793 100.598 185.144Z" fill="#263238"/>
<path d="M100.591 214.653C94.3974 202.019 82.877 200.449 76.3829 199.864C80.2278 208.194 90.3377 218.548 100.591 214.653Z" fill="#263238"/>
<path d="M113.221 269.421C121.448 254.901 107.235 244.408 99.7603 233.815C96.882 244.516 99.0085 262.915 113.221 269.421Z" fill="#263238"/>
<path d="M111.932 230.112C101.951 217.547 104.235 208.44 106.92 202.558C112.312 210.003 120.424 223.206 111.932 230.112Z" fill="#263238"/>
<path d="M97.6409 188.547C100.548 184.836 105.581 185.383 108.309 186.152C107.658 188.832 101.765 191.765 97.6409 188.547Z" fill="#263238"/>
<path d="M119.15 255.155C120.245 245.57 124.162 246.317 127.169 242.068C127.545 243.498 127.631 245 127.42 246.469C127.209 247.939 126.705 249.343 125.944 250.584C125.184 251.826 124.183 252.877 123.01 253.666C121.838 254.455 120.521 254.963 119.15 255.155Z" fill="#263238"/>
<path d="M236.33 76.1084C231.504 77.3017 224.652 80.2195 218.573 82.8293C218.665 82.3398 218.718 81.8427 218.731 81.3435C218.416 81.9517 218.101 82.5522 217.793 83.1681L217.564 83.2681C217.589 82.6081 217.546 81.9471 217.435 81.2973C217.273 82.1707 216.922 82.9909 216.411 83.6916C216.387 83.7293 216.361 83.7653 216.332 83.7993L215.115 84.3306C215.262 83.0137 215.262 81.6826 215.115 80.3658C215.008 81.6175 214.822 82.8599 214.557 84.0842C214.514 84.269 214.478 84.4537 214.428 84.6462L212.845 85.3468C212.738 84.8772 212.623 84.4075 212.509 83.9379L211.936 85.7856L211.277 86.0781C211.185 85.3697 211.034 84.6715 210.826 83.9918C210.759 84.8227 210.629 85.6465 210.44 86.4554L209.903 86.7017C209.875 85.4381 209.736 84.1801 209.487 82.9448C209.38 83.9071 209.273 84.8541 209.172 85.8087L209.022 87.0944C206.666 88.1722 205.191 88.8727 205.191 88.8727C205.191 88.8727 205.02 79.7114 205.191 65.8231C205.363 51.9348 207.934 40.5716 213.203 35.0286C218.473 29.4856 229.714 28.5079 235.02 33.435C240.325 38.3621 241.822 49.9254 239.81 61.2193C238.643 67.7554 249.884 72.7518 236.33 76.1084Z" fill="#263238"/>
<path d="M189.16 139.045L189.661 137.405C189.859 136.759 190.187 136.169 190.621 135.675C191.056 135.181 191.586 134.797 192.174 134.549L198.797 131.739L202.113 133.479C201.225 137.366 197.143 141.293 197.143 141.293L196.105 142.517C195.671 143.052 195.081 143.414 194.432 143.546C193.783 143.677 193.111 143.569 192.525 143.24L190.034 141.701C189.62 141.44 189.306 141.03 189.146 140.544C188.986 140.058 188.991 139.527 189.16 139.045Z" fill="#B55B52"/>
<path d="M226.557 93.9076C226.428 95.2087 226.292 96.3481 226.127 97.5414C225.962 98.7347 225.769 99.9049 225.576 101.075C225.168 103.385 224.702 105.756 224.144 108.081C223.585 110.406 222.984 112.7 222.289 115.01C221.595 117.319 220.786 119.59 219.905 121.854L219.783 122.169C219.614 122.601 219.371 122.996 219.067 123.332C217.579 124.933 215.964 126.394 214.242 127.697C212.638 128.975 210.991 130.114 209.351 131.223C207.712 132.331 206.036 133.355 204.339 134.302C202.642 135.249 200.953 136.227 199.163 137.089C198.627 137.349 198.023 137.395 197.459 137.219C196.895 137.042 196.408 136.654 196.086 136.125C195.765 135.596 195.63 134.961 195.705 134.335C195.781 133.708 196.063 133.132 196.499 132.709H196.535C197.917 131.377 199.349 130.053 200.752 128.744C202.155 127.435 203.573 126.126 204.948 124.81C206.323 123.493 207.683 122.177 208.979 120.868C210.206 119.651 211.359 118.35 212.43 116.973L211.6 118.443C212.208 116.388 212.759 114.301 213.268 112.176C213.776 110.052 214.227 107.896 214.635 105.725C215.043 103.554 215.437 101.375 215.788 99.1812L216.296 95.9016L216.762 92.6913V92.5373C216.845 91.8483 217.054 91.1837 217.376 90.5814C217.698 89.979 218.127 89.4509 218.639 89.0269C219.151 88.603 219.736 88.2916 220.36 88.1106C220.983 87.9296 221.634 87.8825 222.275 87.972C222.916 88.0615 223.534 88.2858 224.094 88.6321C224.654 88.9784 225.146 89.44 225.54 89.9905C225.934 90.5409 226.224 91.1695 226.392 91.8403C226.56 92.5111 226.604 93.2109 226.521 93.8999L226.557 93.9076Z" fill="#B55B52"/>
<path d="M226.764 79.0801C213.354 80.8508 211.063 108.335 212.28 113.855C214.17 118.605 222.397 116.164 222.397 116.164C222.397 116.164 235.435 95.3165 226.764 79.0801Z" fill="#263238"/>
<path d="M223.75 115.341C223.448 116.134 223.043 116.878 222.547 117.55C222.509 117.604 222.456 117.644 222.397 117.666C221.681 117.997 216.526 120.114 212.208 116.965C212.133 116.914 212.076 116.838 212.043 116.749C211.634 115.559 211.449 114.292 211.499 113.023C211.501 112.952 211.519 112.883 211.55 112.82C211.582 112.758 211.627 112.705 211.681 112.664C211.735 112.624 211.798 112.597 211.863 112.588C211.929 112.578 211.995 112.585 212.058 112.608C213.69 113.239 218.795 115.017 223.335 114.709C223.407 114.704 223.479 114.719 223.544 114.753C223.609 114.786 223.665 114.837 223.706 114.9C223.748 114.964 223.774 115.037 223.781 115.114C223.789 115.191 223.778 115.269 223.75 115.341Z" fill="white"/>
<path d="M279.097 282.277C285.634 282.277 285.154 282.17 288.82 282.031C291.956 281.916 292.744 282.339 295.264 282.277C297.376 282.224 297.147 280.053 296.317 277.551C295.901 276.296 295.293 274.756 294.698 272.731H284.76C283.608 275.495 281.066 277.574 277.421 278.12C273.934 278.613 276.483 282.277 279.097 282.277Z" fill="#263238"/>
<path d="M225.075 282.277C233.387 282.277 234.182 278.428 237.247 276.388C239.896 274.648 240.948 275.133 243.691 273.47C245.502 272.377 244.7 269.967 243.247 268.682C241.913 267.524 240.726 266.184 239.717 264.694L231.612 268.543C231.168 272.054 229.636 277.966 224.752 278.336C221.28 278.636 222.504 282.277 225.075 282.277Z" fill="#263238"/>
<path d="M226.714 133.64C226.714 133.64 210.962 176.752 208.872 198.132C208.814 215.838 231.633 268.566 231.633 268.566C232.349 269.883 238.893 266.095 239.738 264.717C231.332 242.653 235.75 215.045 228.168 198.848C244.421 173.996 257.03 128.02 257.03 128.02L226.714 133.64Z" fill="#00A0B0"/>
<path d="M224.015 144.372C223.967 144.378 223.92 144.364 223.882 144.332C223.844 144.3 223.82 144.254 223.814 144.203C223.809 144.152 223.822 144.1 223.852 144.06C223.881 144.019 223.925 143.993 223.972 143.987C225.942 143.53 227.688 142.311 228.877 140.561C228.902 140.519 228.941 140.489 228.987 140.477C229.032 140.466 229.08 140.474 229.12 140.5C229.14 140.512 229.158 140.529 229.172 140.549C229.186 140.57 229.196 140.593 229.201 140.617C229.207 140.642 229.207 140.667 229.203 140.692C229.199 140.717 229.19 140.74 229.177 140.761C227.952 142.614 226.121 143.901 224.051 144.364L224.015 144.372Z" fill="white"/>
<path d="M241.478 153.533C237.97 161.17 237.418 172.564 237.698 181.295C242.085 171.758 245.997 161.977 249.419 151.994L249.383 151.955C248.81 151.385 248.121 150.966 247.371 150.732C246.62 150.499 245.83 150.457 245.062 150.61C244.294 150.764 243.57 151.108 242.948 151.615C242.326 152.123 241.822 152.78 241.478 153.533Z" fill="black"/>
<path d="M235.8 131.977C235.8 131.977 239.989 172.249 248.302 199.725C252.454 213.429 276.154 244.554 284.76 272.754C286.364 273.709 291.749 273.77 294.698 272.754C294.698 272.754 281.474 210.773 267.233 197.731C267.19 164.235 268.307 148.067 261.505 127.158L235.8 131.977Z" fill="#00A0B0"/>
<path d="M291.054 269.013C291.012 269.014 290.971 268.999 290.939 268.971C290.906 268.943 290.883 268.903 290.875 268.859C284.99 231.436 263.91 198.801 263.667 198.501C263.656 198.458 263.656 198.413 263.667 198.37C263.667 198.332 264.032 193.751 264.383 176.737C264.727 160.724 263.352 143.348 263.18 141.254C262.063 141.454 256.428 142.278 252.161 139.268C252.141 139.254 252.124 139.236 252.111 139.215C252.097 139.193 252.088 139.17 252.083 139.145C252.079 139.119 252.079 139.094 252.083 139.068C252.088 139.043 252.097 139.02 252.111 138.998C252.138 138.957 252.18 138.928 252.226 138.918C252.273 138.908 252.321 138.917 252.361 138.945C256.965 142.193 263.245 140.854 263.309 140.838C263.33 140.827 263.354 140.822 263.377 140.822C263.401 140.822 263.424 140.827 263.445 140.838C263.466 140.855 263.484 140.875 263.498 140.899C263.511 140.923 263.52 140.949 263.524 140.977C263.524 141.162 265.106 159.708 264.741 176.714C264.39 192.604 264.025 197.67 264.025 198.309C265.027 199.848 285.433 231.998 291.233 268.759C291.237 268.784 291.236 268.81 291.231 268.835C291.226 268.86 291.216 268.884 291.202 268.904C291.188 268.925 291.17 268.943 291.149 268.956C291.129 268.969 291.106 268.978 291.083 268.982L291.054 269.013Z" fill="white"/>
<path d="M282.877 268.728C283.199 270.025 283.439 271.345 283.593 272.677C283.63 272.921 283.736 273.145 283.898 273.319C284.06 273.494 284.269 273.608 284.495 273.647C288.297 274.271 293.317 273.362 294.899 273.039C294.97 273.027 295.037 273 295.098 272.959C295.158 272.918 295.21 272.864 295.25 272.8C295.29 272.737 295.318 272.665 295.332 272.59C295.345 272.514 295.344 272.437 295.329 272.362L294.885 268.666C294.841 268.406 294.715 268.17 294.528 267.998C294.342 267.826 294.106 267.727 293.861 267.719L283.414 267.935C283.324 267.932 283.235 267.952 283.154 267.995C283.073 268.037 283.003 268.1 282.95 268.178C282.897 268.257 282.863 268.348 282.85 268.443C282.838 268.539 282.847 268.637 282.877 268.728Z" fill="#00A0B0"/>
<path d="M282.877 268.728C283.199 270.025 283.439 271.345 283.593 272.677C283.63 272.921 283.736 273.145 283.898 273.319C284.06 273.494 284.269 273.608 284.495 273.647C288.297 274.271 293.317 273.362 294.899 273.039C294.97 273.027 295.037 273 295.098 272.959C295.158 272.918 295.21 272.864 295.25 272.8C295.29 272.737 295.318 272.665 295.332 272.59C295.345 272.514 295.344 272.437 295.329 272.362L294.885 268.666C294.841 268.406 294.715 268.17 294.528 267.998C294.342 267.826 294.106 267.727 293.861 267.719L283.414 267.935C283.324 267.932 283.235 267.952 283.154 267.995C283.073 268.037 283.003 268.1 282.95 268.178C282.897 268.257 282.863 268.348 282.85 268.443C282.838 268.539 282.847 268.637 282.877 268.728Z" fill="black"/>
<path d="M229.299 265.11C229.621 266.08 230.187 267.819 230.566 269.121C230.626 269.326 230.759 269.499 230.936 269.599C231.113 269.7 231.32 269.722 231.511 269.659C234.533 268.728 238.965 266.149 240.411 265.287C240.551 265.202 240.662 265.073 240.729 264.917C240.796 264.76 240.815 264.585 240.784 264.417L240.139 260.683C240.119 260.564 240.074 260.451 240.008 260.353C239.942 260.255 239.857 260.174 239.758 260.116C239.659 260.057 239.55 260.024 239.437 260.016C239.325 260.009 239.213 260.029 239.108 260.075L229.736 264.07C229.551 264.148 229.402 264.3 229.321 264.494C229.239 264.688 229.231 264.909 229.299 265.11Z" fill="#00A0B0"/>
<path d="M229.299 265.11C229.621 266.08 230.187 267.819 230.566 269.121C230.626 269.326 230.759 269.499 230.936 269.599C231.113 269.7 231.32 269.722 231.511 269.659C234.533 268.728 238.965 266.149 240.411 265.287C240.551 265.202 240.662 265.073 240.729 264.917C240.796 264.76 240.815 264.585 240.784 264.417L240.139 260.683C240.119 260.564 240.074 260.451 240.008 260.353C239.942 260.255 239.857 260.174 239.758 260.116C239.659 260.057 239.55 260.024 239.437 260.016C239.325 260.009 239.213 260.029 239.108 260.075L229.736 264.07C229.551 264.148 229.402 264.3 229.321 264.494C229.239 264.688 229.231 264.909 229.299 265.11Z" fill="black"/>
<path d="M226.528 132.039C226.621 132.539 226.134 134.687 225.404 136.589C226.693 137.528 231.132 138.567 236.738 138.829C237.268 137.898 237.597 135.442 238.013 134.441C238.422 136.155 239.294 137.701 240.519 138.883C243.661 138.831 246.793 138.499 249.884 137.89C260.803 135.688 263.381 132.039 263.381 132.039C263.381 132.039 261.29 125.264 260.696 122.801C255.046 123.255 226.822 124.14 226.528 132.039Z" fill="white"/>
<path d="M216.318 97.934C217.91 103.477 219.762 108.929 221.867 114.27C226.127 126.049 225.125 128.644 226.227 133.479C229.282 134.751 232.525 135.421 235.8 135.457C236.312 134.228 236.966 133.075 237.748 132.023C238.614 132.647 241.292 134.441 242.831 134.549C249.791 133.394 258.77 130.491 261.92 126.904C259.521 116.495 258.655 105.148 257.252 80.181C256.922 74.3993 252.182 70.5038 247.07 71.8203C245.703 72.1744 244.263 72.5901 242.774 73.0444C237.089 74.8535 232.442 76.3856 227.638 78.7414C226.048 79.5112 224.416 80.3812 222.862 81.2357C220.145 82.7775 218.008 85.2835 216.815 88.3277C215.622 91.3718 215.447 94.7663 216.318 97.934Z" fill="#263238"/>
<path d="M275.861 139.006L274.779 137.728C274.357 137.224 274.043 136.626 273.86 135.977C273.677 135.327 273.629 134.643 273.72 133.971L274.744 126.388L277.794 124.163C280.486 126.919 281.631 132.67 281.631 132.67L282.104 134.21C282.314 134.877 282.312 135.599 282.1 136.265C281.887 136.931 281.476 137.502 280.93 137.89L278.431 139.43C278.024 139.694 277.544 139.797 277.074 139.72C276.604 139.642 276.175 139.39 275.861 139.006Z" fill="#B55B52"/>
<path d="M260.846 79.1032C261.77 80.027 262.543 80.8431 263.352 81.7361C264.161 82.6292 264.913 83.5145 265.679 84.4152C267.19 86.2321 268.65 88.0952 270.047 90.0352C271.443 91.9753 272.782 93.9461 274.049 96.0017C275.316 98.0572 276.505 100.182 277.629 102.361L277.772 102.638C277.876 102.844 277.96 103.06 278.023 103.285C278.573 105.472 278.951 107.704 279.154 109.959C279.383 112.084 279.483 114.186 279.562 116.264C279.641 118.343 279.641 120.422 279.598 122.493C279.555 124.564 279.469 126.611 279.283 128.713C279.229 129.344 278.966 129.933 278.543 130.373C278.119 130.813 277.563 131.076 276.975 131.113C276.387 131.151 275.806 130.96 275.338 130.576C274.869 130.192 274.544 129.641 274.421 129.021V128.975C274.028 127.019 273.705 125.025 273.312 123.062C272.918 121.099 272.596 119.136 272.216 117.196C271.837 115.256 271.45 113.347 271.035 111.476C270.665 109.727 270.187 108.006 269.603 106.326L269.996 107.242C268.851 105.417 267.669 103.616 266.416 101.853C265.163 100.09 263.853 98.3498 262.5 96.6407C261.147 94.9316 259.772 93.2456 258.354 91.5981L256.206 89.1422C255.49 88.3723 254.774 87.4947 254.094 86.7941L254.015 86.7017C253.078 85.7258 252.54 84.3895 252.519 82.9868C252.498 81.5842 252.997 80.2302 253.904 79.2225C254.812 78.2149 256.055 77.6362 257.359 77.6139C258.664 77.5915 259.923 78.1272 260.86 79.1032H260.846Z" fill="#B55B52"/>
<path d="M246.462 71.9281C259.113 66.8162 272.954 90.0198 274.271 95.5474C274.636 100.698 266.28 102.607 266.28 102.607C266.28 102.607 245.767 90.6665 246.462 71.9281Z" fill="#263238"/>
<path d="M230.216 90.1969C230.137 90.1965 230.061 90.1744 229.993 90.1325C229.925 90.0907 229.869 90.0306 229.829 89.9582C229.799 89.9037 229.78 89.8435 229.773 89.781C229.765 89.7185 229.769 89.655 229.784 89.5942C229.8 89.5333 229.826 89.4763 229.862 89.4265C229.898 89.3767 229.943 89.335 229.994 89.3039C231.032 88.6495 235.392 84.0688 237.154 80.2272C237.179 80.1701 237.216 80.1192 237.26 80.0774C237.304 80.0356 237.356 80.0037 237.412 79.9836C237.468 79.9635 237.527 79.9557 237.586 79.9605C237.645 79.9653 237.702 79.9827 237.755 80.0116C237.861 80.0694 237.941 80.1697 237.979 80.2907C238.016 80.4118 238.008 80.5438 237.955 80.6583C236.051 84.7232 231.511 89.4193 230.409 90.1353C230.35 90.1718 230.284 90.1929 230.216 90.1969Z" fill="#00A0B0"/>
<path d="M228.676 89.9582C228.596 89.957 228.518 89.936 228.447 89.8966C227.108 89.0498 224.724 85.6239 225.032 81.1664C225.03 81.0985 225.041 81.0309 225.065 80.968C225.089 80.9051 225.124 80.8483 225.17 80.8012C225.216 80.7542 225.27 80.7179 225.329 80.6948C225.389 80.6718 225.452 80.6624 225.515 80.6672C225.578 80.6721 225.639 80.6912 225.695 80.7232C225.751 80.7552 225.8 80.7994 225.838 80.853C225.877 80.9066 225.905 80.9683 225.92 81.0343C225.936 81.1002 225.938 81.1688 225.927 81.2357C225.633 85.5392 228.039 88.5186 228.905 89.0652C228.992 89.1175 229.059 89.1993 229.097 89.2977C229.135 89.3961 229.142 89.5053 229.115 89.608C229.089 89.7107 229.031 89.801 228.952 89.8645C228.872 89.9279 228.775 89.9609 228.676 89.9582Z" fill="#00A0B0"/>
<path d="M234.612 55.4145C235.449 61.0884 237.669 71.035 241.965 73.3369C241.965 73.3369 237.111 74.3223 229.442 84.523C225.182 81.2126 226.836 79.0262 226.836 79.0262C231.905 75.5541 230.774 71.8819 228.497 68.2481L234.612 55.4145Z" fill="#B55B52"/>
<path d="M231.075 82.4367C234.461 81.713 237.175 86.5709 237.175 86.5709C237.175 86.5709 243.003 77.7713 244.106 72.7133C242.94 72.489 241.785 72.1986 240.648 71.8434C240.648 71.8434 232.306 79.7268 231.075 82.4367Z" fill="white"/>
<path d="M227.824 83.0295C227.824 83.0295 225.304 84.8849 225.676 89.4809C222.454 82.1211 225.354 79.5728 225.354 79.5728C226.068 78.712 227.052 78.1639 228.118 78.0331C227.537 78.6997 227.19 79.5629 227.136 80.4746C227.083 81.3863 227.326 82.2895 227.824 83.0295Z" fill="white"/>
<path d="M232.12 60.6496L228.497 68.2481C229.047 69.0916 229.526 69.9855 229.929 70.9196C231.827 69.6339 233.76 65.8616 233.194 63.4211C232.992 62.4359 232.629 61.4973 232.12 60.6496Z" fill="black"/>
<path d="M215.752 63.4596H214.084C214.055 63.4591 214.027 63.452 214.001 63.4387C213.975 63.4254 213.952 63.4063 213.934 63.3826C213.916 63.3577 213.904 63.3289 213.898 63.2983C213.891 63.2677 213.892 63.2361 213.898 63.2055L214.728 59.0868C214.737 59.0406 214.76 58.9991 214.794 58.9695C214.828 58.94 214.871 58.9242 214.915 58.9251C214.959 58.9253 215.002 58.9413 215.037 58.9705C215.072 58.9998 215.097 59.0406 215.108 59.0868L215.938 63.2055C215.945 63.2361 215.945 63.2677 215.939 63.2983C215.933 63.3289 215.92 63.3577 215.903 63.3826C215.884 63.4056 215.861 63.4242 215.835 63.4374C215.809 63.4506 215.781 63.4582 215.752 63.4596ZM214.32 63.0362H215.516L214.929 60.1261L214.32 63.0362Z" fill="white"/>
<path d="M234.404 43.32C236.38 52.1811 237.383 55.8765 234.683 61.8814C230.609 70.9196 220.363 72.1205 216.024 64.191C212.122 57.062 209.58 43.7665 216.261 37.2997C222.941 30.8328 232.428 34.4589 234.404 43.32Z" fill="#B55B52"/>
<path d="M211.306 47.1231C218.888 45.5295 223.478 37.6307 227.058 37.8848C226.514 43.8743 230.881 50.6414 235.185 50.8031C241.006 51.0186 235.614 35.6368 231.705 33.204C227.581 30.6096 209.967 30.4248 211.306 47.1231Z" fill="#263238"/>
<path d="M231.655 51.1418C231.009 51.127 230.385 50.8925 229.872 50.472C227.244 48.4473 225.655 42.1575 226.664 37.777C226.671 37.7173 226.689 37.6598 226.717 37.6083C226.746 37.5568 226.785 37.5124 226.831 37.4781C226.876 37.4438 226.929 37.4205 226.984 37.4095C227.038 37.3985 227.095 37.4003 227.149 37.4146C227.203 37.4289 227.254 37.4555 227.298 37.4925C227.342 37.5295 227.378 37.5762 227.404 37.6294C227.43 37.6826 227.445 37.7411 227.448 37.8011C227.452 37.8611 227.443 37.9211 227.423 37.9772C226.499 42.0035 227.96 47.9854 230.323 49.7868C230.685 50.0955 231.13 50.2704 231.592 50.2856C232.053 50.3009 232.507 50.1557 232.886 49.8715C232.929 49.8415 232.977 49.8208 233.027 49.8107C233.077 49.8007 233.129 49.8014 233.179 49.8128C233.229 49.8243 233.276 49.8462 233.318 49.8775C233.36 49.9087 233.396 49.9485 233.423 49.9947C233.48 50.0887 233.5 50.203 233.478 50.3127C233.457 50.4224 233.396 50.5184 233.309 50.5798C232.818 50.9325 232.244 51.1275 231.655 51.1418Z" fill="#263238"/>
<path d="M222.927 50.4797C223.12 51.2496 222.927 51.9425 222.511 52.1118C222.096 52.2812 221.581 51.8116 221.387 51.0802C221.194 50.3488 221.387 49.6098 221.803 49.4481C222.218 49.2864 222.733 49.7407 222.927 50.4797Z" fill="#263238"/>
<path d="M214.488 55.3679C214.926 55.2562 215.149 54.5619 214.985 53.8172C214.821 53.0725 214.333 52.5593 213.894 52.6709C213.455 52.7826 213.233 53.4769 213.397 54.2216C213.561 54.9663 214.049 55.4796 214.488 55.3679Z" fill="#263238"/>
<path d="M214.034 52.6815L212.337 52.7816C212.337 52.7816 213.504 53.8286 214.034 52.6815Z" fill="#263238"/>
<path d="M217.514 54.0596C217.378 55.9692 217.018 57.8526 216.44 59.6642C217.542 60.2339 218.888 59.2484 218.888 59.2484L217.514 54.0596Z" fill="#A02724"/>
<path d="M223.098 60.3801C222.732 60.5277 222.353 60.6385 221.967 60.7112C221.941 60.7155 221.915 60.7141 221.889 60.707C221.864 60.7 221.84 60.6874 221.819 60.6701C221.798 60.6528 221.781 60.6312 221.768 60.6065C221.756 60.5818 221.748 60.5545 221.745 60.5264C221.739 60.4666 221.754 60.4063 221.787 60.3577C221.82 60.3092 221.869 60.2759 221.924 60.2647C222.796 60.0994 223.622 59.725 224.341 59.1692C225.06 58.6134 225.654 57.8906 226.077 57.0543C226.099 57.0003 226.14 56.9574 226.19 56.9345C226.241 56.9116 226.298 56.9104 226.349 56.9312C226.374 56.9443 226.395 56.9624 226.413 56.9846C226.431 57.0068 226.445 57.0326 226.454 57.0605C226.462 57.0884 226.466 57.1179 226.464 57.1472C226.462 57.1765 226.454 57.2051 226.442 57.2314C225.725 58.6865 224.535 59.8071 223.098 60.3801Z" fill="#263238"/>
<path d="M238.485 51.7269C238.335 52.585 238.02 53.4 237.56 54.1197C237.1 54.8395 236.506 55.4483 235.815 55.9072C234.068 56.9543 232.7 54.8602 232.779 52.3813C232.85 50.141 233.846 46.8999 235.8 46.8999C237.755 46.8999 238.944 49.4404 238.485 51.7269Z" fill="#B55B52"/>
<path d="M218.659 47.2925C218.688 47.2431 218.725 47.2006 218.77 47.1675C218.814 47.1344 218.864 47.1114 218.917 47.1C219.417 47.0225 219.891 46.8123 220.296 46.4883C220.701 46.1644 221.024 45.7369 221.237 45.2447C221.255 45.1916 221.283 45.1431 221.319 45.1025C221.355 45.0618 221.399 45.0299 221.448 45.0088C221.497 44.9878 221.549 44.978 221.602 44.9801C221.654 44.9823 221.705 44.9964 221.752 45.0214C221.853 45.0734 221.932 45.1635 221.974 45.2744C222.016 45.3853 222.019 45.5091 221.982 45.6219C221.721 46.2486 221.319 46.7948 220.811 47.2105C220.303 47.6261 219.706 47.8979 219.075 48.0008C218.966 48.0162 218.857 47.9853 218.77 47.9147C218.683 47.8441 218.625 47.7395 218.609 47.6235C218.588 47.5103 218.606 47.3927 218.659 47.2925Z" fill="#263238"/>
<path d="M211.456 50.7415C211.409 50.7644 211.358 50.7763 211.306 50.7763C211.254 50.7763 211.203 50.7644 211.156 50.7415C211.107 50.7174 211.062 50.6832 211.026 50.6407C210.989 50.5982 210.961 50.5483 210.942 50.4939C210.923 50.4395 210.915 50.3816 210.917 50.3237C210.919 50.2658 210.932 50.2089 210.955 50.1564C211.192 49.483 211.569 48.8772 212.058 48.3859C212.547 47.8946 213.135 47.531 213.776 47.3233C213.828 47.3123 213.881 47.3128 213.933 47.3249C213.985 47.337 214.034 47.3604 214.077 47.3936C214.12 47.4268 214.156 47.4691 214.183 47.5179C214.21 47.5667 214.228 47.621 214.234 47.6774C214.25 47.7961 214.224 47.9168 214.162 48.0163C214.1 48.1158 214.006 48.1871 213.898 48.2163C213.393 48.3868 212.931 48.6795 212.547 49.0718C212.164 49.4642 211.869 49.9458 211.685 50.4797C211.666 50.538 211.636 50.5914 211.596 50.6365C211.557 50.6815 211.509 50.7173 211.456 50.7415Z" fill="#263238"/>
<path d="M222.003 49.4096L220.306 49.5097C220.306 49.5097 221.473 50.5798 222.003 49.4096Z" fill="#263238"/>
<path d="M228.662 86.7248C229.306 86.5913 229.96 86.5243 230.616 86.5247C230.78 86.5296 230.937 86.5905 231.066 86.6986C231.195 86.8066 231.288 86.9561 231.332 87.1252C231.54 87.895 231.927 89.2962 232.156 89.9659C232.478 90.9283 229.943 92.9068 229.943 92.9068C229.943 92.9068 227.853 91.8367 227.795 90.4202C227.789 89.4175 227.859 88.416 228.003 87.4254C228.027 87.2473 228.104 87.0824 228.223 86.9559C228.342 86.8294 228.496 86.7482 228.662 86.7248Z" fill="#00A0B0"/>
<path d="M233.903 114.909C233.731 110.467 231.039 90.1815 231.039 90.1815L229.027 90.451C228.877 93.3379 227.452 110.683 227.452 115.279C227.452 119.875 231.103 125.01 231.103 125.01C231.103 125.01 234.075 119.344 233.903 114.909Z" fill="#00A0B0"/>
<path d="M264.734 102.599C265.345 103.152 266.024 103.611 266.753 103.962C266.814 103.977 266.878 103.977 266.939 103.962C267.727 103.893 273.197 103.192 275.667 98.2728C275.71 98.1881 275.73 98.092 275.724 97.9956C275.572 96.737 275.19 95.5231 274.6 94.4235C274.568 94.3616 274.523 94.3088 274.468 94.2691C274.413 94.2295 274.351 94.2042 274.285 94.1952C274.22 94.1862 274.154 94.1938 274.091 94.2174C274.029 94.241 273.973 94.2799 273.927 94.3311C272.753 95.7014 268.994 99.8125 264.834 101.799C264.761 101.827 264.696 101.876 264.647 101.941C264.599 102.005 264.567 102.083 264.557 102.166C264.546 102.249 264.557 102.333 264.589 102.41C264.62 102.486 264.67 102.552 264.734 102.599Z" fill="white"/>
<path d="M209.072 153.01L205.556 160.709C205.39 161.072 205.156 161.395 204.87 161.657C204.583 161.92 204.25 162.117 203.89 162.237C203.53 162.357 203.151 162.396 202.777 162.353C202.402 162.31 202.04 162.185 201.712 161.987L156.396 134.526L160.384 125.818L207.733 149.022C208.066 149.187 208.365 149.422 208.613 149.713C208.861 150.004 209.053 150.344 209.178 150.715C209.302 151.086 209.357 151.48 209.339 151.874C209.321 152.268 209.23 152.654 209.072 153.01Z" fill="#00A0B0"/>
<path d="M209.072 153.01L205.556 160.709C205.39 161.072 205.156 161.395 204.87 161.657C204.583 161.92 204.25 162.117 203.89 162.237C203.53 162.357 203.151 162.396 202.777 162.353C202.402 162.31 202.04 162.185 201.712 161.987L156.396 134.526L160.384 125.818L207.733 149.022C208.066 149.187 208.365 149.422 208.613 149.713C208.861 150.004 209.053 150.344 209.178 150.715C209.302 151.086 209.357 151.48 209.339 151.874C209.321 152.268 209.23 152.654 209.072 153.01Z" fill="black"/>
<path d="M160.42 94.5312C160.363 94.3773 160.312 94.231 160.262 94.0847C160.069 93.5458 159.861 93.0146 159.647 92.4834L159.553 92.2755C159.367 91.8136 159.167 91.3594 158.959 90.9052C158.888 90.7435 158.809 90.5895 158.73 90.4279C158.551 90.0429 158.365 89.658 158.172 89.2808C158.093 89.1422 158.021 88.9959 157.95 88.8496C157.685 88.3415 157.405 87.8411 157.119 87.3099L157.019 87.1405C156.761 86.7017 156.496 86.2629 156.224 85.8318L155.931 85.3853C155.701 85.0311 155.458 84.677 155.215 84.3229L154.935 83.9148C154.599 83.4452 154.255 82.9756 153.904 82.5214L153.797 82.3905C153.475 81.9748 153.138 81.5668 152.802 81.1664L152.458 80.7661C152.171 80.4428 151.885 80.1194 151.592 79.8038L151.248 79.4265C150.847 79.0005 150.439 78.5848 150.023 78.1794L149.938 78.0947C149.544 77.7097 149.143 77.3248 148.728 76.9707L148.334 76.6242L147.331 75.7774L146.93 75.4464C146.453 75.0768 145.976 74.715 145.498 74.3608H145.448C144.983 74.0298 144.51 73.6988 144.016 73.3831L143.558 73.0829C143.193 72.8442 142.842 72.6133 142.434 72.3823L141.969 72.1051C141.446 71.7972 140.923 71.497 140.379 71.2121C121.24 61.1115 98.6791 68.3405 90.0084 87.3792L87.1444 93.5381C95.8151 74.5379 118.376 67.3089 137.522 77.4095C138.059 77.6943 138.589 77.9946 139.105 78.2948C139.262 78.3872 139.42 78.4796 139.57 78.5797C139.949 78.8029 140.329 79.0416 140.701 79.2803L141.152 79.5728C141.632 79.8961 142.105 80.2195 142.584 80.5582L142.634 80.5967C143.121 80.9509 143.587 81.3127 144.066 81.6822L144.467 82.0133C144.804 82.2904 145.14 82.5676 145.463 82.8524L145.871 83.2066C146.279 83.5761 146.68 83.9764 147.074 84.3229L147.16 84.4076C147.582 84.8156 147.983 85.239 148.384 85.6624C148.506 85.7856 148.613 85.9088 148.728 86.032C149.021 86.3476 149.307 86.6709 149.594 86.9943L149.938 87.4023C150.281 87.8026 150.611 88.1722 150.933 88.6264L151.04 88.7573C151.393 89.2141 151.737 89.676 152.071 90.143L152.358 90.5587C152.601 90.9052 152.837 91.2593 153.074 91.6212C153.167 91.7674 153.267 91.9137 153.36 92.0677C153.632 92.4988 153.897 92.9299 154.155 93.3687C154.191 93.4303 154.226 93.4842 154.255 93.5458C154.541 94.0385 154.821 94.5466 155.086 95.0855L155.308 95.5243C155.501 95.9016 155.687 96.2942 155.873 96.6714L156.095 97.1488C156.303 97.603 156.503 98.0572 156.689 98.5114C156.725 98.5807 156.754 98.6577 156.783 98.727C156.997 99.2505 157.205 99.7894 157.398 100.321L157.556 100.767C157.699 101.175 157.828 101.537 157.957 101.976C158.014 102.145 158.064 102.315 158.114 102.484C158.257 102.946 158.386 103.408 158.515 103.877C158.515 103.962 158.565 104.047 158.587 104.139C158.73 104.686 158.859 105.24 158.974 105.787C158.974 105.941 159.038 106.095 159.067 106.249C159.153 106.664 159.231 107.08 159.303 107.496C159.303 107.673 159.367 107.85 159.389 108.027C159.468 108.489 159.532 108.958 159.589 109.428C159.589 109.528 159.589 109.621 159.625 109.721C159.697 110.283 159.747 110.845 159.79 111.407V111.869C159.818 112.295 159.84 112.718 159.854 113.139C159.854 113.316 159.854 113.501 159.854 113.678C159.854 114.14 159.854 114.602 159.854 115.071V115.387C159.854 115.564 159.854 115.741 159.854 115.91C159.854 116.426 159.811 116.95 159.768 117.45C159.768 117.696 159.718 117.943 159.697 118.22C159.654 118.656 159.604 119.095 159.546 119.536C159.546 119.806 159.468 120.075 159.425 120.306C159.36 120.73 159.289 121.153 159.21 121.569C159.16 121.838 159.102 122.108 159.052 122.339C158.959 122.77 158.859 123.201 158.752 123.624C158.68 123.894 158.615 124.163 158.544 124.44L158.372 125.033C158.265 125.41 158.15 125.803 158.028 126.157C157.964 126.365 157.892 126.565 157.821 126.773C157.692 127.158 157.549 127.543 157.398 127.928C157.334 128.105 157.269 128.282 157.198 128.459C156.976 129.013 156.747 129.568 156.482 130.114L159.31 123.917C159.561 123.37 159.79 122.816 160.026 122.262C160.098 122.085 160.162 121.908 160.227 121.73C160.377 121.346 160.513 120.961 160.649 120.576C160.721 120.376 160.785 120.168 160.857 119.967C160.978 119.59 161.093 119.198 161.2 118.843L161.372 118.243L161.458 117.95C161.501 117.781 161.537 117.604 161.58 117.427C161.68 117.004 161.787 116.58 161.873 116.149C161.931 115.88 161.988 115.618 162.038 115.379C162.117 114.956 162.188 114.532 162.253 114.117C162.296 113.847 162.339 113.578 162.375 113.347C162.432 112.908 162.482 112.469 162.525 112.022C162.525 111.776 162.575 111.53 162.596 111.253C162.639 110.737 162.661 110.221 162.682 109.713C162.682 109.567 162.682 109.42 162.682 109.274V108.866C162.682 108.404 162.682 107.935 162.682 107.473C162.682 107.296 162.682 107.118 162.682 106.941C162.682 106.518 162.682 106.087 162.618 105.663C162.618 105.509 162.618 105.355 162.618 105.209C162.618 104.64 162.525 104.078 162.46 103.516C162.46 103.423 162.46 103.323 162.425 103.223C162.367 102.761 162.303 102.291 162.224 101.822L162.138 101.298C162.067 100.883 161.988 100.467 161.902 100.051C161.902 99.8972 161.845 99.7432 161.809 99.5892C161.687 99.0349 161.558 98.4806 161.422 97.934C161.394 97.8482 161.37 97.7608 161.351 97.6723C161.222 97.2104 161.093 96.7484 160.95 96.2865C160.9 96.1171 160.849 95.9478 160.792 95.7784C160.692 95.3319 160.556 94.9316 160.42 94.5312Z" fill="#00A0B0"/>
<path d="M160.42 94.5312C160.363 94.3773 160.312 94.231 160.262 94.0847C160.069 93.5458 159.861 93.0146 159.647 92.4834L159.553 92.2755C159.367 91.8136 159.167 91.3594 158.959 90.9052C158.888 90.7435 158.809 90.5895 158.73 90.4279C158.551 90.0429 158.365 89.658 158.172 89.2808C158.093 89.1422 158.021 88.9959 157.95 88.8496C157.685 88.3415 157.405 87.8411 157.119 87.3099L157.019 87.1405C156.761 86.7017 156.496 86.2629 156.224 85.8318L155.931 85.3853C155.701 85.0311 155.458 84.677 155.215 84.3229L154.935 83.9148C154.599 83.4452 154.255 82.9756 153.904 82.5214L153.797 82.3905C153.475 81.9748 153.138 81.5668 152.802 81.1664L152.458 80.7661C152.171 80.4428 151.885 80.1194 151.592 79.8038L151.248 79.4265C150.847 79.0005 150.439 78.5848 150.023 78.1794L149.938 78.0947C149.544 77.7097 149.143 77.3248 148.728 76.9707L148.334 76.6242L147.331 75.7774L146.93 75.4464C146.453 75.0768 145.976 74.715 145.498 74.3608H145.448C144.983 74.0298 144.51 73.6988 144.016 73.3831L143.558 73.0829C143.193 72.8442 142.842 72.6133 142.434 72.3823L141.969 72.1051C141.446 71.7972 140.923 71.497 140.379 71.2121C121.24 61.1115 98.6791 68.3405 90.0084 87.3792L87.1444 93.5381C95.8151 74.5379 118.376 67.3089 137.522 77.4095C138.059 77.6943 138.589 77.9946 139.105 78.2948C139.262 78.3872 139.42 78.4796 139.57 78.5797C139.949 78.8029 140.329 79.0416 140.701 79.2803L141.152 79.5728C141.632 79.8961 142.105 80.2195 142.584 80.5582L142.634 80.5967C143.121 80.9509 143.587 81.3127 144.066 81.6822L144.467 82.0133C144.804 82.2904 145.14 82.5676 145.463 82.8524L145.871 83.2066C146.279 83.5761 146.68 83.9764 147.074 84.3229L147.16 84.4076C147.582 84.8156 147.983 85.239 148.384 85.6624C148.506 85.7856 148.613 85.9088 148.728 86.032C149.021 86.3476 149.307 86.6709 149.594 86.9943L149.938 87.4023C150.281 87.8026 150.611 88.1722 150.933 88.6264L151.04 88.7573C151.393 89.2141 151.737 89.676 152.071 90.143L152.358 90.5587C152.601 90.9052 152.837 91.2593 153.074 91.6212C153.167 91.7674 153.267 91.9137 153.36 92.0677C153.632 92.4988 153.897 92.9299 154.155 93.3687C154.191 93.4303 154.226 93.4842 154.255 93.5458C154.541 94.0385 154.821 94.5466 155.086 95.0855L155.308 95.5243C155.501 95.9016 155.687 96.2942 155.873 96.6714L156.095 97.1488C156.303 97.603 156.503 98.0572 156.689 98.5114C156.725 98.5807 156.754 98.6577 156.783 98.727C156.997 99.2505 157.205 99.7894 157.398 100.321L157.556 100.767C157.699 101.175 157.828 101.537 157.957 101.976C158.014 102.145 158.064 102.315 158.114 102.484C158.257 102.946 158.386 103.408 158.515 103.877C158.515 103.962 158.565 104.047 158.587 104.139C158.73 104.686 158.859 105.24 158.974 105.787C158.974 105.941 159.038 106.095 159.067 106.249C159.153 106.664 159.231 107.08 159.303 107.496C159.303 107.673 159.367 107.85 159.389 108.027C159.468 108.489 159.532 108.958 159.589 109.428C159.589 109.528 159.589 109.621 159.625 109.721C159.697 110.283 159.747 110.845 159.79 111.407V111.869C159.818 112.295 159.84 112.718 159.854 113.139C159.854 113.316 159.854 113.501 159.854 113.678C159.854 114.14 159.854 114.602 159.854 115.071V115.387C159.854 115.564 159.854 115.741 159.854 115.91C159.854 116.426 159.811 116.95 159.768 117.45C159.768 117.696 159.718 117.943 159.697 118.22C159.654 118.656 159.604 119.095 159.546 119.536C159.546 119.806 159.468 120.075 159.425 120.306C159.36 120.73 159.289 121.153 159.21 121.569C159.16 121.838 159.102 122.108 159.052 122.339C158.959 122.77 158.859 123.201 158.752 123.624C158.68 123.894 158.615 124.163 158.544 124.44L158.372 125.033C158.265 125.41 158.15 125.803 158.028 126.157C157.964 126.365 157.892 126.565 157.821 126.773C157.692 127.158 157.549 127.543 157.398 127.928C157.334 128.105 157.269 128.282 157.198 128.459C156.976 129.013 156.747 129.568 156.482 130.114L159.31 123.917C159.561 123.37 159.79 122.816 160.026 122.262C160.098 122.085 160.162 121.908 160.227 121.73C160.377 121.346 160.513 120.961 160.649 120.576C160.721 120.376 160.785 120.168 160.857 119.967C160.978 119.59 161.093 119.198 161.2 118.843L161.372 118.243L161.458 117.95C161.501 117.781 161.537 117.604 161.58 117.427C161.68 117.004 161.787 116.58 161.873 116.149C161.931 115.88 161.988 115.618 162.038 115.379C162.117 114.956 162.188 114.532 162.253 114.117C162.296 113.847 162.339 113.578 162.375 113.347C162.432 112.908 162.482 112.469 162.525 112.022C162.525 111.776 162.575 111.53 162.596 111.253C162.639 110.737 162.661 110.221 162.682 109.713C162.682 109.567 162.682 109.42 162.682 109.274V108.866C162.682 108.404 162.682 107.935 162.682 107.473C162.682 107.296 162.682 107.118 162.682 106.941C162.682 106.518 162.682 106.087 162.618 105.663C162.618 105.509 162.618 105.355 162.618 105.209C162.618 104.64 162.525 104.078 162.46 103.516C162.46 103.423 162.46 103.323 162.425 103.223C162.367 102.761 162.303 102.291 162.224 101.822L162.138 101.298C162.067 100.883 161.988 100.467 161.902 100.051C161.902 99.8972 161.845 99.7432 161.809 99.5892C161.687 99.0349 161.558 98.4806 161.422 97.934C161.394 97.8482 161.37 97.7608 161.351 97.6723C161.222 97.2104 161.093 96.7484 160.95 96.2865C160.9 96.1171 160.849 95.9478 160.792 95.7784C160.692 95.3319 160.556 94.9316 160.42 94.5312Z" fill="black"/>
<path d="M104.328 150.254C103.612 149.884 102.947 149.484 102.273 149.107L101.672 148.745C101.178 148.445 100.691 148.144 100.24 147.829L99.6529 147.452C99.03 147.036 98.4142 146.612 97.8128 146.174L97.7412 146.127C97.1159 145.665 96.5073 145.196 95.9154 144.719L95.3855 144.287C94.9488 143.933 94.5192 143.564 94.0896 143.194L93.5741 142.74C93.0442 142.263 92.5215 141.785 92.0132 141.293L91.8986 141.185C91.3545 140.654 90.8246 140.115 90.3091 139.56L89.858 139.075C89.4785 138.667 89.142 138.252 88.7482 137.828L88.2971 137.305C87.8532 136.781 87.4236 136.25 87.0012 135.719L86.8723 135.549C86.4069 134.957 85.963 134.356 85.5334 133.748L85.1611 133.217C84.846 132.763 84.5381 132.301 84.2374 131.839L83.8651 131.261C83.5071 130.699 83.1491 130.137 82.8341 129.568L82.698 129.337C82.3257 128.698 81.982 128.043 81.624 127.389C81.5238 127.204 81.4307 127.012 81.3376 126.819C81.0846 126.332 80.846 125.839 80.6216 125.341C80.5214 125.133 80.4211 124.925 80.3281 124.718C80.0631 124.132 79.8054 123.547 79.5548 122.955C79.5548 122.862 79.476 122.77 79.4331 122.67C79.1538 121.992 78.8889 121.299 78.6383 120.606C78.5667 120.414 78.5023 120.214 78.4378 120.021C78.2517 119.506 78.0798 118.982 77.9151 118.482C77.8435 118.258 77.7719 118.043 77.7075 117.82C77.5309 117.224 77.359 116.624 77.192 116.018C77.192 115.91 77.1275 115.795 77.0989 115.679C76.9127 114.971 76.7481 114.255 76.5977 113.539C76.5547 113.339 76.5118 113.139 76.476 112.946C76.3614 112.407 76.2612 111.861 76.1681 111.322C76.1681 111.099 76.0893 110.868 76.0535 110.644C75.9628 110.034 75.8769 109.425 75.7958 108.82C75.7958 108.697 75.7958 108.566 75.7457 108.443C75.6597 107.719 75.5953 106.988 75.5452 106.256C75.5452 106.056 75.5452 105.864 75.5452 105.663C75.5094 105.109 75.4807 104.563 75.4664 104.008V103.315C75.4664 102.715 75.4664 102.114 75.4664 101.506V101.09C75.4664 100.867 75.4664 100.644 75.4664 100.421C75.4664 99.7509 75.5237 99.0734 75.581 98.4036C75.581 98.088 75.6454 97.7646 75.6741 97.4413C75.7313 96.8716 75.7958 96.3019 75.8674 95.7322C75.9175 95.3935 75.9676 95.047 76.0249 94.7006C76.1108 94.1566 76.2039 93.61 76.3041 93.0608C76.3686 92.7143 76.4402 92.3679 76.5118 92.0215C76.6311 91.4672 76.76 90.9129 76.8984 90.3586C76.9915 90.0044 77.0703 89.6503 77.1705 89.3039C77.2707 88.9574 77.3137 88.7881 77.3925 88.534C77.5357 88.049 77.6789 87.564 77.8364 87.079C77.9295 86.8095 78.0154 86.5478 78.1013 86.3091C78.2803 85.801 78.4593 85.3083 78.6526 84.7694L78.9104 84.0842C79.2039 83.3605 79.5047 82.6446 79.8269 81.9363L76.9629 88.0952C76.6407 88.8111 76.3399 89.5271 76.0535 90.2431C75.9605 90.474 75.8745 90.705 75.7886 90.9283C75.5953 91.4287 75.4163 91.9291 75.2445 92.468C75.1514 92.7297 75.0655 92.9992 74.9795 93.2379C74.822 93.7229 74.6717 94.2079 74.5285 94.7006C74.4497 94.9547 74.3781 95.2164 74.3065 95.4705C74.3065 95.6013 74.2277 95.7245 74.1991 95.8554C74.1705 95.9863 74.0917 96.3019 74.0416 96.5329C73.8984 97.0872 73.7695 97.6338 73.6478 98.1881C73.5762 98.5345 73.5117 98.881 73.4401 99.2274C73.3399 99.7714 73.2468 100.318 73.1609 100.867C73.1036 101.214 73.0535 101.56 73.0034 101.907C72.9318 102.476 72.8673 103.046 72.8101 103.616C72.8101 103.931 72.7456 104.255 72.717 104.578C72.6669 105.248 72.6311 105.917 72.6024 106.587C72.6024 106.78 72.6024 106.965 72.6024 107.149C72.6024 107.188 72.6024 107.226 72.6024 107.265V107.68C72.6024 108.281 72.6024 108.881 72.6024 109.49C72.6024 109.721 72.6024 109.952 72.6024 110.183C72.6024 110.729 72.6454 111.283 72.6812 111.83C72.6812 112.03 72.6812 112.23 72.6812 112.423C72.7313 113.193 72.8029 113.886 72.8817 114.617C72.8817 114.74 72.8817 114.863 72.9318 114.994C73.0105 115.602 73.0965 116.211 73.1895 116.811C73.2253 117.042 73.2683 117.265 73.3041 117.496C73.3972 118.035 73.4974 118.574 73.612 119.113C73.612 119.313 73.6907 119.513 73.7337 119.713C73.8841 120.429 74.0559 121.145 74.2349 121.854L74.328 122.185C74.4927 122.793 74.6645 123.393 74.8435 123.994C74.9079 124.217 74.9795 124.433 75.0511 124.648C75.2158 125.172 75.3877 125.695 75.5738 126.188C75.6383 126.388 75.7099 126.581 75.7743 126.781C76.0321 127.474 76.2898 128.159 76.5691 128.844C76.612 128.936 76.655 129.029 76.6908 129.121C76.9414 129.714 77.1991 130.307 77.4641 130.892L77.7576 131.515C77.9963 132.029 78.2349 132.521 78.4736 132.994L78.76 133.563C79.1037 134.218 79.476 134.864 79.834 135.511L79.9701 135.742C80.2994 136.312 80.6431 136.874 81.0011 137.428L81.3734 138.005C81.6741 138.467 81.982 138.929 82.2971 139.383L82.6694 139.915C83.1061 140.523 83.5501 141.131 84.0083 141.724L84.1372 141.885C84.5596 142.424 84.9892 142.956 85.4331 143.479L85.8842 143.995C86.2494 144.418 86.6002 144.834 87.0012 145.25L87.4451 145.735C87.9678 146.281 88.4905 146.828 89.0346 147.351L89.142 147.459C89.6575 147.972 90.1802 148.457 90.7101 148.914L91.2327 149.368C91.6552 149.738 92.0848 150.1 92.5215 150.462L93.0514 150.893C93.6457 151.37 94.2542 151.84 94.8772 152.294L94.9488 152.34C95.5502 152.779 96.166 153.202 96.7889 153.618L97.376 154.003C97.8557 154.311 98.3426 154.619 98.808 154.911L99.4095 155.273C100.083 155.674 100.77 156.059 101.472 156.428C126.281 169.516 155.515 160.154 166.771 135.511L169.592 129.314C158.379 153.988 129.145 163.349 104.328 150.254Z" fill="#00A0B0"/>
<path d="M104.328 150.254C103.612 149.884 102.947 149.484 102.273 149.107L101.672 148.745C101.178 148.445 100.691 148.144 100.24 147.829L99.6529 147.452C99.03 147.036 98.4142 146.612 97.8128 146.174L97.7412 146.127C97.1159 145.665 96.5073 145.196 95.9154 144.719L95.3855 144.287C94.9488 143.933 94.5192 143.564 94.0896 143.194L93.5741 142.74C93.0442 142.263 92.5215 141.785 92.0132 141.293L91.8986 141.185C91.3545 140.654 90.8246 140.115 90.3091 139.56L89.858 139.075C89.4785 138.667 89.142 138.252 88.7482 137.828L88.2971 137.305C87.8532 136.781 87.4236 136.25 87.0012 135.719L86.8723 135.549C86.4069 134.957 85.963 134.356 85.5334 133.748L85.1611 133.217C84.846 132.763 84.5381 132.301 84.2374 131.839L83.8651 131.261C83.5071 130.699 83.1491 130.137 82.8341 129.568L82.698 129.337C82.3257 128.698 81.982 128.043 81.624 127.389C81.5238 127.204 81.4307 127.012 81.3376 126.819C81.0846 126.332 80.846 125.839 80.6216 125.341C80.5214 125.133 80.4211 124.925 80.3281 124.718C80.0631 124.132 79.8054 123.547 79.5548 122.955C79.5548 122.862 79.476 122.77 79.4331 122.67C79.1538 121.992 78.8889 121.299 78.6383 120.606C78.5667 120.414 78.5023 120.214 78.4378 120.021C78.2517 119.506 78.0798 118.982 77.9151 118.482C77.8435 118.258 77.7719 118.043 77.7075 117.82C77.5309 117.224 77.359 116.624 77.192 116.018C77.192 115.91 77.1275 115.795 77.0989 115.679C76.9127 114.971 76.7481 114.255 76.5977 113.539C76.5547 113.339 76.5118 113.139 76.476 112.946C76.3614 112.407 76.2612 111.861 76.1681 111.322C76.1681 111.099 76.0893 110.868 76.0535 110.644C75.9628 110.034 75.8769 109.425 75.7958 108.82C75.7958 108.697 75.7958 108.566 75.7457 108.443C75.6597 107.719 75.5953 106.988 75.5452 106.256C75.5452 106.056 75.5452 105.864 75.5452 105.663C75.5094 105.109 75.4807 104.563 75.4664 104.008V103.315C75.4664 102.715 75.4664 102.114 75.4664 101.506V101.09C75.4664 100.867 75.4664 100.644 75.4664 100.421C75.4664 99.7509 75.5237 99.0734 75.581 98.4036C75.581 98.088 75.6454 97.7646 75.6741 97.4413C75.7313 96.8716 75.7958 96.3019 75.8674 95.7322C75.9175 95.3935 75.9676 95.047 76.0249 94.7006C76.1108 94.1566 76.2039 93.61 76.3041 93.0608C76.3686 92.7143 76.4402 92.3679 76.5118 92.0215C76.6311 91.4672 76.76 90.9129 76.8984 90.3586C76.9915 90.0044 77.0703 89.6503 77.1705 89.3039C77.2707 88.9574 77.3137 88.7881 77.3925 88.534C77.5357 88.049 77.6789 87.564 77.8364 87.079C77.9295 86.8095 78.0154 86.5478 78.1013 86.3091C78.2803 85.801 78.4593 85.3083 78.6526 84.7694L78.9104 84.0842C79.2039 83.3605 79.5047 82.6446 79.8269 81.9363L76.9629 88.0952C76.6407 88.8111 76.3399 89.5271 76.0535 90.2431C75.9605 90.474 75.8745 90.705 75.7886 90.9283C75.5953 91.4287 75.4163 91.9291 75.2445 92.468C75.1514 92.7297 75.0655 92.9992 74.9795 93.2379C74.822 93.7229 74.6717 94.2079 74.5285 94.7006C74.4497 94.9547 74.3781 95.2164 74.3065 95.4705C74.3065 95.6013 74.2277 95.7245 74.1991 95.8554C74.1705 95.9863 74.0917 96.3019 74.0416 96.5329C73.8984 97.0872 73.7695 97.6338 73.6478 98.1881C73.5762 98.5345 73.5117 98.881 73.4401 99.2274C73.3399 99.7714 73.2468 100.318 73.1609 100.867C73.1036 101.214 73.0535 101.56 73.0034 101.907C72.9318 102.476 72.8673 103.046 72.8101 103.616C72.8101 103.931 72.7456 104.255 72.717 104.578C72.6669 105.248 72.6311 105.917 72.6024 106.587C72.6024 106.78 72.6024 106.965 72.6024 107.149C72.6024 107.188 72.6024 107.226 72.6024 107.265V107.68C72.6024 108.281 72.6024 108.881 72.6024 109.49C72.6024 109.721 72.6024 109.952 72.6024 110.183C72.6024 110.729 72.6454 111.283 72.6812 111.83C72.6812 112.03 72.6812 112.23 72.6812 112.423C72.7313 113.193 72.8029 113.886 72.8817 114.617C72.8817 114.74 72.8817 114.863 72.9318 114.994C73.0105 115.602 73.0965 116.211 73.1895 116.811C73.2253 117.042 73.2683 117.265 73.3041 117.496C73.3972 118.035 73.4974 118.574 73.612 119.113C73.612 119.313 73.6907 119.513 73.7337 119.713C73.8841 120.429 74.0559 121.145 74.2349 121.854L74.328 122.185C74.4927 122.793 74.6645 123.393 74.8435 123.994C74.9079 124.217 74.9795 124.433 75.0511 124.648C75.2158 125.172 75.3877 125.695 75.5738 126.188C75.6383 126.388 75.7099 126.581 75.7743 126.781C76.0321 127.474 76.2898 128.159 76.5691 128.844C76.612 128.936 76.655 129.029 76.6908 129.121C76.9414 129.714 77.1991 130.307 77.4641 130.892L77.7576 131.515C77.9963 132.029 78.2349 132.521 78.4736 132.994L78.76 133.563C79.1037 134.218 79.476 134.864 79.834 135.511L79.9701 135.742C80.2994 136.312 80.6431 136.874 81.0011 137.428L81.3734 138.005C81.6741 138.467 81.982 138.929 82.2971 139.383L82.6694 139.915C83.1061 140.523 83.5501 141.131 84.0083 141.724L84.1372 141.885C84.5596 142.424 84.9892 142.956 85.4331 143.479L85.8842 143.995C86.2494 144.418 86.6002 144.834 87.0012 145.25L87.4451 145.735C87.9678 146.281 88.4905 146.828 89.0346 147.351L89.142 147.459C89.6575 147.972 90.1802 148.457 90.7101 148.914L91.2327 149.368C91.6552 149.738 92.0848 150.1 92.5215 150.462L93.0514 150.893C93.6457 151.37 94.2542 151.84 94.8772 152.294L94.9488 152.34C95.5502 152.779 96.166 153.202 96.7889 153.618L97.376 154.003C97.8557 154.311 98.3426 154.619 98.808 154.911L99.4095 155.273C100.083 155.674 100.77 156.059 101.472 156.428C126.281 169.516 155.515 160.154 166.771 135.511L169.592 129.314C158.379 153.988 129.145 163.349 104.328 150.254Z" fill="black"/>
<path d="M93.975 61.866L93.5812 61.2193C95.3569 59.9711 97.2056 58.8473 99.1159 57.855L99.4309 58.5479C97.5461 59.5231 95.7235 60.6315 93.975 61.866ZM104.794 56.169L104.558 55.4453C113.08 52.3445 122.194 51.6136 131.049 53.3205L130.928 54.0904C122.193 52.4071 113.204 53.1221 104.794 56.169Z" fill="#00A0B0"/>
<path d="M79.7696 81.9363C91.0179 57.3007 120.245 47.9392 145.062 61.0345C169.878 74.1299 180.862 104.716 169.628 129.352C158.394 153.988 129.145 163.365 104.328 150.269C79.5118 137.174 68.5212 106.572 79.7696 81.9363ZM159.36 123.932C168.031 104.932 159.553 81.3204 140.408 71.2198C121.262 61.1192 98.7078 68.3482 90.037 87.3869C81.3663 106.426 89.8509 129.999 108.99 140.099C128.128 150.2 150.675 142.979 159.36 123.932Z" fill="#00A0B0"/>
<path d="M211.936 146.813L208.356 154.604C208.193 154.961 207.965 155.279 207.685 155.539C207.406 155.8 207.08 155.997 206.728 156.12C206.376 156.243 206.005 156.288 205.637 156.254C205.268 156.22 204.91 156.106 204.583 155.92L158.544 129.852L163.248 119.598L210.59 142.802C210.927 142.965 211.23 143.2 211.481 143.492C211.732 143.784 211.926 144.127 212.052 144.501C212.177 144.875 212.232 145.272 212.212 145.669C212.192 146.066 212.098 146.455 211.936 146.813Z" fill="#00A0B0"/>
<path d="M160.019 124.279C168.861 104.917 160.219 80.8585 140.687 70.5654C121.154 60.2724 98.1923 67.6399 89.3497 87.002C80.5071 106.364 89.1635 130.43 108.682 140.723C128.2 151.016 151.169 143.664 160.012 124.279" fill="white"/>
<path d="M140.708 70.55C135.899 68.0031 130.681 66.4692 125.336 66.0309L86.321 97.4182C85.5496 102.817 85.8695 108.331 87.2589 113.585L140.708 70.55Z" fill="white"/>
<path d="M198.439 132.416C195.532 131.292 193.535 133.371 191.523 134.449C191.179 134.633 191.279 135.727 191.967 135.834C192.381 135.94 192.811 135.954 193.231 135.875C193.65 135.797 194.051 135.629 194.408 135.38C195.124 136.088 197.688 137.274 199.564 135.141C199.51 134.116 199.111 133.147 198.439 132.416Z" fill="#B55B52"/>
<path d="M236.853 59.4409H235.192C235.162 59.4417 235.133 59.4353 235.106 59.4221C235.08 59.4089 235.056 59.3893 235.037 59.3648C235.019 59.3402 235.005 59.3115 234.999 59.2806C234.992 59.2498 234.992 59.2177 234.998 59.1869L235.829 55.0758C235.839 55.0282 235.863 54.9856 235.898 54.9549C235.933 54.9241 235.977 54.907 236.022 54.9064C236.067 54.9059 236.111 54.9227 236.145 54.9538C236.179 54.9849 236.202 55.0282 236.208 55.0758L237.039 59.1869C237.046 59.2174 237.046 59.2491 237.04 59.2798C237.034 59.3105 237.021 59.3392 237.003 59.3639C236.986 59.3889 236.963 59.409 236.937 59.4224C236.911 59.4358 236.882 59.4422 236.853 59.4409ZM235.421 59.0252H236.595L236.008 56.1151L235.421 59.0252Z" fill="white"/>
<path d="M188.838 36.5914L184.778 43.5201L184.134 43.0813C183.209 42.4989 182.384 41.7518 181.692 40.8718C181.165 40.1313 180.767 39.294 180.518 38.4006C180.11 36.5598 179.811 34.6929 179.623 32.8114C179.458 31.3255 179.057 30.3632 178.434 29.9475C178.176 29.7534 177.882 29.6207 177.572 29.5583C177.262 29.4959 176.943 29.5052 176.637 29.5856C175.963 29.8375 175.403 30.3546 175.069 31.033C174.825 31.4213 174.658 31.8599 174.579 32.3209C174.5 32.782 174.511 33.2557 174.611 33.7121C174.811 34.6436 175.527 35.6291 176.759 36.6838L171.79 43.2122C169.667 41.5755 168.178 39.1557 167.608 36.4143C167.098 33.766 167.842 30.7404 169.842 27.3376C171.394 24.6842 173.162 22.8878 175.148 21.9486C176.328 21.3148 177.641 21.0227 178.958 21.101C180.275 21.1793 181.551 21.6253 182.659 22.3951C183.633 23.0717 184.42 24.0186 184.936 25.1358C185.64 26.9548 186.054 28.8887 186.16 30.8559C186.224 32.1651 186.5 33.4522 186.976 34.659C187.436 35.4607 188.076 36.1252 188.838 36.5914ZM186.353 44.9213L190.699 37.4998L196.793 41.6263L192.439 49.0554L186.353 44.9213Z" fill="#00A0B0"/>
<path d="M246.304 18.4919L240.934 15.3509L241.228 14.7735C241.614 13.9501 242.127 13.2031 242.745 12.564C243.268 12.0715 243.87 11.6854 244.521 11.4246C245.876 10.9693 247.255 10.6068 248.652 10.3391C249.748 10.1158 250.442 9.73089 250.722 9.16889C250.854 8.94191 250.94 8.68741 250.975 8.42206C251.01 8.15671 250.992 7.88651 250.922 7.62916C250.703 7.05828 250.288 6.60042 249.762 6.35119C249.46 6.1609 249.125 6.03945 248.778 5.99442C248.431 5.94939 248.078 5.98173 247.743 6.08944C246.862 6.4977 246.127 7.19939 245.645 8.09108L240.533 4.18018C241.64 2.26839 243.363 0.8623 245.373 0.23079C247.321 -0.338908 249.612 0.146105 252.247 1.68583C254.047 2.61868 255.544 4.11298 256.543 5.97396C257.073 6.95721 257.356 8.07161 257.365 9.20796C257.373 10.3443 257.108 11.4636 256.593 12.4562C256.142 13.3329 255.475 14.0598 254.667 14.5579C253.35 15.2622 251.931 15.7179 250.471 15.9052C249.5 16.0245 248.557 16.3296 247.686 16.8059C247.098 17.2313 246.623 17.8119 246.304 18.4919ZM239.975 16.7751L245.703 20.1394L242.946 25.59L237.218 22.2257L239.975 16.7751Z" fill="#00A0B0"/>
<path d="M255.003 34.7052L253.571 29.7935L254.03 29.6395C254.665 29.4046 255.334 29.2874 256.006 29.2931C256.547 29.319 257.079 29.4548 257.574 29.6934C258.565 30.2308 259.521 30.8377 260.438 31.5103C260.676 31.7331 260.956 31.8979 261.259 31.9936C261.561 32.0893 261.88 32.1135 262.192 32.0646C262.385 32.0114 262.566 31.9154 262.722 31.7828C262.879 31.6503 263.008 31.484 263.101 31.2947C263.264 30.8467 263.264 30.3493 263.101 29.9013C263.029 29.617 262.902 29.352 262.73 29.1228C262.557 28.8936 262.342 28.7052 262.099 28.5694C261.398 28.2827 260.63 28.2449 259.908 28.4616L259.027 23.2574C260.62 22.8334 262.303 23.0554 263.753 23.8809C265.132 24.697 266.173 26.3111 266.875 28.7234C267.407 30.2992 267.484 32.0112 267.097 33.6351C266.893 34.4964 266.484 35.2858 265.91 35.9257C265.336 36.5655 264.618 37.0337 263.824 37.2842C263.127 37.5159 262.383 37.5346 261.677 37.3381C260.58 36.9593 259.552 36.3841 258.634 35.6367C258.028 35.1336 257.345 34.7504 256.614 34.505C256.07 34.427 255.517 34.4958 255.003 34.7052ZM252.318 30.0322L253.843 35.2903L249.547 36.7376L248.022 31.4795L252.318 30.0322Z" fill="#00A0B0"/>
</svg>
