<svg width="22" height="22" viewBox="0 0 22 22" fill="none" xmlns="http://www.w3.org/2000/svg">
<path d="M14.8437 1.89103e-07C13.7458 -0.000251606 12.663 0.256692 11.6822 0.750241C10.7014 1.24379 9.84989 1.96022 9.19583 2.84212C8.54177 3.72402 8.10338 4.74687 7.9158 5.8287C7.72822 6.91053 7.79665 8.02126 8.11562 9.07188L0 17.1875V21.875H4.6875L12.8031 13.7594C13.7702 14.0529 14.7893 14.1345 15.7908 13.9987C16.7923 13.8628 17.7527 13.5126 18.6066 12.9719C19.4606 12.4313 20.1879 11.7129 20.7391 10.8657C21.2902 10.0185 21.6523 9.06251 21.8006 8.06276C21.9488 7.06301 21.8798 6.04305 21.5983 5.07238C21.3167 4.10171 20.8292 3.20315 20.1689 2.43794C19.5087 1.67273 18.6912 1.05885 17.7722 0.638133C16.8533 0.217421 15.8544 -0.000234198 14.8437 1.89103e-07ZM14.8437 12.5C14.3059 12.4997 13.771 12.4202 13.2562 12.2641L12.3602 11.9922L9.21328 15.1391L8.13594 14.0625L7.03125 15.1672L8.10859 16.2445L6.86953 17.4836L5.79219 16.4062L4.6875 17.5109L5.76484 18.5883L4.04062 20.3125H1.5625V17.8344L9.88281 9.51484L9.61094 8.61875C9.27702 7.51796 9.29871 6.33991 9.67293 5.25216C10.0472 4.16441 10.7548 3.22237 11.6953 2.56002C12.6358 1.89768 13.7612 1.54876 14.9115 1.56291C16.0617 1.57707 17.1782 1.95356 18.1021 2.63884C19.026 3.32413 19.7103 4.2833 20.0577 5.37992C20.405 6.47655 20.3977 7.65478 20.0368 8.74702C19.6759 9.83926 18.9798 10.7899 18.0475 11.4637C17.1151 12.1375 15.9941 12.5001 14.8437 12.5Z" fill="#3F4345"/>
<path d="M15.625 7.8125C16.4879 7.8125 17.1875 7.11295 17.1875 6.25C17.1875 5.38706 16.4879 4.6875 15.625 4.6875C14.7621 4.6875 14.0625 5.38706 14.0625 6.25C14.0625 7.11295 14.7621 7.8125 15.625 7.8125Z" fill="#3F4345"/>
</svg>
