<svg width="16" height="25" viewBox="0 0 16 25" fill="none" xmlns="http://www.w3.org/2000/svg">
<path d="M13.2812 0H2.34375C1.05469 0 0 1.05469 0 2.34375V22.6562C0 23.9453 1.05469 25 2.34375 25H13.2812C14.5703 25 15.625 23.9453 15.625 22.6562V2.34375C15.625 1.05469 14.5703 0 13.2812 0ZM7.8125 23.4375C6.94844 23.4375 6.25 22.7391 6.25 21.875C6.25 21.0109 6.94844 20.3125 7.8125 20.3125C8.67656 20.3125 9.375 21.0109 9.375 21.875C9.375 22.7391 8.67656 23.4375 7.8125 23.4375ZM14.0625 18.75H1.5625V3.125H14.0625V18.75Z" fill="#3F4345"/>
</svg>
