<svg width="27" height="27" viewBox="0 0 27 27" fill="none" xmlns="http://www.w3.org/2000/svg">
<path d="M26 26L20.0978 20.0875L26 26ZM23.3684 12.1842C23.3684 18.3611 18.3611 23.3684 12.1842 23.3684C6.00734 23.3684 1 18.3611 1 12.1842C1 6.00734 6.00734 1 12.1842 1C18.3611 1 23.3684 6.00734 23.3684 12.1842Z" fill="#FBFAFA"/>
<path d="M26 26L20.0978 20.0875M23.3684 12.1842C23.3684 18.3611 18.3611 23.3684 12.1842 23.3684C6.00734 23.3684 1 18.3611 1 12.1842C1 6.00734 6.00734 1 12.1842 1C18.3611 1 23.3684 6.00734 23.3684 12.1842Z" stroke="#3F4345" stroke-width="2" stroke-linecap="round"/>
</svg>
