<svg width="25" height="25" viewBox="0 0 25 25" fill="none" xmlns="http://www.w3.org/2000/svg">
<mask id="path-1-inside-1_240_775" fill="white">
<path d="M8.2667 24.9881C7.6568 24.9845 7.06461 24.7828 6.57941 24.4134L3.99223 22.4893C3.3952 22.0239 2.99905 21.3478 2.88516 20.5996C2.77126 19.8514 2.94826 19.088 3.37981 18.4662C3.60814 18.1292 3.75325 17.7428 3.80322 17.3388C3.85319 16.9349 3.8066 16.5248 3.66727 16.1423L3.59228 15.9424C3.49527 15.5962 3.31795 15.2778 3.07473 15.0129C2.83151 14.7481 2.52924 14.5443 2.19246 14.4181H1.99248C1.26241 14.1727 0.658661 13.6493 0.312329 12.9616C-0.0340037 12.2738 -0.0949539 11.4773 0.142714 10.7449L1.16759 7.49643C1.26193 7.12006 1.43562 6.76818 1.67704 6.46437C1.91846 6.16055 2.22202 5.91179 2.56741 5.73477C2.88906 5.5691 3.24099 5.47039 3.6019 5.44462C3.96282 5.41885 4.32521 5.46655 4.66715 5.58484C5.03946 5.71009 5.43673 5.74256 5.82445 5.67942C6.21217 5.61627 6.57859 5.45943 6.89187 5.22251L7.05435 5.09757C7.33793 4.87137 7.56712 4.58444 7.72503 4.25793C7.88294 3.93141 7.96554 3.57364 7.96674 3.21097V2.91111C7.96338 2.14664 8.26226 1.41179 8.79832 0.866566C9.33438 0.321337 10.0642 0.00987813 10.8289 0H14.016C14.388 0.00100226 14.7562 0.0754693 15.0994 0.219124C15.4426 0.36278 15.754 0.572792 16.0157 0.837101C16.566 1.39657 16.8717 2.15151 16.8656 2.9361V3.28593C16.8593 3.63046 16.934 3.97165 17.0838 4.282C17.2336 4.59234 17.4543 4.86315 17.728 5.07258L17.8655 5.17253C18.146 5.38281 18.4732 5.52217 18.8193 5.57873C19.1653 5.6353 19.5198 5.60739 19.8528 5.49738L20.2777 5.35995C20.6377 5.24064 21.0181 5.19505 21.3962 5.22588C21.7742 5.25671 22.1422 5.36334 22.4781 5.53941C22.814 5.71548 23.111 5.95738 23.3514 6.25067C23.5918 6.54397 23.7706 6.88266 23.8773 7.24655L24.8646 10.395C25.0931 11.1227 25.0306 11.9105 24.6904 12.5931C24.3501 13.2757 23.7586 13.8 23.0399 14.0558L22.7899 14.1433C22.4222 14.2636 22.0898 14.4724 21.8217 14.7512C21.5537 15.0301 21.3582 15.3705 21.2526 15.7425C21.1531 16.0883 21.1295 16.4516 21.1834 16.8074C21.2374 17.1632 21.3675 17.5032 21.565 17.804L21.89 18.2788C22.3209 18.904 22.4963 19.6704 22.3801 20.4208C22.2639 21.1711 21.865 21.8486 21.2651 22.3144L18.7529 24.2509C18.4494 24.483 18.1016 24.6504 17.7309 24.743C17.3602 24.8356 16.9745 24.8514 16.5975 24.7894C16.2205 24.7273 15.8601 24.5888 15.5387 24.3823C15.2173 24.1759 14.9415 23.9058 14.7284 23.5888L14.5784 23.3764C14.3737 23.0688 14.0944 22.8182 13.7666 22.6478C13.4387 22.4773 13.073 22.3927 12.7036 22.4018C12.3512 22.411 12.0058 22.5028 11.6953 22.6699C11.3848 22.837 11.118 23.0747 10.9164 23.3639L10.6289 23.7762C10.4157 24.0954 10.1394 24.3677 9.81699 24.5761C9.49456 24.7845 9.13284 24.9247 8.75414 24.9881C8.59205 25.004 8.42879 25.004 8.2667 24.9881ZM3.00486 12.0193C3.71063 12.2709 4.34747 12.6845 4.86412 13.2271C5.38078 13.7696 5.76281 14.4257 5.97949 15.1428V15.2927C6.24937 16.0381 6.33799 16.8371 6.23802 17.6235C6.13805 18.4099 5.85237 19.1613 5.40456 19.8156C5.32551 19.9029 5.28174 20.0164 5.28174 20.1342C5.28174 20.2519 5.32551 20.3655 5.40456 20.4528L8.09172 22.4893C8.12678 22.5168 8.16732 22.5365 8.21063 22.5471C8.25394 22.5577 8.29901 22.5588 8.34281 22.5506C8.38662 22.5423 8.42814 22.5247 8.46459 22.4991C8.50105 22.4734 8.53159 22.4403 8.55416 22.4018L8.84163 21.9895C9.27518 21.3633 9.85418 20.8515 10.529 20.498C11.2038 20.1445 11.9543 19.9598 12.7161 19.9598C13.478 19.9598 14.2285 20.1445 14.9033 20.498C15.5781 20.8515 16.1571 21.3633 16.5907 21.9895L16.7406 22.2144C16.7944 22.2906 16.8746 22.3441 16.9656 22.3643C17.0074 22.3705 17.0499 22.3681 17.0907 22.3574C17.1316 22.3467 17.1698 22.3278 17.2031 22.3019L19.7778 20.3528C19.8679 20.2813 19.9272 20.178 19.9435 20.0641C19.9597 19.9502 19.9317 19.8345 19.8653 19.7406L19.5403 19.2658C19.1169 18.6486 18.8375 17.9442 18.7229 17.2047C18.6082 16.4651 18.6612 15.7092 18.8779 14.9929C19.0975 14.2399 19.4948 13.5507 20.0364 12.9833C20.578 12.4158 21.248 11.9867 21.99 11.7319L22.24 11.6445C22.3441 11.6027 22.4276 11.5215 22.4721 11.4185C22.5166 11.3155 22.5185 11.1991 22.4774 11.0947L21.5025 7.9837C21.4791 7.92926 21.4449 7.88015 21.4019 7.83935C21.359 7.79854 21.3082 7.76689 21.2526 7.74631C21.2158 7.72765 21.1751 7.71793 21.1338 7.71793C21.0926 7.71793 21.0519 7.72765 21.0151 7.74631L20.5902 7.88374C19.8713 8.12091 19.1056 8.18001 18.3589 8.05595C17.6121 7.9319 16.9067 7.62842 16.3032 7.17158L16.2532 7.05914C15.6741 6.62075 15.2046 6.05413 14.8815 5.40378C14.5583 4.75344 14.3904 4.03707 14.3909 3.31092V2.92361C14.3932 2.80318 14.3484 2.68663 14.266 2.59876C14.194 2.5338 14.1004 2.49814 14.0035 2.49881H10.8289C10.778 2.50199 10.7282 2.51519 10.6824 2.53765C10.6366 2.56011 10.5957 2.59139 10.562 2.6297C10.5283 2.66801 10.5025 2.71259 10.4861 2.76088C10.4697 2.80917 10.463 2.86023 10.4664 2.91111V3.22346C10.4665 3.96941 10.2953 4.70541 9.96588 5.37475C9.63651 6.0441 9.15781 6.62891 8.56666 7.08412L8.40418 7.20906C7.76642 7.69447 7.01901 8.01559 6.22782 8.14414C5.43664 8.27269 4.62596 8.20472 3.86725 7.94621C3.81048 7.92717 3.74904 7.92717 3.69227 7.94621C3.62173 7.98905 3.56861 8.05543 3.54229 8.13363L2.50492 11.3946C2.46876 11.5056 2.47723 11.6264 2.52855 11.7313C2.57986 11.8363 2.67 11.9171 2.77988 11.9568L3.00486 12.0193Z"/>
<path d="M12.5036 16.867C11.6384 16.867 10.7927 16.6105 10.0733 16.13C9.35392 15.6495 8.79324 14.9665 8.46215 14.1675C8.13105 13.3684 8.04443 12.4892 8.21321 11.6409C8.382 10.7927 8.79863 10.0135 9.41041 9.40193C10.0222 8.79036 10.8016 8.37388 11.6502 8.20515C12.4988 8.03642 13.3783 8.12302 14.1776 8.454C14.977 8.78497 15.6602 9.34546 16.1408 10.0646C16.6215 10.7837 16.8781 11.6292 16.8781 12.494C16.8781 13.6538 16.4172 14.7661 15.5968 15.5862C14.7765 16.4062 13.6638 16.867 12.5036 16.867ZM12.5036 10.6199C12.1328 10.6199 11.7704 10.7299 11.4621 10.9358C11.1537 11.1417 10.9135 11.4344 10.7716 11.7769C10.6297 12.1193 10.5925 12.4961 10.6649 12.8597C10.7372 13.2232 10.9158 13.5571 11.178 13.8192C11.4401 14.0813 11.7742 14.2598 12.1379 14.3321C12.5015 14.4045 12.8785 14.3673 13.2211 14.2255C13.5636 14.0836 13.8564 13.8434 14.0624 13.5352C14.2684 13.227 14.3784 12.8647 14.3784 12.494C14.3784 11.997 14.1809 11.5203 13.8293 11.1689C13.4777 10.8174 13.0008 10.6199 12.5036 10.6199Z"/>
</mask>
<path d="M8.2667 24.9881C7.6568 24.9845 7.06461 24.7828 6.57941 24.4134L3.99223 22.4893C3.3952 22.0239 2.99905 21.3478 2.88516 20.5996C2.77126 19.8514 2.94826 19.088 3.37981 18.4662C3.60814 18.1292 3.75325 17.7428 3.80322 17.3388C3.85319 16.9349 3.8066 16.5248 3.66727 16.1423L3.59228 15.9424C3.49527 15.5962 3.31795 15.2778 3.07473 15.0129C2.83151 14.7481 2.52924 14.5443 2.19246 14.4181H1.99248C1.26241 14.1727 0.658661 13.6493 0.312329 12.9616C-0.0340037 12.2738 -0.0949539 11.4773 0.142714 10.7449L1.16759 7.49643C1.26193 7.12006 1.43562 6.76818 1.67704 6.46437C1.91846 6.16055 2.22202 5.91179 2.56741 5.73477C2.88906 5.5691 3.24099 5.47039 3.6019 5.44462C3.96282 5.41885 4.32521 5.46655 4.66715 5.58484C5.03946 5.71009 5.43673 5.74256 5.82445 5.67942C6.21217 5.61627 6.57859 5.45943 6.89187 5.22251L7.05435 5.09757C7.33793 4.87137 7.56712 4.58444 7.72503 4.25793C7.88294 3.93141 7.96554 3.57364 7.96674 3.21097V2.91111C7.96338 2.14664 8.26226 1.41179 8.79832 0.866566C9.33438 0.321337 10.0642 0.00987813 10.8289 0H14.016C14.388 0.00100226 14.7562 0.0754693 15.0994 0.219124C15.4426 0.36278 15.754 0.572792 16.0157 0.837101C16.566 1.39657 16.8717 2.15151 16.8656 2.9361V3.28593C16.8593 3.63046 16.934 3.97165 17.0838 4.282C17.2336 4.59234 17.4543 4.86315 17.728 5.07258L17.8655 5.17253C18.146 5.38281 18.4732 5.52217 18.8193 5.57873C19.1653 5.6353 19.5198 5.60739 19.8528 5.49738L20.2777 5.35995C20.6377 5.24064 21.0181 5.19505 21.3962 5.22588C21.7742 5.25671 22.1422 5.36334 22.4781 5.53941C22.814 5.71548 23.111 5.95738 23.3514 6.25067C23.5918 6.54397 23.7706 6.88266 23.8773 7.24655L24.8646 10.395C25.0931 11.1227 25.0306 11.9105 24.6904 12.5931C24.3501 13.2757 23.7586 13.8 23.0399 14.0558L22.7899 14.1433C22.4222 14.2636 22.0898 14.4724 21.8217 14.7512C21.5537 15.0301 21.3582 15.3705 21.2526 15.7425C21.1531 16.0883 21.1295 16.4516 21.1834 16.8074C21.2374 17.1632 21.3675 17.5032 21.565 17.804L21.89 18.2788C22.3209 18.904 22.4963 19.6704 22.3801 20.4208C22.2639 21.1711 21.865 21.8486 21.2651 22.3144L18.7529 24.2509C18.4494 24.483 18.1016 24.6504 17.7309 24.743C17.3602 24.8356 16.9745 24.8514 16.5975 24.7894C16.2205 24.7273 15.8601 24.5888 15.5387 24.3823C15.2173 24.1759 14.9415 23.9058 14.7284 23.5888L14.5784 23.3764C14.3737 23.0688 14.0944 22.8182 13.7666 22.6478C13.4387 22.4773 13.073 22.3927 12.7036 22.4018C12.3512 22.411 12.0058 22.5028 11.6953 22.6699C11.3848 22.837 11.118 23.0747 10.9164 23.3639L10.6289 23.7762C10.4157 24.0954 10.1394 24.3677 9.81699 24.5761C9.49456 24.7845 9.13284 24.9247 8.75414 24.9881C8.59205 25.004 8.42879 25.004 8.2667 24.9881ZM3.00486 12.0193C3.71063 12.2709 4.34747 12.6845 4.86412 13.2271C5.38078 13.7696 5.76281 14.4257 5.97949 15.1428V15.2927C6.24937 16.0381 6.33799 16.8371 6.23802 17.6235C6.13805 18.4099 5.85237 19.1613 5.40456 19.8156C5.32551 19.9029 5.28174 20.0164 5.28174 20.1342C5.28174 20.2519 5.32551 20.3655 5.40456 20.4528L8.09172 22.4893C8.12678 22.5168 8.16732 22.5365 8.21063 22.5471C8.25394 22.5577 8.29901 22.5588 8.34281 22.5506C8.38662 22.5423 8.42814 22.5247 8.46459 22.4991C8.50105 22.4734 8.53159 22.4403 8.55416 22.4018L8.84163 21.9895C9.27518 21.3633 9.85418 20.8515 10.529 20.498C11.2038 20.1445 11.9543 19.9598 12.7161 19.9598C13.478 19.9598 14.2285 20.1445 14.9033 20.498C15.5781 20.8515 16.1571 21.3633 16.5907 21.9895L16.7406 22.2144C16.7944 22.2906 16.8746 22.3441 16.9656 22.3643C17.0074 22.3705 17.0499 22.3681 17.0907 22.3574C17.1316 22.3467 17.1698 22.3278 17.2031 22.3019L19.7778 20.3528C19.8679 20.2813 19.9272 20.178 19.9435 20.0641C19.9597 19.9502 19.9317 19.8345 19.8653 19.7406L19.5403 19.2658C19.1169 18.6486 18.8375 17.9442 18.7229 17.2047C18.6082 16.4651 18.6612 15.7092 18.8779 14.9929C19.0975 14.2399 19.4948 13.5507 20.0364 12.9833C20.578 12.4158 21.248 11.9867 21.99 11.7319L22.24 11.6445C22.3441 11.6027 22.4276 11.5215 22.4721 11.4185C22.5166 11.3155 22.5185 11.1991 22.4774 11.0947L21.5025 7.9837C21.4791 7.92926 21.4449 7.88015 21.4019 7.83935C21.359 7.79854 21.3082 7.76689 21.2526 7.74631C21.2158 7.72765 21.1751 7.71793 21.1338 7.71793C21.0926 7.71793 21.0519 7.72765 21.0151 7.74631L20.5902 7.88374C19.8713 8.12091 19.1056 8.18001 18.3589 8.05595C17.6121 7.9319 16.9067 7.62842 16.3032 7.17158L16.2532 7.05914C15.6741 6.62075 15.2046 6.05413 14.8815 5.40378C14.5583 4.75344 14.3904 4.03707 14.3909 3.31092V2.92361C14.3932 2.80318 14.3484 2.68663 14.266 2.59876C14.194 2.5338 14.1004 2.49814 14.0035 2.49881H10.8289C10.778 2.50199 10.7282 2.51519 10.6824 2.53765C10.6366 2.56011 10.5957 2.59139 10.562 2.6297C10.5283 2.66801 10.5025 2.71259 10.4861 2.76088C10.4697 2.80917 10.463 2.86023 10.4664 2.91111V3.22346C10.4665 3.96941 10.2953 4.70541 9.96588 5.37475C9.63651 6.0441 9.15781 6.62891 8.56666 7.08412L8.40418 7.20906C7.76642 7.69447 7.01901 8.01559 6.22782 8.14414C5.43664 8.27269 4.62596 8.20472 3.86725 7.94621C3.81048 7.92717 3.74904 7.92717 3.69227 7.94621C3.62173 7.98905 3.56861 8.05543 3.54229 8.13363L2.50492 11.3946C2.46876 11.5056 2.47723 11.6264 2.52855 11.7313C2.57986 11.8363 2.67 11.9171 2.77988 11.9568L3.00486 12.0193Z" fill="#3F4345"/>
<path d="M12.5036 16.867C11.6384 16.867 10.7927 16.6105 10.0733 16.13C9.35392 15.6495 8.79324 14.9665 8.46215 14.1675C8.13105 13.3684 8.04443 12.4892 8.21321 11.6409C8.382 10.7927 8.79863 10.0135 9.41041 9.40193C10.0222 8.79036 10.8016 8.37388 11.6502 8.20515C12.4988 8.03642 13.3783 8.12302 14.1776 8.454C14.977 8.78497 15.6602 9.34546 16.1408 10.0646C16.6215 10.7837 16.8781 11.6292 16.8781 12.494C16.8781 13.6538 16.4172 14.7661 15.5968 15.5862C14.7765 16.4062 13.6638 16.867 12.5036 16.867ZM12.5036 10.6199C12.1328 10.6199 11.7704 10.7299 11.4621 10.9358C11.1537 11.1417 10.9135 11.4344 10.7716 11.7769C10.6297 12.1193 10.5925 12.4961 10.6649 12.8597C10.7372 13.2232 10.9158 13.5571 11.178 13.8192C11.4401 14.0813 11.7742 14.2598 12.1379 14.3321C12.5015 14.4045 12.8785 14.3673 13.2211 14.2255C13.5636 14.0836 13.8564 13.8434 14.0624 13.5352C14.2684 13.227 14.3784 12.8647 14.3784 12.494C14.3784 11.997 14.1809 11.5203 13.8293 11.1689C13.4777 10.8174 13.0008 10.6199 12.5036 10.6199Z" fill="#3F4345"/>
<path d="M8.2667 24.9881C7.6568 24.9845 7.06461 24.7828 6.57941 24.4134L3.99223 22.4893C3.3952 22.0239 2.99905 21.3478 2.88516 20.5996C2.77126 19.8514 2.94826 19.088 3.37981 18.4662C3.60814 18.1292 3.75325 17.7428 3.80322 17.3388C3.85319 16.9349 3.8066 16.5248 3.66727 16.1423L3.59228 15.9424C3.49527 15.5962 3.31795 15.2778 3.07473 15.0129C2.83151 14.7481 2.52924 14.5443 2.19246 14.4181H1.99248C1.26241 14.1727 0.658661 13.6493 0.312329 12.9616C-0.0340037 12.2738 -0.0949539 11.4773 0.142714 10.7449L1.16759 7.49643C1.26193 7.12006 1.43562 6.76818 1.67704 6.46437C1.91846 6.16055 2.22202 5.91179 2.56741 5.73477C2.88906 5.5691 3.24099 5.47039 3.6019 5.44462C3.96282 5.41885 4.32521 5.46655 4.66715 5.58484C5.03946 5.71009 5.43673 5.74256 5.82445 5.67942C6.21217 5.61627 6.57859 5.45943 6.89187 5.22251L7.05435 5.09757C7.33793 4.87137 7.56712 4.58444 7.72503 4.25793C7.88294 3.93141 7.96554 3.57364 7.96674 3.21097V2.91111C7.96338 2.14664 8.26226 1.41179 8.79832 0.866566C9.33438 0.321337 10.0642 0.00987813 10.8289 0H14.016C14.388 0.00100226 14.7562 0.0754693 15.0994 0.219124C15.4426 0.36278 15.754 0.572792 16.0157 0.837101C16.566 1.39657 16.8717 2.15151 16.8656 2.9361V3.28593C16.8593 3.63046 16.934 3.97165 17.0838 4.282C17.2336 4.59234 17.4543 4.86315 17.728 5.07258L17.8655 5.17253C18.146 5.38281 18.4732 5.52217 18.8193 5.57873C19.1653 5.6353 19.5198 5.60739 19.8528 5.49738L20.2777 5.35995C20.6377 5.24064 21.0181 5.19505 21.3962 5.22588C21.7742 5.25671 22.1422 5.36334 22.4781 5.53941C22.814 5.71548 23.111 5.95738 23.3514 6.25067C23.5918 6.54397 23.7706 6.88266 23.8773 7.24655L24.8646 10.395C25.0931 11.1227 25.0306 11.9105 24.6904 12.5931C24.3501 13.2757 23.7586 13.8 23.0399 14.0558L22.7899 14.1433C22.4222 14.2636 22.0898 14.4724 21.8217 14.7512C21.5537 15.0301 21.3582 15.3705 21.2526 15.7425C21.1531 16.0883 21.1295 16.4516 21.1834 16.8074C21.2374 17.1632 21.3675 17.5032 21.565 17.804L21.89 18.2788C22.3209 18.904 22.4963 19.6704 22.3801 20.4208C22.2639 21.1711 21.865 21.8486 21.2651 22.3144L18.7529 24.2509C18.4494 24.483 18.1016 24.6504 17.7309 24.743C17.3602 24.8356 16.9745 24.8514 16.5975 24.7894C16.2205 24.7273 15.8601 24.5888 15.5387 24.3823C15.2173 24.1759 14.9415 23.9058 14.7284 23.5888L14.5784 23.3764C14.3737 23.0688 14.0944 22.8182 13.7666 22.6478C13.4387 22.4773 13.073 22.3927 12.7036 22.4018C12.3512 22.411 12.0058 22.5028 11.6953 22.6699C11.3848 22.837 11.118 23.0747 10.9164 23.3639L10.6289 23.7762C10.4157 24.0954 10.1394 24.3677 9.81699 24.5761C9.49456 24.7845 9.13284 24.9247 8.75414 24.9881C8.59205 25.004 8.42879 25.004 8.2667 24.9881ZM3.00486 12.0193C3.71063 12.2709 4.34747 12.6845 4.86412 13.2271C5.38078 13.7696 5.76281 14.4257 5.97949 15.1428V15.2927C6.24937 16.0381 6.33799 16.8371 6.23802 17.6235C6.13805 18.4099 5.85237 19.1613 5.40456 19.8156C5.32551 19.9029 5.28174 20.0164 5.28174 20.1342C5.28174 20.2519 5.32551 20.3655 5.40456 20.4528L8.09172 22.4893C8.12678 22.5168 8.16732 22.5365 8.21063 22.5471C8.25394 22.5577 8.29901 22.5588 8.34281 22.5506C8.38662 22.5423 8.42814 22.5247 8.46459 22.4991C8.50105 22.4734 8.53159 22.4403 8.55416 22.4018L8.84163 21.9895C9.27518 21.3633 9.85418 20.8515 10.529 20.498C11.2038 20.1445 11.9543 19.9598 12.7161 19.9598C13.478 19.9598 14.2285 20.1445 14.9033 20.498C15.5781 20.8515 16.1571 21.3633 16.5907 21.9895L16.7406 22.2144C16.7944 22.2906 16.8746 22.3441 16.9656 22.3643C17.0074 22.3705 17.0499 22.3681 17.0907 22.3574C17.1316 22.3467 17.1698 22.3278 17.2031 22.3019L19.7778 20.3528C19.8679 20.2813 19.9272 20.178 19.9435 20.0641C19.9597 19.9502 19.9317 19.8345 19.8653 19.7406L19.5403 19.2658C19.1169 18.6486 18.8375 17.9442 18.7229 17.2047C18.6082 16.4651 18.6612 15.7092 18.8779 14.9929C19.0975 14.2399 19.4948 13.5507 20.0364 12.9833C20.578 12.4158 21.248 11.9867 21.99 11.7319L22.24 11.6445C22.3441 11.6027 22.4276 11.5215 22.4721 11.4185C22.5166 11.3155 22.5185 11.1991 22.4774 11.0947L21.5025 7.9837C21.4791 7.92926 21.4449 7.88015 21.4019 7.83935C21.359 7.79854 21.3082 7.76689 21.2526 7.74631C21.2158 7.72765 21.1751 7.71793 21.1338 7.71793C21.0926 7.71793 21.0519 7.72765 21.0151 7.74631L20.5902 7.88374C19.8713 8.12091 19.1056 8.18001 18.3589 8.05595C17.6121 7.9319 16.9067 7.62842 16.3032 7.17158L16.2532 7.05914C15.6741 6.62075 15.2046 6.05413 14.8815 5.40378C14.5583 4.75344 14.3904 4.03707 14.3909 3.31092V2.92361C14.3932 2.80318 14.3484 2.68663 14.266 2.59876C14.194 2.5338 14.1004 2.49814 14.0035 2.49881H10.8289C10.778 2.50199 10.7282 2.51519 10.6824 2.53765C10.6366 2.56011 10.5957 2.59139 10.562 2.6297C10.5283 2.66801 10.5025 2.71259 10.4861 2.76088C10.4697 2.80917 10.463 2.86023 10.4664 2.91111V3.22346C10.4665 3.96941 10.2953 4.70541 9.96588 5.37475C9.63651 6.0441 9.15781 6.62891 8.56666 7.08412L8.40418 7.20906C7.76642 7.69447 7.01901 8.01559 6.22782 8.14414C5.43664 8.27269 4.62596 8.20472 3.86725 7.94621C3.81048 7.92717 3.74904 7.92717 3.69227 7.94621C3.62173 7.98905 3.56861 8.05543 3.54229 8.13363L2.50492 11.3946C2.46876 11.5056 2.47723 11.6264 2.52855 11.7313C2.57986 11.8363 2.67 11.9171 2.77988 11.9568L3.00486 12.0193Z" stroke="#3F4345" stroke-width="2" mask="url(#path-1-inside-1_240_775)"/>
<path d="M12.5036 16.867C11.6384 16.867 10.7927 16.6105 10.0733 16.13C9.35392 15.6495 8.79324 14.9665 8.46215 14.1675C8.13105 13.3684 8.04443 12.4892 8.21321 11.6409C8.382 10.7927 8.79863 10.0135 9.41041 9.40193C10.0222 8.79036 10.8016 8.37388 11.6502 8.20515C12.4988 8.03642 13.3783 8.12302 14.1776 8.454C14.977 8.78497 15.6602 9.34546 16.1408 10.0646C16.6215 10.7837 16.8781 11.6292 16.8781 12.494C16.8781 13.6538 16.4172 14.7661 15.5968 15.5862C14.7765 16.4062 13.6638 16.867 12.5036 16.867ZM12.5036 10.6199C12.1328 10.6199 11.7704 10.7299 11.4621 10.9358C11.1537 11.1417 10.9135 11.4344 10.7716 11.7769C10.6297 12.1193 10.5925 12.4961 10.6649 12.8597C10.7372 13.2232 10.9158 13.5571 11.178 13.8192C11.4401 14.0813 11.7742 14.2598 12.1379 14.3321C12.5015 14.4045 12.8785 14.3673 13.2211 14.2255C13.5636 14.0836 13.8564 13.8434 14.0624 13.5352C14.2684 13.227 14.3784 12.8647 14.3784 12.494C14.3784 11.997 14.1809 11.5203 13.8293 11.1689C13.4777 10.8174 13.0008 10.6199 12.5036 10.6199Z" stroke="#3F4345" stroke-width="2" mask="url(#path-1-inside-1_240_775)"/>
</svg>
