<svg width="25" height="25" viewBox="0 0 25 25" fill="none" xmlns="http://www.w3.org/2000/svg">
<path d="M22.5 8.80261V3.06122C22.4992 2.24962 22.2356 1.47153 21.7669 0.897637C21.2983 0.323747 20.6628 0.000928366 20 0H5C4.33719 0.000928366 3.70175 0.323747 3.23307 0.897637C2.76439 1.47153 2.50076 2.24962 2.5 3.06122V8.80261C1.78493 9.02999 1.15162 9.54132 0.699238 10.2565C0.246856 10.9717 0.000942132 11.8505 0 12.7551V19.898C0.000496273 20.439 0.17625 20.9578 0.488703 21.3404C0.801157 21.723 1.22479 21.9382 1.66667 21.9388H2.5V25H4.16667V21.9388H20.8333V25H22.5V21.9388H23.3333C23.7752 21.9382 24.1988 21.723 24.5113 21.3404C24.8237 20.9578 24.9995 20.439 25 19.898V12.7551C24.9991 11.8505 24.7531 10.9717 24.3008 10.2565C23.8484 9.54132 23.2151 9.02999 22.5 8.80261ZM5 19.898H1.66667V12.7551C1.66667 12.2138 1.84226 11.6948 2.15482 11.312C2.46738 10.9293 2.89131 10.7143 3.33333 10.7143C3.77536 10.7143 4.19928 10.9293 4.51184 11.312C4.82441 11.6948 5 12.2138 5 12.7551V19.898ZM18.3333 19.898H6.66667V13.7755H18.3333V19.898ZM18.4388 11.7347H6.5612C6.41115 11.0293 6.11014 10.3857 5.68922 9.87034C5.2683 9.35493 4.74271 8.98635 4.16667 8.80261V3.06122C4.16693 2.79069 4.25481 2.53134 4.41103 2.34004C4.56726 2.14875 4.77907 2.04114 5 2.04082H20C20.2209 2.04114 20.4327 2.14875 20.589 2.34004C20.7452 2.53134 20.8331 2.79069 20.8333 3.06122V8.80261C20.2573 8.98635 19.7317 9.35493 19.3108 9.87034C18.8899 10.3857 18.5889 11.0293 18.4388 11.7347ZM23.3333 19.898H20V12.7551C20 12.2138 20.1756 11.6948 20.4882 11.312C20.8007 10.9293 21.2246 10.7143 21.6667 10.7143C22.1087 10.7143 22.5326 10.9293 22.8452 11.312C23.1577 11.6948 23.3333 12.2138 23.3333 12.7551L23.3344 19.898H23.3333Z" fill="#00A0B0"/>
</svg>
