<svg width="25" height="25" viewBox="0 0 25 25" fill="none" xmlns="http://www.w3.org/2000/svg">
<path d="M12.5 12.931C11.3037 12.931 10.1343 12.5518 9.1397 11.8414C8.14504 11.131 7.36981 10.1212 6.91202 8.93976C6.45423 7.75835 6.33445 6.45835 6.56783 5.20416C6.80121 3.94997 7.37726 2.79793 8.22314 1.89371C9.06903 0.98949 10.1467 0.373709 11.32 0.124236C12.4933 -0.125237 13.7094 0.00280139 14.8146 0.492161C15.9198 0.981521 16.8644 1.81022 17.5291 2.87347C18.1937 3.93672 18.5484 5.18676 18.5484 6.46552C18.5484 8.18028 17.9111 9.82481 16.7769 11.0373C15.6426 12.2498 14.1041 12.931 12.5 12.931ZM12.5 2.58621C11.7822 2.58621 11.0806 2.81373 10.4838 3.23999C9.88703 3.66625 9.42188 4.27212 9.14721 4.98097C8.87254 5.68982 8.80067 6.46982 8.9407 7.22233C9.08073 7.97485 9.42636 8.66607 9.93389 9.2086C10.4414 9.75114 11.088 10.1206 11.792 10.2703C12.496 10.42 13.2257 10.3431 13.8888 10.0495C14.5519 9.75592 15.1187 9.2587 15.5174 8.62075C15.9162 7.9828 16.129 7.23277 16.129 6.46552C16.129 5.43666 15.7467 4.44994 15.0661 3.72243C14.3855 2.99492 13.4625 2.58621 12.5 2.58621ZM23.7903 25C23.4708 24.9955 23.1655 24.8579 22.9396 24.6163C22.7136 24.3748 22.5848 24.0485 22.5806 23.7069C22.5806 20.3448 20.871 18.1034 12.5 18.1034C4.12903 18.1034 2.41935 20.3448 2.41935 23.7069C2.41935 24.0498 2.29191 24.3788 2.06505 24.6213C1.83819 24.8638 1.5305 25 1.20968 25C0.888851 25 0.581165 24.8638 0.354306 24.6213C0.127448 24.3788 0 24.0498 0 23.7069C0 15.5172 8.75806 15.5172 12.5 15.5172C16.2419 15.5172 25 15.5172 25 23.7069C24.9958 24.0485 24.867 24.3748 24.6411 24.6163C24.4151 24.8579 24.1098 24.9955 23.7903 25Z" fill="#3F4345"/>
</svg>
